{"glyphs":{"0":{"ha":874,"x_min":0,"x_max":0,"o":"m 154 688 b 567 1007 189 889 339 1007 b 815 914 679 1007 761 976 b 869 668 869 851 888 769 l 804 299 b 392 -21 767 94 619 -21 b 89 318 165 -21 51 113 m 738 678 b 547 882 760 807 692 882 b 286 678 403 882 308 807 l 221 308 b 411 104 197 181 267 104 b 672 308 554 104 650 181 "},"1":{"ha":590,"x_min":0,"x_max":0,"o":"m 551 986 b 582 950 579 986 588 976 l 421 36 b 378 0 417 13 401 0 l 317 0 b 286 36 289 0 282 10 l 426 824 l 172 696 b 119 708 146 681 128 685 l 100 757 b 126 807 93 778 101 794 l 446 971 b 500 986 464 981 482 986 "},"2":{"ha":821,"x_min":0,"x_max":0,"o":"m 140 779 b 536 1007 231 931 363 1007 b 761 919 638 1007 713 978 b 813 693 810 860 828 785 b 632 435 783 564 742 497 b 519 379 593 413 556 394 b 374 322 483 364 435 344 b 318 303 344 313 326 306 b 271 281 310 299 294 292 b 221 251 247 269 231 260 b 167 165 201 233 172 200 l 160 125 l 665 125 b 694 89 692 125 700 115 l 686 36 b 643 0 682 13 667 0 l 35 0 b 4 38 7 0 0 10 l 22 139 b 149 343 39 228 78 296 b 244 399 183 367 215 385 b 358 444 274 411 311 426 b 564 535 460 482 529 511 b 674 697 626 576 663 631 b 514 882 694 813 632 882 b 260 735 399 882 325 835 b 210 711 247 711 231 704 l 156 733 b 140 779 132 742 128 757 "},"3":{"ha":839,"x_min":0,"x_max":0,"o":"m 803 719 b 649 513 785 619 733 550 b 754 268 740 468 775 386 b 363 -21 722 85 592 -21 b 32 218 157 -21 56 61 b 64 265 28 242 39 257 l 124 285 b 167 263 147 293 163 286 b 379 104 183 151 233 104 b 617 278 518 104 597 163 b 479 442 635 383 589 442 l 303 442 b 274 478 275 442 268 450 l 282 526 b 324 563 286 554 297 563 l 482 563 b 669 715 582 563 653 625 b 514 882 688 822 632 882 b 258 729 376 882 314 839 b 207 707 243 703 231 697 l 153 726 b 139 774 132 735 126 750 b 539 1007 218 931 338 1007 b 803 719 735 1007 835 896 "},"4":{"ha":861,"x_min":0,"x_max":0,"o":"m 783 369 b 813 333 811 369 818 360 l 806 286 b 763 250 801 263 786 250 l 649 250 l 611 36 b 568 0 607 13 592 0 l 515 0 b 485 36 488 0 481 10 l 524 250 l 44 250 b 14 286 17 250 10 260 l 21 325 b 42 369 24 343 31 358 l 628 967 b 683 993 646 985 664 993 l 743 993 b 774 957 771 993 779 985 l 669 369 m 622 811 l 186 369 l 544 369 "},"5":{"ha":821,"x_min":0,"x_max":0,"o":"m 794 986 b 824 950 821 986 829 976 l 815 897 b 772 861 811 874 796 861 l 339 861 l 268 607 l 464 607 b 699 518 571 607 650 578 b 749 289 747 458 764 382 b 621 67 732 199 689 124 b 351 -21 553 8 463 -21 b 21 201 158 -21 49 53 b 51 249 17 224 28 239 l 114 269 b 156 247 138 279 151 271 b 371 104 174 151 246 104 b 607 297 497 104 586 179 b 440 482 628 414 563 482 l 146 482 b 115 526 117 482 107 497 l 228 932 b 299 986 240 975 256 986 "},"6":{"ha":871,"x_min":0,"x_max":0,"o":"m 264 561 b 515 597 343 585 426 597 b 811 278 749 597 847 490 b 394 -21 776 82 628 -21 b 92 346 160 -21 53 119 l 147 660 b 574 1007 188 886 336 1007 b 888 790 753 1007 857 935 b 857 744 892 769 882 754 l 796 724 b 754 746 769 714 760 719 b 553 882 733 836 667 882 b 281 651 399 882 307 806 m 225 335 b 415 104 199 186 265 104 b 679 289 564 104 658 171 b 485 472 701 413 644 472 b 242 431 382 472 301 458 "},"7":{"ha":732,"x_min":0,"x_max":0,"o":"m 793 986 b 824 950 819 986 828 976 l 817 913 b 797 861 813 894 807 876 l 281 32 b 208 0 264 4 253 0 l 149 0 b 138 36 125 0 121 13 l 653 861 l 165 861 b 135 897 138 861 131 871 l 144 950 b 186 986 149 974 163 986 "},"8":{"ha":861,"x_min":0,"x_max":0,"o":"m 175 746 b 556 1007 204 914 344 1007 b 847 740 776 1007 876 908 b 757 582 835 672 803 617 b 639 513 711 547 685 533 b 790 250 754 463 814 390 b 375 -21 760 69 621 -21 b 53 240 119 -21 24 74 b 300 496 74 357 156 442 b 175 746 196 551 154 635 m 717 738 b 536 890 735 838 669 890 b 307 738 401 890 325 839 b 349 619 297 683 310 646 b 481 564 386 593 418 581 l 522 553 b 626 601 563 565 578 572 b 717 738 675 629 706 676 m 653 257 b 578 399 667 331 635 374 b 443 442 535 417 503 426 b 410 450 431 444 422 447 b 192 253 281 414 208 349 b 396 96 175 151 233 96 b 653 257 549 96 635 150 "},"9":{"ha":872,"x_min":0,"x_max":0,"o":"m 669 425 b 418 389 590 401 507 389 b 122 708 185 389 86 496 b 539 1007 157 904 306 1007 b 842 640 774 1007 881 867 l 786 326 b 360 -21 746 100 597 -21 b 46 196 181 -21 76 51 b 78 242 42 217 51 232 l 138 263 b 179 240 164 272 174 267 b 381 104 200 150 268 104 b 653 335 535 104 626 181 m 708 651 b 518 882 736 800 668 882 b 254 697 369 882 276 818 b 449 514 233 574 289 514 b 693 556 549 514 631 528 "}," ":{"ha":321,"x_min":0,"x_max":0,"o":""},"!":{"ha":308,"x_min":0,"x_max":0,"o":"m 301 1028 b 328 994 328 1028 333 1018 l 189 289 b 150 256 185 267 171 256 l 117 256 b 89 289 93 256 85 263 l 199 994 b 239 1028 203 1017 215 1028 m 118 143 b 175 72 169 143 185 126 l 174 61 b 90 -8 164 7 144 -8 l 82 -8 b 24 61 28 -8 14 7 l 25 72 b 108 143 35 126 57 143 "},"\"":{"ha":442,"x_min":0,"x_max":0,"o":"m 226 674 b 189 646 219 650 215 646 l 154 646 b 129 674 131 646 125 650 l 179 957 b 214 986 183 981 190 986 l 265 986 b 292 957 292 986 297 981 m 397 674 b 360 646 392 650 386 646 l 326 646 b 300 674 300 646 296 650 l 351 957 b 386 986 353 981 360 986 l 438 986 b 463 957 461 986 468 981 "},"#":{"ha":968,"x_min":0,"x_max":0,"o":"m 946 681 b 965 647 969 681 975 674 l 940 597 b 892 567 931 576 915 567 l 761 567 l 665 365 l 797 365 b 817 332 824 365 828 356 l 792 282 b 742 251 782 261 765 251 l 611 251 l 508 33 b 460 0 496 11 481 0 l 406 0 b 389 33 382 0 376 11 l 492 251 l 296 251 l 193 33 b 144 0 181 11 165 0 l 90 0 b 72 33 68 0 63 11 l 175 251 l 47 251 b 29 283 24 251 18 260 l 53 335 b 103 365 63 356 79 365 l 231 365 l 325 567 l 196 567 b 178 599 172 567 167 578 l 201 650 b 250 681 211 671 226 681 l 381 681 l 475 883 b 525 917 488 906 504 917 l 578 917 b 596 883 601 917 608 906 l 500 681 l 696 681 l 792 883 b 839 917 801 906 818 917 l 893 917 b 911 883 917 917 924 906 l 815 681 m 446 567 l 350 365 l 546 365 l 642 567 "},"$":{"ha":819,"x_min":0,"x_max":0,"o":"m 561 1082 b 589 1049 588 1082 593 1072 l 575 969 b 807 771 707 954 769 883 b 776 718 814 747 803 729 l 725 697 b 678 715 699 686 688 689 b 485 846 646 804 600 846 b 258 697 351 846 276 796 b 333 583 253 631 274 601 b 460 561 376 571 403 567 b 638 522 532 554 576 547 b 707 475 667 510 690 493 b 746 283 740 436 761 371 b 407 19 718 121 607 40 l 393 -62 b 354 -96 389 -85 376 -96 l 296 -96 b 268 -62 272 -96 264 -86 l 282 18 b 31 242 143 32 60 107 b 64 292 26 265 38 282 l 119 311 b 167 288 149 321 160 315 b 364 139 189 189 246 139 b 614 292 511 139 594 190 b 539 411 619 361 599 393 b 413 433 494 424 472 428 b 235 475 340 440 294 449 b 165 522 206 488 182 504 b 125 708 131 560 110 625 b 450 969 151 865 260 953 l 464 1049 b 503 1082 468 1071 481 1082 "},"%":{"ha":1131,"x_min":0,"x_max":0,"o":"m 118 804 b 378 1008 140 932 233 1008 b 567 801 522 1008 589 929 l 549 700 b 289 499 526 572 435 499 b 100 703 144 499 78 576 m 1056 986 b 1068 951 1082 986 1085 969 l 231 32 b 153 0 204 3 197 0 l 110 0 b 97 38 83 0 81 17 l 938 956 b 1008 986 961 983 969 986 m 461 797 b 361 908 474 868 439 908 b 221 797 281 908 233 871 l 206 708 b 306 597 193 638 228 597 b 446 708 383 597 433 638 m 614 285 b 874 488 636 413 729 488 b 1064 281 1018 488 1086 408 l 1046 179 b 785 -22 1024 53 931 -22 b 596 185 640 -22 574 57 m 958 276 b 857 388 971 347 935 388 b 718 276 776 388 731 350 l 701 189 b 803 78 689 118 725 78 b 943 189 883 78 931 115 "},"&":{"ha":922,"x_min":0,"x_max":0,"o":"m 231 767 b 331 938 243 833 276 890 b 532 1007 385 983 451 1007 b 700 936 603 1007 660 983 b 743 765 740 889 756 832 b 493 511 721 644 649 578 l 479 504 l 653 293 l 761 382 b 806 382 776 397 792 397 l 840 339 b 831 300 850 326 847 313 l 719 207 l 861 33 b 839 0 876 11 868 0 l 763 0 b 717 21 742 0 726 7 l 626 129 b 443 10 553 69 492 31 b 288 -21 394 -11 342 -21 b 97 60 206 -21 142 6 b 53 264 53 114 38 182 b 300 539 75 397 165 478 b 231 767 240 613 218 689 m 626 768 b 513 897 638 839 590 897 b 347 760 428 897 360 836 b 413 590 336 699 357 657 l 457 611 b 626 768 564 657 611 690 m 365 453 b 179 260 253 404 194 347 b 314 97 163 167 219 97 b 558 217 390 97 449 129 "},"'":{"ha":271,"x_min":0,"x_max":0,"o":"m 226 674 b 189 646 219 650 215 646 l 154 646 b 129 674 131 646 125 650 l 179 957 b 214 986 183 981 190 986 l 265 986 b 292 957 292 986 297 981 "},"(":{"ha":376,"x_min":0,"x_max":0,"o":"m 179 847 b 433 1178 211 1019 290 1117 b 474 1157 454 1186 468 1179 l 489 1103 b 463 1058 494 1079 489 1071 b 303 850 372 1018 321 960 l 174 121 b 261 -87 153 10 183 -47 b 271 -132 283 -103 286 -110 l 240 -171 b 192 -192 225 -192 208 -199 b 54 139 69 -131 22 -35 "},")":{"ha":375,"x_min":0,"x_max":0,"o":"m 189 1157 b 236 1178 210 1181 214 1185 b 375 847 358 1117 407 1019 l 249 139 b -4 -192 219 -33 139 -131 b -44 -171 -25 -201 -39 -194 l -60 -117 b -33 -71 -65 -94 -60 -86 b 128 138 57 -32 107 26 l 257 865 b 169 1075 275 978 247 1035 b 158 1119 149 1088 144 1103 "},"*":{"ha":513,"x_min":0,"x_max":0,"o":"m 374 935 b 388 914 390 935 394 928 l 351 779 l 485 833 b 510 822 499 839 507 835 l 515 786 b 496 761 517 772 511 764 l 358 733 l 429 631 b 422 603 439 621 438 613 l 389 581 b 361 588 374 571 365 574 l 314 703 l 225 588 b 194 579 215 574 206 571 l 168 603 b 171 632 157 613 158 622 l 279 733 l 153 761 b 142 788 139 764 135 772 l 160 822 b 189 833 168 838 178 840 l 303 779 l 314 914 b 335 935 314 928 321 935 "},"+":{"ha":769,"x_min":0,"x_max":0,"o":"m 696 513 b 726 476 724 513 731 504 l 719 433 b 676 396 715 408 700 396 l 443 396 l 401 163 b 358 126 397 139 382 126 l 314 126 b 285 163 288 126 279 136 l 326 396 l 93 396 b 64 433 65 396 58 406 l 71 476 b 114 513 75 504 86 513 l 346 513 l 388 746 b 429 782 392 769 406 782 l 474 782 b 504 746 501 782 508 772 l 463 513 "},",":{"ha":271,"x_min":0,"x_max":0,"o":"m 58 -136 b 17 -169 51 -158 38 -169 l -7 -169 b -29 -143 -28 -169 -33 -164 l 26 99 b 71 139 31 131 42 139 l 119 139 b 153 99 153 139 164 125 "},"-":{"ha":579,"x_min":0,"x_max":0,"o":"m 465 428 b 494 392 492 428 500 419 l 486 344 b 444 308 482 317 471 308 l 103 308 b 72 344 75 308 68 317 l 81 392 b 124 428 86 419 96 428 "},".":{"ha":282,"x_min":0,"x_max":0,"o":"m 111 143 b 168 72 163 143 178 126 l 167 61 b 83 -8 157 10 138 -8 l 74 -8 b 17 61 19 -8 6 7 l 18 72 b 101 143 28 126 50 143 "},"/":{"ha":594,"x_min":0,"x_max":0,"o":"m 106 -53 b 57 -83 94 -74 78 -83 l -4 -83 b -21 -53 -26 -83 -32 -74 l 533 957 b 582 988 544 978 561 988 l 643 988 b 660 957 665 988 671 978 "},":":{"ha":328,"x_min":0,"x_max":0,"o":"m 179 443 b 236 372 233 443 246 426 l 235 363 b 229 338 233 356 229 343 b 226 311 229 333 228 324 l 224 300 b 140 229 214 246 194 229 l 132 229 b 74 300 78 229 64 246 l 76 311 b 82 333 78 321 81 328 b 85 363 81 340 82 350 l 86 372 b 169 443 96 426 115 443 "},";":{"ha":326,"x_min":0,"x_max":0,"o":"m 207 682 b 265 611 261 682 275 665 l 263 600 b 179 531 253 546 233 531 l 171 531 b 113 600 117 531 103 546 l 115 611 b 199 682 122 665 144 682 m 64 -136 b 18 -169 51 -158 36 -169 l -6 -169 b -25 -143 -26 -169 -31 -164 l 60 99 b 113 139 69 131 81 139 l 160 139 b 186 99 193 139 201 125 "},"<":{"ha":682,"x_min":0,"x_max":0,"o":"m 626 781 b 661 753 658 796 667 786 l 653 706 b 607 644 646 667 639 660 l 210 457 l 208 451 l 540 264 b 564 204 567 249 569 244 l 556 153 b 511 125 549 121 535 113 l 72 390 b 49 435 51 401 47 411 l 56 471 b 94 517 61 494 68 504 "},"=":{"ha":828,"x_min":0,"x_max":0,"o":"m 749 651 b 778 615 775 651 783 642 l 769 567 b 726 531 764 539 754 531 l 143 531 b 114 567 117 531 108 539 l 122 615 b 165 651 126 639 142 651 m 700 376 b 729 340 726 376 735 368 l 721 293 b 679 257 715 265 706 257 l 96 257 b 65 293 68 257 60 265 l 74 340 b 117 376 79 368 89 376 "},">":{"ha":682,"x_min":0,"x_max":0,"o":"m 144 754 b 188 781 151 786 167 796 l 628 517 b 650 471 646 506 654 490 l 643 436 b 606 390 639 415 626 400 l 72 126 b 39 154 43 111 33 121 l 47 208 b 92 268 54 246 63 253 l 490 456 l 492 463 l 161 649 b 136 710 133 664 129 669 "},"?":{"ha":783,"x_min":0,"x_max":0,"o":"m 115 801 b 501 1026 200 951 329 1026 b 738 943 606 1026 683 999 b 794 736 790 886 810 818 b 753 611 785 688 768 643 b 683 526 736 579 701 544 b 603 469 665 508 619 479 b 522 424 590 461 531 429 b 388 269 443 379 400 342 b 347 235 382 242 374 235 l 304 235 b 275 269 276 235 269 242 b 461 510 296 392 357 449 b 478 519 465 511 471 515 b 592 599 533 551 551 564 b 661 735 631 633 651 678 b 488 908 679 836 617 908 b 224 757 371 908 283 858 b 174 733 208 732 192 724 l 129 756 b 115 801 106 767 100 775 m 315 143 b 372 72 367 143 382 126 l 371 61 b 288 -8 361 10 342 -8 l 279 -8 b 221 61 225 -8 211 7 l 222 72 b 306 143 232 126 254 143 "},"@":{"ha":1251,"x_min":0,"x_max":0,"o":"m 117 457 b 335 860 147 626 219 761 b 772 1007 450 958 596 1007 b 1161 858 951 1007 1082 957 b 1236 457 1240 760 1265 625 l 1218 356 b 1111 138 1201 263 1165 189 b 926 60 1056 86 994 60 b 829 115 869 60 850 75 b 569 71 740 86 654 71 b 368 301 408 71 342 153 l 406 508 b 688 740 432 663 526 740 b 932 699 783 740 865 726 b 967 632 967 683 974 671 l 893 208 b 944 151 886 171 903 151 b 1119 353 1022 151 1096 215 l 1138 458 b 757 918 1192 754 1058 918 b 215 458 464 918 267 747 l 197 353 b 578 -96 146 64 282 -96 b 885 -60 647 -96 750 -83 b 901 -71 900 -56 903 -58 l 893 -119 b 868 -147 892 -135 883 -143 b 563 -183 772 -171 669 -183 b 100 356 206 -183 39 15 m 842 621 b 685 643 804 636 751 643 b 510 506 585 643 526 597 l 475 304 b 601 167 458 213 500 167 b 786 200 664 167 726 178 l 856 596 b 842 621 858 608 854 617 "},"A":{"ha":899,"x_min":0,"x_max":0,"o":"m 838 36 b 807 0 842 13 832 0 l 757 0 b 696 32 711 0 700 6 l 650 258 l 239 258 l 113 32 b 40 0 97 6 85 0 l -14 0 b -32 36 -40 0 -46 13 l 492 958 b 543 989 503 979 519 989 l 599 989 b 640 960 626 989 636 982 m 557 733 b 554 860 551 789 549 843 l 554 864 l 547 864 b 500 735 547 864 533 797 l 297 368 l 632 368 "},"B":{"ha":899,"x_min":0,"x_max":0,"o":"m 631 986 b 863 725 803 986 890 885 b 706 514 842 621 790 551 l 704 510 b 817 260 799 481 839 388 b 471 0 785 92 653 0 l 69 0 b 39 36 42 0 35 10 l 200 950 b 243 986 204 974 219 986 m 722 711 b 594 861 740 811 699 861 l 319 861 l 265 563 l 542 563 b 722 711 644 563 704 613 m 678 282 b 544 440 696 383 649 440 l 244 440 l 189 125 l 489 125 b 678 282 596 125 660 178 "},"C":{"ha":882,"x_min":0,"x_max":0,"o":"m 146 658 b 593 1007 185 881 343 1007 b 918 768 794 1007 896 925 b 889 721 924 742 918 731 l 836 704 b 793 726 808 694 799 700 b 575 882 776 832 713 882 b 281 653 408 882 304 799 l 224 335 b 438 106 197 186 275 106 b 713 263 576 106 658 156 b 764 286 725 286 742 294 l 821 264 b 836 217 843 254 849 239 b 419 -21 757 60 626 -21 b 90 342 174 -21 51 119 "},"D":{"ha":915,"x_min":0,"x_max":0,"o":"m 544 986 b 882 608 799 986 922 838 l 838 356 b 378 0 797 128 635 0 l 69 0 b 39 36 42 0 35 10 l 200 950 b 243 986 204 974 219 986 m 750 621 b 524 861 776 775 696 861 l 319 861 l 189 125 l 394 125 b 706 365 567 125 678 211 "},"E":{"ha":800,"x_min":0,"x_max":0,"o":"m 801 986 b 832 950 828 986 836 976 l 822 897 b 779 861 818 874 804 861 l 319 861 l 267 563 l 663 563 b 693 525 690 563 697 553 l 683 474 b 640 438 679 450 664 438 l 243 438 l 189 125 l 667 125 b 696 89 693 125 701 115 l 688 36 b 644 0 683 13 668 0 l 69 0 b 39 36 42 0 35 10 l 200 950 b 243 986 204 974 219 986 "},"F":{"ha":783,"x_min":0,"x_max":0,"o":"m 801 986 b 832 950 828 986 836 976 l 822 897 b 779 861 818 874 804 861 l 319 861 l 264 549 l 657 549 b 686 513 683 549 692 539 l 678 460 b 635 424 674 436 658 424 l 242 424 l 174 36 b 131 0 169 13 154 0 l 69 0 b 39 36 42 0 35 10 l 200 950 b 243 986 204 974 219 986 "},"G":{"ha":911,"x_min":0,"x_max":0,"o":"m 863 525 b 892 488 890 525 897 515 l 860 301 b 417 -21 825 100 663 -21 b 90 344 171 -21 51 121 l 146 661 b 594 1007 185 883 343 1007 b 919 769 788 1007 896 928 b 892 722 925 743 919 732 l 835 704 b 792 726 811 696 796 703 b 574 882 775 832 711 882 b 279 653 408 882 306 799 l 224 335 b 438 104 197 189 272 104 b 729 310 599 104 707 186 l 744 400 l 503 400 b 474 436 476 400 469 408 l 482 489 b 525 525 486 513 501 525 "},"H":{"ha":951,"x_min":0,"x_max":0,"o":"m 914 986 b 944 950 940 986 949 976 l 783 36 b 740 0 779 13 764 0 l 679 0 b 649 36 651 0 644 10 l 719 438 l 243 438 l 174 36 b 131 0 169 13 154 0 l 69 0 b 39 36 42 0 35 10 l 200 950 b 243 986 204 974 219 986 l 304 986 b 335 950 332 986 340 976 l 267 563 l 742 563 l 810 950 b 853 986 814 974 829 986 "},"I":{"ha":343,"x_min":0,"x_max":0,"o":"m 200 950 b 243 986 204 974 219 986 l 304 986 b 335 950 332 986 340 976 l 174 36 b 131 0 169 13 154 0 l 69 0 b 39 36 42 0 35 10 "},"J":{"ha":793,"x_min":0,"x_max":0,"o":"m 763 986 b 792 950 789 986 797 976 l 678 300 b 286 -21 639 86 508 -21 b -8 226 106 -21 7 61 b 21 274 -12 254 -7 264 l 78 293 b 121 269 101 300 117 293 b 299 104 129 160 189 104 b 546 315 436 104 522 181 l 658 950 b 700 986 663 976 672 986 "},"K":{"ha":857,"x_min":0,"x_max":0,"o":"m 767 38 b 742 0 775 13 767 0 l 681 0 b 615 32 635 0 625 6 l 518 329 b 356 439 490 413 457 439 l 244 439 l 174 36 b 131 0 169 13 154 0 l 69 0 b 39 36 42 0 35 10 l 200 950 b 243 986 204 974 219 986 l 304 986 b 335 950 332 986 340 976 l 265 561 l 364 561 l 389 561 l 754 956 b 832 986 778 982 789 986 l 900 986 b 913 951 926 986 929 968 l 515 531 b 651 378 579 510 625 458 "},"L":{"ha":721,"x_min":0,"x_max":0,"o":"m 304 986 b 335 950 332 986 340 976 l 189 125 l 626 125 b 657 89 654 125 661 115 l 647 36 b 604 0 643 13 629 0 l 69 0 b 39 36 42 0 35 10 l 200 950 b 243 986 204 974 219 986 "},"M":{"ha":1121,"x_min":0,"x_max":0,"o":"m 1082 986 b 1113 950 1110 986 1118 976 l 951 36 b 908 0 947 13 933 0 l 854 0 b 824 36 826 0 819 10 l 913 538 b 983 799 926 614 950 700 l 976 799 b 824 565 933 722 883 644 l 593 251 b 546 225 579 233 564 225 l 517 225 b 478 251 493 225 488 231 l 354 568 b 290 799 326 635 306 711 l 283 799 b 258 538 282 707 274 619 l 171 36 b 128 0 167 13 153 0 l 69 0 b 39 36 42 0 35 10 l 200 950 b 243 986 204 974 219 986 l 289 986 b 336 958 318 986 326 981 l 556 390 l 972 957 b 1028 986 990 981 1000 986 "},"N":{"ha":964,"x_min":0,"x_max":0,"o":"m 926 986 b 957 950 953 986 961 976 l 796 36 b 753 0 792 13 776 0 l 692 0 b 658 18 675 0 664 6 l 367 594 b 319 724 351 628 335 671 b 292 808 303 776 293 804 l 286 808 b 279 711 285 804 283 772 b 263 550 275 649 269 596 l 172 36 b 129 0 168 13 153 0 l 69 0 b 39 36 42 0 35 10 l 200 950 b 243 986 204 974 219 986 l 299 986 b 335 968 315 986 328 981 l 624 401 b 676 265 642 364 660 319 b 704 179 693 211 703 182 l 711 179 b 718 279 713 183 714 217 b 735 447 721 342 726 399 l 824 950 b 867 986 828 974 843 986 "},"O":{"ha":926,"x_min":0,"x_max":0,"o":"m 147 660 b 593 1007 186 882 343 1007 b 921 640 842 1007 960 864 l 865 324 b 421 -21 826 103 671 -21 b 92 343 172 -21 53 121 m 790 651 b 576 882 817 800 739 882 b 281 651 411 882 307 800 l 225 335 b 439 104 199 186 276 104 b 733 335 601 104 707 186 "},"P":{"ha":871,"x_min":0,"x_max":0,"o":"m 614 986 b 832 896 711 986 783 956 b 875 658 879 836 893 757 b 503 358 840 465 703 358 l 231 358 l 174 36 b 131 0 169 13 154 0 l 69 0 b 39 36 42 0 35 10 l 200 950 b 243 986 204 974 219 986 m 513 483 b 739 671 633 483 717 553 b 579 861 760 789 700 861 l 319 861 l 251 483 "},"Q":{"ha":947,"x_min":0,"x_max":0,"o":"m 147 660 b 593 1007 186 882 343 1007 b 921 640 842 1007 960 864 l 865 324 b 753 97 849 228 811 153 l 822 -4 b 808 -57 835 -22 829 -40 l 761 -90 b 711 -86 740 -106 724 -104 l 638 24 b 421 -21 578 -6 506 -21 b 92 343 172 -21 53 121 m 576 882 b 281 651 411 882 307 800 l 225 335 b 439 104 199 186 276 104 b 733 335 601 104 707 186 l 790 651 b 576 882 817 800 739 882 "},"R":{"ha":897,"x_min":0,"x_max":0,"o":"m 632 986 b 879 681 819 986 914 868 b 628 414 854 535 771 446 b 683 336 653 399 671 374 l 785 38 b 760 0 793 13 785 0 l 699 0 b 631 32 653 0 638 6 l 550 286 b 500 374 538 329 521 358 b 393 396 479 389 444 396 l 238 396 l 174 36 b 131 0 169 13 154 0 l 69 0 b 39 36 42 0 35 10 l 200 950 b 243 986 204 974 219 986 m 740 690 b 599 861 761 800 710 861 l 319 861 l 258 521 l 539 521 b 740 690 649 521 722 583 "},"S":{"ha":865,"x_min":0,"x_max":0,"o":"m 126 736 b 538 1007 158 910 300 1007 b 857 792 721 1007 813 931 b 831 747 864 768 858 758 l 772 722 b 728 739 746 711 738 715 b 518 878 699 829 639 878 b 260 725 364 878 278 826 b 322 603 250 665 271 625 b 497 561 372 579 418 571 b 721 489 590 550 656 532 b 794 258 786 444 813 365 b 368 -21 763 72 619 -21 b 22 217 171 -21 56 58 b 53 264 18 240 29 256 l 115 285 b 157 263 142 294 150 289 b 381 106 183 158 257 106 b 661 275 547 106 640 163 b 579 406 672 346 640 385 b 442 433 535 421 503 426 b 249 481 365 440 313 451 b 171 535 217 496 190 514 b 126 736 132 576 110 647 "},"T":{"ha":765,"x_min":0,"x_max":0,"o":"m 813 986 b 843 950 840 986 849 976 l 833 897 b 792 861 829 874 815 861 l 529 861 l 383 36 b 340 0 379 13 365 0 l 279 0 b 250 36 253 0 244 10 l 396 861 l 133 861 b 103 897 106 861 99 871 l 113 950 b 154 986 117 974 131 986 "},"U":{"ha":951,"x_min":0,"x_max":0,"o":"m 246 336 b 451 104 219 190 290 104 b 738 336 613 104 711 190 l 846 950 b 889 986 850 974 865 986 l 950 986 b 981 950 978 986 986 976 l 869 324 b 432 -21 831 103 682 -21 b 167 82 310 -21 221 14 b 114 350 111 150 93 239 l 221 950 b 263 986 225 974 239 986 l 324 986 b 354 950 351 986 360 976 "},"V":{"ha":872,"x_min":0,"x_max":0,"o":"m 940 986 b 957 950 965 986 971 974 l 449 31 b 397 0 438 10 421 0 l 340 0 b 300 29 314 0 304 7 l 115 950 b 146 986 111 974 121 986 l 200 986 b 257 954 243 986 256 978 l 381 288 b 393 160 389 239 392 163 l 400 160 b 456 286 400 160 432 240 l 815 954 b 883 986 831 981 840 986 "},"W":{"ha":1232,"x_min":0,"x_max":0,"o":"m 1281 986 b 1299 950 1307 986 1310 976 l 901 31 b 850 0 893 10 876 0 l 788 0 b 747 29 761 0 747 10 l 689 647 b 689 792 685 692 685 740 l 682 792 b 631 647 671 749 654 700 l 353 31 b 300 0 343 10 326 0 l 240 0 b 201 29 213 0 203 6 l 125 950 b 156 986 121 976 129 986 l 226 986 b 269 954 258 986 268 981 l 310 353 b 306 186 311 328 310 272 l 311 186 b 369 351 338 268 357 324 l 639 943 b 693 975 649 964 667 975 l 747 975 b 790 943 775 975 789 964 l 847 351 b 849 186 851 311 853 256 l 856 186 b 908 350 871 243 889 299 l 1158 954 b 1213 986 1169 981 1181 986 "},"X":{"ha":869,"x_min":0,"x_max":0,"o":"m 919 986 b 932 951 942 986 949 968 l 536 501 l 782 38 b 757 0 794 19 785 0 l 686 0 b 621 32 642 0 633 4 l 432 397 l 124 32 b 47 0 100 3 92 0 l -28 0 b -39 38 -56 0 -57 17 l 368 503 l 133 951 b 157 986 122 968 133 986 l 226 986 b 293 956 269 986 276 982 l 471 608 l 771 956 b 842 986 794 982 803 986 "},"Y":{"ha":876,"x_min":0,"x_max":0,"o":"m 944 986 b 957 950 971 986 974 968 l 507 394 l 443 36 b 401 0 439 13 425 0 l 339 0 b 310 36 313 0 304 10 l 372 397 l 118 950 b 143 986 108 968 117 986 l 215 986 b 281 954 261 986 269 983 l 465 533 l 797 954 b 874 986 818 983 828 986 "},"Z":{"ha":793,"x_min":0,"x_max":0,"o":"m 808 986 b 839 950 836 986 844 976 l 831 899 b 811 860 826 881 819 868 l 161 125 l 669 125 b 699 89 696 125 704 117 l 690 36 b 647 0 686 13 671 0 l 10 0 b -19 36 -17 0 -25 10 l -11 88 b 8 128 -8 103 -1 115 l 657 861 l 168 861 b 138 897 142 861 133 871 l 147 950 b 190 986 151 974 167 986 "},"[":{"ha":394,"x_min":0,"x_max":0,"o":"m 479 1189 b 506 1157 507 1189 511 1185 l 497 1110 b 460 1078 493 1082 488 1078 l 331 1078 l 124 -90 l 254 -90 b 281 -122 282 -90 285 -94 l 272 -171 b 233 -203 267 -199 261 -203 l 18 -203 b -8 -169 -10 -203 -14 -197 l 225 1156 b 264 1189 229 1183 236 1189 "},"\\":{"ha":582,"x_min":0,"x_max":0,"o":"m 143 956 b 169 986 139 976 149 986 l 226 986 b 265 956 250 986 260 979 l 463 -53 b 435 -83 467 -75 461 -83 l 379 -83 b 339 -53 353 -83 344 -76 "},"]":{"ha":394,"x_min":0,"x_max":0,"o":"m 411 1189 b 439 1156 439 1189 444 1183 l 206 -169 b 165 -203 200 -197 193 -203 l -50 -203 b -75 -171 -78 -203 -81 -199 l -67 -122 b -29 -90 -62 -96 -57 -90 l 101 -90 l 307 1078 l 176 1078 b 150 1110 150 1078 146 1082 l 158 1157 b 196 1189 163 1185 168 1189 "},"^":{"ha":815,"x_min":0,"x_max":0,"o":"m 590 1125 b 631 1096 621 1118 614 1121 l 847 761 b 822 722 865 735 857 722 l 768 722 b 707 751 729 722 724 725 l 553 1000 l 547 1000 l 306 751 b 235 722 279 725 275 722 l 185 722 b 172 761 150 722 146 735 l 504 1096 b 556 1125 524 1115 540 1125 "},"_":{"ha":696,"x_min":0,"x_max":0,"o":"m 499 0 b 529 -36 526 0 533 -10 l 521 -83 b 478 -119 517 -111 506 -119 l -76 -119 b -107 -83 -104 -119 -111 -111 l -99 -36 b -56 0 -94 -12 -81 0 "},"`":{"ha":357,"x_min":0,"x_max":0,"o":"m 174 1008 b 235 1010 190 1025 211 1025 l 426 878 b 422 842 439 869 438 857 l 404 824 b 361 821 394 814 381 813 l 139 938 b 140 976 121 949 122 954 "},"a":{"ha":743,"x_min":0,"x_max":0,"o":"m 94 469 b 446 738 128 657 236 738 b 682 694 544 738 622 724 b 721 618 722 674 728 663 l 622 60 b 581 18 618 33 608 25 b 296 -21 490 -8 394 -21 b 60 275 108 -21 28 97 m 572 603 b 436 624 529 617 483 624 b 215 453 304 624 238 575 l 182 265 b 325 93 164 156 213 93 b 508 119 389 93 450 101 l 589 574 b 572 603 590 590 589 593 "},"b":{"ha":747,"x_min":0,"x_max":0,"o":"m 290 1028 b 317 994 314 1028 321 1021 l 265 703 b 467 738 342 726 410 738 b 697 453 654 738 729 631 l 663 258 b 308 -21 631 72 513 -21 b 74 22 215 -21 136 -7 b 35 99 33 43 25 54 l 193 994 b 232 1028 197 1017 210 1028 m 574 461 b 429 626 593 571 544 626 b 246 590 374 626 313 614 l 167 142 b 181 115 164 129 168 119 b 319 93 221 100 267 93 b 540 272 447 93 521 153 "},"c":{"ha":710,"x_min":0,"x_max":0,"o":"m 94 467 b 446 738 125 647 242 738 b 706 551 600 738 686 675 b 678 504 710 528 700 511 l 635 489 b 592 511 610 481 596 488 b 428 628 576 589 522 628 b 217 463 308 628 238 572 l 181 254 b 332 89 160 150 214 89 b 536 210 426 89 494 129 b 588 232 549 236 564 242 l 633 217 b 647 169 656 208 660 193 b 315 -21 579 43 469 -21 b 58 267 115 -21 26 89 "},"d":{"ha":746,"x_min":0,"x_max":0,"o":"m 96 465 b 425 738 128 647 238 738 b 614 707 478 738 540 728 l 665 994 b 704 1028 669 1017 682 1028 l 763 1028 b 789 994 786 1028 793 1021 l 631 99 b 563 22 621 53 611 40 b 307 -21 483 -7 399 -21 b 61 271 108 -21 28 88 m 594 593 b 429 624 531 614 475 624 b 217 450 308 624 238 565 l 183 263 b 338 93 164 150 215 93 b 492 115 394 93 446 100 b 515 142 508 122 511 125 "},"e":{"ha":731,"x_min":0,"x_max":0,"o":"m 92 454 b 457 738 125 636 257 738 b 721 485 646 738 753 639 b 388 294 694 358 583 294 b 190 314 329 294 264 301 l 179 254 b 336 88 161 147 214 88 b 546 179 428 88 497 118 b 603 193 565 201 585 206 l 636 171 b 639 117 657 157 657 139 b 317 -21 568 25 461 -21 b 61 281 110 -21 28 103 m 600 500 b 439 632 618 585 561 632 b 215 454 321 632 236 565 l 207 411 b 404 390 274 397 339 390 b 600 500 518 390 583 426 "},"f":{"ha":496,"x_min":0,"x_max":0,"o":"m 564 1028 b 592 994 590 1028 596 1021 l 583 951 b 543 917 579 928 565 917 b 394 879 474 917 424 904 b 333 742 365 853 344 807 l 329 717 l 511 717 b 538 683 535 717 542 710 l 529 635 b 492 601 525 613 513 601 l 310 601 l 208 33 b 168 0 204 11 192 0 l 113 0 b 85 33 86 0 79 10 l 185 601 l 79 601 b 51 635 56 601 47 611 l 60 683 b 100 717 64 706 78 717 l 204 717 l 208 742 b 544 1028 246 940 340 1026 "},"g":{"ha":747,"x_min":0,"x_max":0,"o":"m 88 465 b 440 738 119 653 233 738 b 676 694 539 738 617 724 b 715 618 717 674 722 663 l 599 -39 b 251 -335 564 -236 449 -335 b -4 -192 119 -335 33 -287 b 18 -137 -15 -168 -8 -150 l 60 -118 b 111 -131 88 -106 99 -108 b 265 -224 135 -193 186 -224 b 475 -40 383 -224 453 -162 l 489 39 b 293 4 413 15 347 4 b 57 296 106 4 25 117 m 568 603 b 431 624 526 617 481 624 b 208 447 301 624 231 568 l 179 285 b 324 118 161 174 208 118 b 508 149 371 118 432 128 l 583 575 b 568 603 588 592 585 596 "},"h":{"ha":767,"x_min":0,"x_max":0,"o":"m 290 1028 b 317 994 314 1028 321 1018 l 265 707 b 465 738 313 728 379 738 b 697 454 654 738 729 633 l 624 33 b 583 0 619 11 606 0 l 526 0 b 499 33 500 0 494 7 l 574 458 b 428 624 594 568 546 624 b 246 592 351 624 290 613 l 147 33 b 108 0 143 11 131 0 l 50 0 b 24 33 24 0 18 10 l 192 994 b 232 1028 196 1017 208 1028 "},"i":{"ha":296,"x_min":0,"x_max":0,"o":"m 256 979 b 310 913 306 979 319 963 l 310 901 b 231 835 300 851 281 835 l 222 835 b 168 901 171 835 158 850 l 168 913 b 247 979 178 963 197 979 m 235 717 b 261 683 258 717 265 710 l 147 33 b 108 0 143 11 131 0 l 50 0 b 24 33 24 0 18 10 l 138 683 b 176 717 142 706 154 717 "},"j":{"ha":297,"x_min":0,"x_max":0,"o":"m 254 979 b 308 913 304 979 318 963 l 308 901 b 229 835 299 851 279 835 l 221 835 b 167 901 169 835 157 850 l 167 913 b 246 979 176 963 196 979 m 232 717 b 260 683 258 717 264 710 l 138 -11 b -218 -319 101 -217 -17 -319 b -246 -286 -244 -319 -250 -312 l -237 -237 b -197 -204 -233 -215 -221 -204 b 14 -8 -68 -204 -8 -137 l 136 683 b 176 717 140 706 153 717 "},"k":{"ha":713,"x_min":0,"x_max":0,"o":"m 618 39 b 589 0 628 11 621 0 l 536 0 b 485 31 501 0 494 4 l 424 238 b 315 314 408 293 378 314 l 196 314 l 147 35 b 106 0 143 11 129 0 l 51 0 b 24 35 25 0 18 8 l 192 994 b 233 1028 196 1017 210 1028 l 288 1028 b 317 994 314 1028 321 1021 l 217 424 l 317 424 l 328 424 l 582 692 b 651 717 603 715 613 717 l 704 717 b 718 678 738 717 742 704 l 447 399 b 538 286 488 383 518 346 "},"l":{"ha":306,"x_min":0,"x_max":0,"o":"m 150 33 b 110 0 146 11 132 0 l 53 0 b 25 33 26 0 21 7 l 194 994 b 235 1028 199 1017 211 1028 l 292 1028 b 318 994 318 1028 324 1018 "},"m":{"ha":1139,"x_min":0,"x_max":0,"o":"m 599 682 b 856 738 689 719 774 738 b 1069 458 1032 738 1101 636 l 994 33 b 956 0 990 11 978 0 l 897 0 b 871 33 871 0 865 10 l 946 464 b 819 624 965 571 924 624 b 649 586 767 624 710 611 b 649 468 657 554 657 514 l 572 33 b 533 0 568 11 556 0 l 475 0 b 449 33 449 0 443 10 l 524 464 b 394 624 544 575 500 624 b 260 601 347 624 303 617 b 238 572 247 594 239 585 l 143 33 b 103 0 139 11 125 0 l 44 0 b 18 33 21 0 14 10 l 119 613 b 186 692 129 657 142 674 b 431 738 265 722 346 738 b 599 682 506 738 561 719 "},"n":{"ha":763,"x_min":0,"x_max":0,"o":"m 186 690 b 460 738 271 722 361 738 b 693 453 649 738 722 632 l 618 33 b 579 0 614 11 601 0 l 521 0 b 494 33 497 0 490 7 l 569 458 b 424 624 589 568 540 624 b 258 599 369 624 314 615 b 238 574 246 594 239 586 l 143 33 b 103 0 139 11 125 0 l 44 0 b 18 33 21 0 14 10 l 119 613 b 186 690 129 657 142 672 "},"o":{"ha":751,"x_min":0,"x_max":0,"o":"m 94 475 b 450 738 124 640 256 738 b 717 465 649 738 746 632 l 678 239 b 322 -21 649 72 522 -21 b 54 249 128 -21 26 82 m 594 472 b 433 625 611 568 551 625 b 218 472 317 625 236 568 l 179 244 b 339 92 161 149 222 92 b 554 244 457 92 536 149 "},"p":{"ha":747,"x_min":0,"x_max":0,"o":"m 192 697 b 454 738 267 724 354 738 b 694 450 649 738 726 633 l 660 256 b 315 -21 628 71 513 -21 b 142 17 267 -21 208 -8 l 90 -272 b 51 -306 86 -294 74 -306 l -7 -306 b -33 -272 -33 -306 -39 -296 l 124 618 b 192 697 133 664 146 679 m 571 454 b 418 624 590 567 539 624 b 265 603 364 624 314 617 b 240 574 250 596 242 586 l 161 129 b 326 93 226 106 282 93 b 538 267 446 93 517 151 "},"q":{"ha":749,"x_min":0,"x_max":0,"o":"m 449 738 b 683 694 547 738 626 724 b 722 618 724 676 732 664 l 565 -272 b 526 -306 561 -294 549 -306 l 468 -306 b 442 -272 442 -306 436 -296 l 493 18 b 290 -21 415 -8 347 -21 b 60 263 103 -21 28 83 l 94 457 b 449 738 126 644 244 738 m 183 258 b 328 93 163 149 211 93 b 513 129 374 93 435 106 l 590 574 b 574 603 592 590 590 593 b 438 624 531 617 485 624 b 217 446 311 624 238 564 "},"r":{"ha":482,"x_min":0,"x_max":0,"o":"m 454 738 l 499 738 b 526 704 521 738 531 726 l 518 657 b 479 624 514 635 500 624 l 432 624 b 265 600 375 624 319 615 b 242 572 253 594 244 585 l 147 33 b 108 0 143 11 131 0 l 50 0 b 24 33 28 0 19 11 l 125 617 b 193 694 135 661 147 676 b 454 738 267 721 353 736 "},"s":{"ha":690,"x_min":0,"x_max":0,"o":"m 83 529 b 399 738 106 663 215 738 b 660 588 543 738 631 688 b 636 539 667 564 660 549 l 590 521 b 546 536 564 511 557 514 b 382 625 526 596 472 625 b 206 525 278 625 218 592 b 263 432 197 472 215 444 b 374 415 296 422 319 421 b 558 360 456 406 510 392 b 611 192 607 326 626 271 b 283 -21 588 57 474 -21 b 7 150 124 -21 32 36 b 36 194 3 171 13 186 l 88 211 b 128 190 111 218 118 214 b 297 90 149 117 203 90 b 490 196 413 90 478 125 b 324 306 503 274 453 293 b 83 529 186 319 53 353 "},"t":{"ha":510,"x_min":0,"x_max":0,"o":"m 331 883 b 357 850 354 883 361 874 l 333 717 l 515 717 b 542 683 542 717 547 707 l 533 635 b 496 601 529 608 519 601 l 314 601 l 257 278 b 269 132 244 204 249 156 b 404 97 290 108 335 97 b 432 64 431 97 438 90 l 424 14 b 383 -19 418 -12 410 -18 b 158 40 271 -22 196 -3 b 132 275 121 83 111 161 l 190 601 l 75 601 b 47 635 49 601 43 611 l 56 683 b 94 717 60 706 72 717 l 210 717 l 233 850 b 272 883 238 872 250 883 "},"u":{"ha":764,"x_min":0,"x_max":0,"o":"m 724 717 b 750 683 747 717 754 707 l 649 104 b 582 26 639 60 626 44 b 308 -21 492 -6 401 -21 b 75 264 119 -21 46 85 l 150 683 b 189 717 154 706 167 717 l 247 717 b 274 683 271 717 278 710 l 199 258 b 344 93 179 149 228 93 b 506 117 399 93 453 101 b 532 149 521 124 529 133 l 625 683 b 665 717 629 706 643 717 "},"v":{"ha":703,"x_min":0,"x_max":0,"o":"m 714 717 b 733 679 746 717 750 711 l 350 28 b 299 -3 338 7 321 -3 l 264 -3 b 224 28 240 -3 228 7 l 69 678 b 104 717 64 707 72 717 l 144 717 b 197 683 183 717 193 710 l 289 282 b 303 149 299 235 303 150 l 310 149 b 371 281 313 153 343 231 l 601 683 b 668 717 618 711 629 717 "},"w":{"ha":1014,"x_min":0,"x_max":0,"o":"m 1013 717 b 1032 678 1044 717 1047 707 l 725 26 b 675 -3 717 7 700 -3 l 633 -3 b 593 26 607 -3 594 7 l 542 436 b 536 565 536 488 538 560 l 532 565 b 482 436 506 496 489 453 l 286 26 b 235 -3 276 7 258 -3 l 199 -3 b 158 26 174 -3 160 7 l 78 678 b 113 717 74 710 81 717 l 151 717 b 204 683 192 717 204 711 l 243 307 b 243 186 244 275 243 214 b 243 151 242 172 242 161 l 247 151 b 271 217 249 156 257 176 b 307 308 285 256 297 286 l 488 672 b 547 707 500 700 510 707 l 571 707 b 619 674 610 707 615 701 l 669 311 b 675 186 675 274 675 214 b 675 151 674 171 674 160 l 681 151 b 701 213 682 153 689 174 b 736 310 714 250 725 283 l 906 683 b 971 717 918 711 931 717 "},"x":{"ha":686,"x_min":0,"x_max":0,"o":"m 679 717 b 694 678 711 717 717 704 l 414 368 l 597 39 b 565 0 610 13 599 0 l 519 0 b 467 28 485 0 478 4 l 328 279 l 107 28 b 42 0 86 4 76 0 l -17 0 b -33 39 -54 0 -57 13 l 263 368 l 89 678 b 122 717 76 704 88 717 l 164 717 b 219 689 199 717 208 713 l 349 458 l 556 689 b 618 717 578 713 585 717 "},"y":{"ha":767,"x_min":0,"x_max":0,"o":"m 718 717 b 744 683 744 717 750 707 l 618 -35 b 267 -335 583 -235 465 -335 b 13 -192 135 -335 50 -287 b 35 -137 0 -168 8 -150 l 76 -118 b 128 -131 104 -106 115 -108 b 283 -224 151 -193 204 -224 b 493 -40 401 -224 471 -162 l 507 35 b 307 6 431 15 364 6 b 76 290 119 6 44 111 l 144 683 b 183 717 149 706 161 717 l 242 717 b 268 683 268 717 274 707 l 199 285 b 344 119 178 174 224 119 b 526 149 401 119 461 129 l 621 683 b 660 717 625 706 638 717 "},"z":{"ha":636,"x_min":0,"x_max":0,"o":"m 515 113 b 542 79 539 113 546 106 l 535 33 b 496 0 531 11 517 0 l 3 0 b -24 33 -24 0 -29 10 l -17 79 b 3 114 -12 93 -7 104 l 468 604 l 115 604 b 89 638 92 604 85 614 l 96 683 b 135 717 100 706 114 717 l 615 717 b 642 683 642 717 647 707 l 635 638 b 615 600 633 626 626 614 l 147 113 "},"{":{"ha":463,"x_min":0,"x_max":0,"o":"m 547 1189 b 575 1156 571 1189 579 1182 l 567 1108 b 528 1076 563 1088 550 1076 l 464 1076 b 379 1001 418 1076 389 1051 l 321 663 b 194 490 306 579 264 522 b 258 318 254 464 275 407 l 200 -17 b 258 -92 193 -67 213 -92 l 322 -92 b 349 -124 346 -92 353 -100 l 340 -171 b 301 -204 336 -193 324 -204 l 235 -204 b 82 -24 100 -204 58 -150 l 139 301 b 57 426 151 383 133 426 l 44 426 b 22 460 26 426 19 438 l 33 521 b 67 553 38 542 49 553 l 79 553 b 206 679 147 553 190 594 l 263 1007 b 479 1189 285 1135 346 1189 "},"|":{"ha":299,"x_min":0,"x_max":0,"o":"m 317 1189 b 343 1156 339 1189 347 1178 l 110 -171 b 71 -204 106 -193 93 -204 l 18 -204 b -8 -171 -8 -204 -14 -194 l 225 1156 b 264 1189 229 1178 242 1189 "},"}":{"ha":461,"x_min":0,"x_max":0,"o":"m 261 1189 b 413 1007 394 1189 436 1135 l 356 679 b 438 553 340 594 367 553 l 450 553 b 471 521 468 553 475 542 l 460 460 b 426 426 457 438 446 426 l 415 426 b 289 301 344 426 303 385 l 232 -24 b 14 -204 210 -150 149 -204 l -53 -204 b -79 -171 -76 -204 -83 -197 l -71 -124 b -32 -92 -68 -103 -56 -92 l 32 -92 b 115 -17 78 -92 106 -67 l 174 318 b 300 492 189 408 232 465 b 235 663 243 524 221 581 l 294 1001 b 236 1076 304 1051 285 1076 l 174 1076 b 146 1108 150 1076 142 1085 l 154 1156 b 193 1189 158 1178 172 1189 "},"~":{"ha":772,"x_min":0,"x_max":0,"o":"m 124 465 b 303 533 183 511 243 533 b 426 507 340 533 382 525 b 531 481 469 489 504 481 b 639 521 567 481 603 494 b 688 519 663 538 671 538 l 715 488 b 706 436 731 469 726 451 b 526 368 649 390 589 368 b 403 394 488 368 446 376 b 299 421 358 413 324 421 b 190 381 263 421 226 407 b 143 382 167 363 158 364 l 115 414 b 124 465 100 432 103 450 "},"¡":{"ha":294,"x_min":0,"x_max":0,"o":"m 174 572 b 117 643 119 572 107 589 l 118 653 b 201 724 128 707 147 724 l 210 724 b 268 653 264 724 278 707 l 265 643 b 183 572 258 589 238 572 m -10 -312 b -36 -281 -36 -312 -42 -304 l 103 425 b 142 458 107 447 121 458 l 175 458 b 203 425 199 458 207 451 l 93 -281 b 53 -312 89 -301 76 -312 "},"¢":{"ha":738,"x_min":0,"x_max":0,"o":"m 640 218 b 654 171 664 208 668 193 b 386 -14 597 63 507 1 l 374 -83 b 335 -117 369 -106 357 -117 l 275 -117 b 249 -83 251 -117 244 -107 l 261 -17 b 65 268 101 1 38 107 l 101 468 b 392 732 129 625 226 713 l 407 814 b 446 847 411 836 424 847 l 506 847 b 532 814 529 847 536 840 l 517 732 b 714 550 635 718 700 657 b 685 503 718 522 711 513 l 638 489 b 596 511 610 479 601 485 b 436 628 583 589 529 628 b 225 464 315 628 244 574 l 188 254 b 340 89 169 150 222 89 b 543 210 435 89 503 129 b 594 232 558 236 571 242 "},"£":{"ha":885,"x_min":0,"x_max":0,"o":"m 249 740 b 601 1007 275 896 403 1007 b 888 792 774 1007 860 936 b 860 746 893 768 883 753 l 804 726 b 761 750 776 719 772 722 b 586 882 738 844 686 882 b 385 724 475 882 401 817 l 351 528 l 683 528 b 713 492 711 528 718 518 l 706 447 b 663 411 701 424 686 411 l 331 411 l 304 265 b 210 118 294 200 263 151 l 208 113 b 406 125 294 121 360 125 l 738 125 b 767 89 764 125 772 115 l 758 36 b 715 0 754 13 739 0 l 25 0 b -3 36 -3 0 -8 8 l 7 90 b 32 119 11 110 19 119 l 50 119 b 164 264 110 131 149 179 l 190 411 l 107 411 b 78 447 81 411 72 421 l 85 492 b 128 528 89 515 104 528 l 211 528 "},"¤":{"ha":842,"x_min":0,"x_max":0,"o":"m 321 728 b 503 783 378 765 439 783 b 665 729 563 783 617 765 l 749 800 b 796 800 767 815 783 815 l 831 760 b 822 713 843 744 840 728 l 739 642 b 767 468 768 590 778 532 b 685 294 757 408 731 351 l 743 224 b 735 178 756 208 753 193 l 688 136 b 640 136 669 121 654 121 l 582 207 b 400 153 525 171 465 153 b 236 207 335 153 281 171 l 151 135 b 104 135 133 119 118 119 l 71 175 b 78 222 57 190 60 207 l 164 296 b 136 468 135 344 126 403 b 219 639 147 532 175 589 l 160 711 b 167 758 146 726 149 743 l 214 799 b 261 799 232 815 247 815 m 654 468 b 621 611 664 525 653 572 b 486 669 589 650 543 669 b 333 611 429 669 379 650 b 249 468 288 572 258 525 b 282 325 239 411 250 364 b 415 265 314 285 358 265 b 569 325 472 265 524 285 b 654 468 615 364 644 411 "},"¥":{"ha":906,"x_min":0,"x_max":0,"o":"m 939 986 b 951 950 965 986 968 968 l 582 499 l 725 499 b 751 467 749 499 756 490 l 746 435 b 707 403 742 414 728 403 l 515 403 l 497 296 l 689 296 b 715 264 713 296 719 288 l 708 231 b 671 199 706 210 693 199 l 479 199 l 451 36 b 408 0 447 13 432 0 l 347 0 b 317 36 319 0 313 10 l 346 199 l 153 199 b 126 231 129 199 122 207 l 133 264 b 171 296 136 285 149 296 l 364 296 l 382 403 l 189 403 b 163 435 165 403 158 411 l 168 467 b 207 499 172 488 186 499 l 351 499 l 140 950 b 165 986 131 968 139 986 l 228 986 b 293 954 272 986 282 983 l 474 544 l 797 954 b 872 986 818 983 828 986 "},"¦":{"ha":313,"x_min":0,"x_max":0,"o":"m 321 1189 b 349 1156 344 1189 353 1182 l 256 632 b 217 599 251 610 239 599 l 165 599 b 138 632 142 599 133 608 l 231 1156 b 269 1189 235 1178 247 1189 m 179 388 b 207 354 203 388 211 378 l 115 -169 b 75 -203 111 -192 97 -203 l 24 -203 b -4 -169 0 -203 -8 -196 l 89 354 b 128 388 93 376 106 388 "},"§":{"ha":833,"x_min":0,"x_max":0,"o":"m 149 753 b 528 1011 178 914 306 1011 b 814 797 681 1011 776 940 b 788 747 821 769 815 758 l 736 726 b 689 746 713 717 696 722 b 506 883 668 838 607 883 b 283 743 374 883 300 836 b 356 632 276 679 300 649 b 472 608 394 619 418 615 b 689 547 576 594 649 574 b 754 358 749 508 769 446 b 611 163 739 278 692 213 b 692 -50 683 125 710 54 b 306 -307 664 -211 533 -307 b -14 -83 128 -307 13 -228 b 19 -33 -18 -60 -7 -43 l 76 -15 b 122 -39 106 -6 115 -10 b 319 -182 139 -135 204 -182 b 557 -42 463 -182 542 -135 b 486 69 564 22 543 53 b 365 90 444 82 422 85 b 147 138 260 101 188 117 b 63 338 74 175 46 242 b 229 543 78 425 133 494 b 149 753 158 582 131 651 m 422 482 b 336 496 383 488 354 492 b 201 353 257 463 213 415 b 279 236 190 286 221 253 b 406 215 322 224 346 221 b 494 204 424 214 476 208 b 618 347 567 242 608 290 b 422 482 633 438 560 467 "},"¨":{"ha":610,"x_min":0,"x_max":0,"o":"m 282 968 b 329 911 326 968 339 954 l 328 899 b 260 842 318 856 304 842 l 250 842 b 203 899 207 842 196 856 l 204 911 b 272 968 211 954 229 968 m 556 968 b 603 911 599 968 610 954 l 600 899 b 533 842 593 856 576 842 l 524 842 b 475 899 479 842 468 856 l 478 911 b 547 968 485 954 501 968 "},"©":{"ha":1114,"x_min":0,"x_max":0,"o":"m 108 488 b 314 843 132 628 201 747 b 693 986 426 939 553 986 b 1021 842 832 986 942 938 b 1104 488 1100 746 1128 628 b 901 133 1081 347 1014 229 b 524 -11 789 38 663 -11 b 193 135 383 -11 274 38 b 108 488 113 231 85 349 m 1029 488 b 960 789 1050 608 1026 708 b 682 910 893 869 800 910 b 360 789 563 910 456 869 b 185 488 264 707 206 607 b 254 186 164 368 186 268 b 533 64 321 104 414 64 b 856 188 651 64 760 106 b 1029 488 951 269 1008 369 m 406 563 b 651 757 426 685 514 757 b 833 625 760 757 821 713 b 811 590 838 607 829 596 l 779 579 b 749 596 758 572 753 575 b 638 675 739 653 711 675 b 490 561 554 675 506 638 l 464 407 b 569 293 451 331 486 293 b 710 374 635 293 682 319 b 749 392 721 392 733 397 l 775 381 b 786 346 790 374 794 363 b 556 211 738 256 661 211 b 378 408 421 211 357 288 "},"ª":{"ha":503,"x_min":0,"x_max":0,"o":"m 167 853 b 350 931 213 904 274 931 b 494 757 467 931 515 872 l 464 583 b 407 514 457 543 446 529 b 268 493 372 500 326 493 b 113 624 139 493 100 542 b 315 749 129 708 182 749 b 396 743 349 749 375 747 l 400 767 b 333 849 410 824 394 849 b 235 804 299 849 267 833 b 201 799 225 796 214 794 l 176 813 b 167 853 156 822 153 836 m 383 674 b 297 678 367 676 338 678 b 206 621 243 678 213 658 b 276 568 199 583 219 568 b 351 576 311 568 336 571 b 371 601 364 581 369 589 "},"«":{"ha":796,"x_min":0,"x_max":0,"o":"m 693 153 b 685 111 703 139 700 125 l 644 76 b 603 76 626 64 613 64 l 382 344 b 389 385 369 358 372 372 l 704 656 b 746 656 722 669 736 669 l 776 617 b 768 575 786 604 783 590 l 519 363 m 369 153 b 363 111 382 139 379 125 l 322 76 b 279 76 306 63 292 63 l 58 344 b 67 385 47 357 50 371 l 382 656 b 424 656 399 669 413 669 l 454 617 b 446 575 465 603 463 589 l 197 363 "},"¬":{"ha":808,"x_min":0,"x_max":0,"o":"m 718 554 b 746 521 744 554 750 544 l 693 226 b 656 193 689 200 679 193 l 597 193 b 569 226 574 193 565 203 l 607 438 l 121 438 b 94 471 99 438 90 449 l 103 521 b 142 554 107 543 119 554 "},"®":{"ha":658,"x_min":0,"x_max":0,"o":"m 131 717 b 242 908 143 792 181 856 b 449 986 303 960 372 986 b 624 907 522 986 581 960 b 669 717 667 854 682 790 b 560 526 657 642 619 578 b 356 447 500 474 432 447 b 178 526 282 447 222 474 b 131 717 133 579 118 643 m 182 717 b 219 561 171 656 183 604 b 364 496 254 518 303 496 b 532 560 426 496 483 517 b 621 717 581 603 611 654 b 585 872 632 778 619 829 b 442 936 550 915 501 936 b 272 874 378 936 321 915 b 182 717 224 831 193 779 m 446 854 b 529 763 506 854 540 819 b 456 679 522 719 497 692 l 490 599 b 476 579 496 586 492 579 l 457 579 b 435 590 447 579 439 583 l 403 674 l 339 674 l 325 592 b 310 579 324 583 319 579 l 285 579 b 274 592 276 579 272 583 l 317 839 b 336 854 318 849 325 854 m 347 721 l 424 721 b 476 764 453 721 471 735 b 438 806 481 790 465 806 l 363 806 "},"¯":{"ha":489,"x_min":0,"x_max":0,"o":"m 514 953 b 540 921 538 953 544 947 l 535 893 b 499 863 531 869 525 863 l 174 863 b 147 893 150 863 143 867 l 153 921 b 189 953 157 942 168 953 "},"°":{"ha":540,"x_min":0,"x_max":0,"o":"m 563 769 b 475 617 553 710 524 660 b 313 551 426 574 372 551 b 168 617 253 551 204 574 b 126 774 131 660 117 713 b 214 928 136 835 165 886 b 378 989 263 968 317 989 b 522 925 438 989 486 968 b 563 769 558 882 572 831 m 276 854 b 247 686 221 807 208 732 b 414 686 285 640 358 640 b 367 889 503 753 468 894 b 276 854 333 889 303 878 "},"±":{"ha":854,"x_min":0,"x_max":0,"o":"m 757 603 b 786 567 783 603 792 593 l 781 532 b 739 496 775 504 765 496 l 504 496 l 479 361 b 436 325 475 338 460 325 l 396 325 b 365 361 368 325 361 335 l 390 496 l 156 496 b 125 532 128 496 119 504 l 131 567 b 174 603 135 590 150 603 l 408 603 l 433 743 b 476 779 438 767 453 779 l 517 779 b 546 743 544 779 551 769 l 522 603 m 697 264 b 726 228 724 264 732 254 l 721 193 b 679 157 715 165 706 157 l 96 157 b 65 193 68 157 60 165 l 71 228 b 114 264 75 251 90 264 "},"²":{"ha":493,"x_min":0,"x_max":0,"o":"m 160 994 b 386 1138 211 1090 288 1138 b 549 963 507 1138 565 1063 b 360 785 532 867 476 822 l 275 761 b 204 696 233 749 210 726 l 199 672 l 458 672 b 485 640 479 672 489 661 l 479 607 b 442 576 475 586 463 576 l 115 576 b 86 610 93 576 83 588 l 96 658 b 240 833 113 753 150 800 l 325 865 b 417 913 381 883 392 888 b 440 960 429 925 436 940 b 367 1038 450 1006 424 1038 b 260 971 304 1038 274 994 l 253 961 b 203 938 236 933 231 928 l 174 947 b 160 994 151 957 147 972 "},"³":{"ha":504,"x_min":0,"x_max":0,"o":"m 154 996 b 390 1138 201 1090 281 1138 b 549 976 506 1138 564 1072 b 465 863 540 924 513 886 b 519 718 513 832 531 783 b 293 565 503 619 425 565 b 103 704 181 565 117 611 b 129 751 99 728 108 744 l 161 761 b 204 739 188 771 197 765 b 308 660 211 683 238 660 b 417 733 374 660 410 685 b 360 807 426 778 404 807 l 290 807 b 264 839 264 807 260 813 l 269 867 b 310 901 275 899 281 901 l 369 901 b 449 969 413 901 439 924 b 378 1043 458 1015 429 1043 b 244 965 314 1043 269 1017 b 188 943 228 936 217 932 l 168 951 b 154 996 147 960 143 975 "},"´":{"ha":357,"x_min":0,"x_max":0,"o":"m 381 1010 b 442 1008 411 1025 432 1024 l 463 975 b 451 936 475 957 472 944 l 189 821 b 146 822 165 813 151 813 l 133 843 b 143 879 124 858 126 871 "},"µ":{"ha":767,"x_min":0,"x_max":0,"o":"m 707 717 b 733 683 733 717 739 707 l 632 104 b 565 26 625 60 610 44 b 328 -21 489 -6 410 -21 b 150 67 240 -21 182 8 l 90 -272 b 50 -306 86 -294 72 -306 l -8 -306 b -35 -272 -32 -306 -39 -296 l 133 683 b 174 717 138 706 151 717 l 231 717 b 258 683 257 717 263 710 l 183 258 b 329 93 164 149 213 93 b 490 117 383 93 438 101 b 515 147 504 122 513 132 l 610 683 b 649 717 614 706 626 717 "},"¶":{"ha":689,"x_min":0,"x_max":0,"o":"m 674 986 b 701 953 700 986 706 979 l 518 -90 b 478 -124 514 -112 501 -124 l 428 -124 b 401 -90 404 -124 397 -117 l 569 861 l 492 861 l 325 -90 b 285 -124 321 -112 308 -124 l 235 -124 b 208 -90 211 -124 204 -114 l 317 517 b 133 760 183 521 110 621 b 406 986 157 899 265 986 "},"·":{"ha":321,"x_min":0,"x_max":0,"o":"m 181 461 b 238 392 235 461 247 443 l 236 381 b 153 310 226 326 204 310 l 143 310 b 86 381 89 310 75 326 l 88 392 b 171 461 97 443 117 461 "},"¸":{"ha":349,"x_min":0,"x_max":0,"o":"m 110 -100 b 136 -97 121 -99 129 -97 b 238 -217 218 -97 254 -146 b 40 -344 217 -301 136 -344 b -62 -318 -3 -344 -37 -336 b -76 -286 -75 -311 -81 -301 l -71 -253 b -51 -239 -69 -237 -62 -232 b 38 -268 -25 -258 6 -268 b 136 -203 96 -268 129 -246 b 69 -151 142 -168 119 -151 b 28 -156 54 -151 40 -153 b 15 -128 7 -157 3 -149 l 89 0 l 164 0 "},"¹":{"ha":379,"x_min":0,"x_max":0,"o":"m 400 1126 b 433 1089 426 1126 438 1114 l 350 613 b 307 576 346 589 331 576 l 275 576 b 244 613 247 576 240 585 l 313 993 l 190 932 b 140 944 167 921 150 925 l 129 971 b 156 1021 122 992 132 1008 l 339 1115 b 383 1126 351 1122 365 1126 "},"º":{"ha":510,"x_min":0,"x_max":0,"o":"m 143 771 b 357 931 161 875 236 931 b 515 756 479 931 536 863 l 496 654 b 281 494 479 547 407 494 b 125 668 163 494 104 563 m 417 767 b 343 843 426 813 400 843 b 243 767 286 843 253 818 l 224 658 b 297 582 214 610 242 582 b 397 658 354 582 388 607 "},"»":{"ha":800,"x_min":0,"x_max":0,"o":"m 121 581 b 128 622 110 596 113 610 l 171 658 b 213 658 188 674 201 674 l 438 385 b 429 344 449 372 446 358 l 115 78 b 74 78 99 64 85 64 l 40 117 b 49 158 28 132 31 146 l 296 368 m 443 581 b 451 622 431 596 433 610 l 496 656 b 538 656 514 668 528 668 l 760 385 b 753 344 769 372 768 358 l 442 79 b 399 79 426 67 411 67 l 364 117 b 371 158 350 131 353 144 l 617 368 "},"¼":{"ha":1171,"x_min":0,"x_max":0,"o":"m 399 996 b 432 958 425 996 436 983 l 349 482 b 306 446 344 458 329 446 l 274 446 b 243 482 246 446 239 454 l 311 863 l 188 801 b 139 814 164 790 149 794 l 128 840 b 153 890 121 861 129 878 l 336 985 b 382 996 350 992 365 996 m 1013 986 b 1031 951 1036 986 1043 969 l 356 33 b 283 0 333 4 326 0 l 240 0 b 222 38 213 0 206 17 l 897 956 b 965 986 918 983 926 986 m 1068 218 b 1094 189 1094 218 1099 213 l 1089 158 b 1051 129 1085 135 1079 129 l 1010 129 l 993 31 b 957 0 988 7 981 0 l 917 0 b 893 31 893 0 889 7 l 911 129 l 660 129 b 635 161 633 129 629 138 l 638 188 b 656 222 640 200 646 213 l 958 531 b 1007 550 971 543 988 550 l 1053 550 b 1079 517 1081 550 1083 544 l 1025 218 m 963 419 l 763 218 l 926 218 "},"½":{"ha":1233,"x_min":0,"x_max":0,"o":"m 399 996 b 432 958 425 996 436 983 l 349 482 b 306 446 344 458 329 446 l 274 446 b 243 482 246 446 239 454 l 311 863 l 188 801 b 139 814 164 790 149 794 l 128 840 b 153 890 121 861 129 878 l 336 985 b 382 996 350 992 365 996 m 1004 986 b 1022 951 1031 986 1038 969 l 347 33 b 275 0 326 4 319 0 l 233 0 b 215 38 206 0 199 17 l 890 956 b 957 986 911 982 918 986 m 793 418 b 1019 561 847 514 924 561 b 1182 386 1140 561 1199 486 b 993 210 1165 290 1110 244 l 908 185 b 838 121 867 172 843 150 l 832 96 l 1092 96 b 1118 64 1113 96 1122 85 l 1113 32 b 1075 0 1108 11 1096 0 l 749 0 b 719 33 726 0 717 11 l 729 82 b 874 258 746 176 785 225 l 958 289 b 1050 336 1014 307 1025 311 b 1074 383 1063 349 1069 364 b 1001 461 1083 429 1057 461 b 893 394 938 461 907 418 l 886 385 b 836 361 869 357 864 351 l 807 372 b 793 418 783 381 779 396 "},"¾":{"ha":1229,"x_min":0,"x_max":0,"o":"m 142 865 b 378 1007 188 960 267 1007 b 536 847 493 1007 551 943 b 453 732 528 793 500 756 b 507 589 500 703 518 654 b 281 435 489 486 414 435 b 90 575 168 435 104 482 b 115 621 86 599 94 614 l 149 632 b 192 608 175 642 185 636 b 296 529 199 553 225 529 b 404 604 358 529 397 558 b 347 678 414 649 392 678 l 278 678 b 251 710 250 678 247 682 l 257 738 b 297 772 263 769 268 772 l 357 772 b 436 839 400 772 426 794 b 365 914 443 888 417 914 b 232 836 301 914 257 888 b 175 813 215 804 207 801 l 156 821 b 142 865 135 831 131 844 m 1072 986 b 1090 951 1096 986 1106 969 l 415 33 b 343 0 393 4 386 0 l 300 0 b 282 38 274 0 267 17 l 957 956 b 1025 986 978 982 986 986 m 1126 217 b 1153 189 1154 217 1157 211 l 1149 158 b 1111 129 1143 132 1139 129 l 1069 129 l 1051 29 b 1017 -1 1047 6 1040 -1 l 975 -1 b 953 29 951 -1 947 6 l 969 129 l 718 129 b 693 161 694 129 689 135 l 697 186 b 714 222 701 201 707 214 l 1018 529 b 1067 549 1031 542 1047 549 l 1111 549 b 1138 517 1139 549 1143 544 l 1085 217 m 1021 418 l 821 217 l 985 217 "},"¿":{"ha":776,"x_min":0,"x_max":0,"o":"m 468 572 b 411 642 414 572 401 590 l 413 653 b 496 724 422 707 442 724 l 504 724 b 563 653 558 724 572 707 l 560 642 b 478 572 553 590 532 572 m 668 -87 b 281 -312 585 -232 469 -312 b 47 -229 178 -312 100 -285 b -11 -22 -7 -172 -26 -104 b 42 119 -1 33 14 81 b 124 208 69 157 83 179 b 218 268 169 240 167 239 b 261 292 242 281 256 289 b 396 446 339 336 383 374 b 436 481 400 469 414 481 l 479 481 b 508 446 506 481 513 472 b 322 204 486 324 424 265 b 190 114 256 167 211 136 b 122 -19 154 78 132 33 b 296 -194 104 -121 167 -194 b 560 -43 413 -194 500 -144 b 610 -19 578 -15 586 -10 l 653 -42 b 668 -87 676 -53 681 -61 "},"À":{"ha":899,"x_min":0,"x_max":0,"o":"m 492 1243 b 554 1244 510 1261 531 1261 l 747 1117 b 744 1081 760 1108 760 1096 l 725 1061 b 683 1058 717 1051 703 1051 l 457 1172 b 458 1210 440 1179 440 1192 m 838 36 b 807 0 842 13 832 0 l 757 0 b 696 32 711 0 700 6 l 650 258 l 239 258 l 113 32 b 40 0 97 6 85 0 l -14 0 b -32 36 -40 0 -46 13 l 492 958 b 543 989 503 979 519 989 l 599 989 b 640 960 626 989 636 982 m 557 733 b 554 860 551 789 549 843 l 554 864 l 547 864 b 500 735 547 864 533 797 l 297 368 l 632 368 "},"Á":{"ha":899,"x_min":0,"x_max":0,"o":"m 682 1250 b 744 1249 711 1265 732 1265 l 765 1215 b 753 1176 778 1197 774 1183 l 490 1061 b 447 1063 467 1053 453 1053 l 436 1083 b 443 1118 424 1101 425 1108 m 838 36 b 807 0 842 13 832 0 l 757 0 b 696 32 711 0 700 6 l 650 258 l 239 258 l 113 32 b 40 0 97 6 85 0 l -14 0 b -32 36 -40 0 -46 13 l 492 958 b 543 989 503 979 519 989 l 599 989 b 640 960 626 989 636 982 m 557 733 b 554 860 551 789 549 843 l 554 864 l 547 864 b 500 735 547 864 533 797 l 297 368 l 632 368 "},"Â":{"ha":899,"x_min":0,"x_max":0,"o":"m 628 1257 b 683 1228 656 1257 661 1254 l 815 1085 b 794 1057 828 1067 821 1057 l 750 1057 b 700 1076 726 1057 710 1064 l 608 1175 l 479 1076 b 425 1057 464 1064 446 1057 l 374 1057 b 363 1085 346 1057 342 1067 l 544 1228 b 614 1257 578 1256 582 1257 m 838 36 b 807 0 842 13 832 0 l 757 0 b 696 32 711 0 700 6 l 650 258 l 239 258 l 113 32 b 40 0 97 6 85 0 l -14 0 b -32 36 -40 0 -46 13 l 492 958 b 543 989 503 979 519 989 l 599 989 b 640 960 626 989 636 982 m 557 733 b 554 860 551 789 549 843 l 554 864 l 547 864 b 500 735 547 864 533 797 l 297 368 l 632 368 "},"Ã":{"ha":899,"x_min":0,"x_max":0,"o":"m 801 1233 b 819 1213 817 1233 822 1226 b 682 1067 801 1111 760 1067 b 504 1154 603 1067 560 1154 b 447 1088 474 1154 454 1132 b 424 1067 444 1074 436 1067 l 388 1067 b 371 1088 374 1067 368 1074 b 507 1233 386 1185 432 1233 b 688 1146 592 1233 633 1146 b 743 1213 717 1146 736 1168 b 767 1233 746 1226 754 1233 m 838 36 b 807 0 842 13 832 0 l 757 0 b 696 32 711 0 700 6 l 650 258 l 239 258 l 113 32 b 40 0 97 6 85 0 l -14 0 b -32 36 -40 0 -46 13 l 492 958 b 543 989 503 979 519 989 l 599 989 b 640 960 626 989 636 982 m 557 733 b 554 860 551 789 549 843 l 554 864 l 547 864 b 500 735 547 864 533 797 l 297 368 l 632 368 "},"Ä":{"ha":899,"x_min":0,"x_max":0,"o":"m 478 1215 b 526 1158 522 1215 536 1201 l 525 1146 b 456 1089 515 1103 501 1089 l 447 1089 b 400 1146 403 1089 390 1103 l 403 1158 b 469 1215 410 1201 425 1215 m 751 1215 b 800 1158 796 1215 807 1201 l 797 1146 b 729 1089 790 1103 774 1089 l 721 1089 b 672 1146 676 1089 665 1103 l 675 1158 b 743 1215 682 1201 699 1215 m 838 36 b 807 0 842 13 832 0 l 757 0 b 696 32 711 0 700 6 l 650 258 l 239 258 l 113 32 b 40 0 97 6 85 0 l -14 0 b -32 36 -40 0 -46 13 l 492 958 b 543 989 503 979 519 989 l 599 989 b 640 960 626 989 636 982 m 557 733 b 554 860 551 789 549 843 l 554 864 l 547 864 b 500 735 547 864 533 797 l 297 368 l 632 368 "},"Å":{"ha":899,"x_min":0,"x_max":0,"o":"m 419 1076 b 615 1238 436 1172 515 1238 b 750 1075 711 1238 767 1171 b 644 942 739 1010 704 965 l 838 36 b 807 0 842 13 832 0 l 757 0 b 696 32 711 0 700 6 l 650 258 l 239 258 l 113 32 b 40 0 97 6 85 0 l -14 0 b -32 36 -40 0 -46 13 l 482 940 b 419 1076 428 964 407 1010 m 674 1076 b 603 1164 683 1131 654 1164 b 496 1076 547 1164 506 1131 b 571 989 486 1025 515 989 b 674 1076 622 989 667 1025 m 557 733 b 554 860 551 789 549 843 l 554 864 l 547 864 b 500 735 547 864 533 797 l 297 368 l 632 368 "},"Æ":{"ha":1171,"x_min":0,"x_max":0,"o":"m 1058 125 b 1088 89 1085 125 1093 115 l 1079 36 b 1036 0 1075 13 1060 0 l 575 0 b 544 36 547 0 540 10 l 579 226 l 257 226 l 106 32 b 33 0 85 8 74 0 l -28 0 b -46 36 -54 0 -60 13 l 679 956 b 731 986 700 979 707 986 l 1193 986 b 1224 950 1219 986 1228 976 l 1214 897 b 1171 861 1210 874 1196 861 l 817 861 l 764 561 l 1054 561 b 1085 525 1082 561 1089 553 l 1075 474 b 1032 436 1071 449 1056 436 l 742 436 l 688 125 m 675 771 l 343 338 l 597 338 "},"Ç":{"ha":882,"x_min":0,"x_max":0,"o":"m 593 1007 b 918 768 794 1007 896 925 b 889 721 924 742 918 731 l 836 704 b 793 726 808 694 799 700 b 575 882 776 832 713 882 b 281 653 408 882 304 799 l 224 335 b 438 106 197 186 275 106 b 713 263 576 106 658 156 b 764 286 725 286 742 294 l 821 264 b 836 217 843 254 849 239 b 475 -18 763 72 653 -6 l 429 -101 b 456 -99 433 -100 443 -99 b 557 -217 538 -99 575 -146 b 360 -346 536 -304 456 -346 b 257 -319 319 -346 285 -337 b 243 -286 244 -312 240 -301 l 249 -254 b 268 -240 250 -239 257 -233 b 357 -269 294 -260 325 -269 b 456 -204 413 -269 449 -244 b 389 -153 461 -169 439 -153 b 347 -157 374 -153 360 -154 b 335 -128 326 -158 324 -149 l 399 -19 b 90 342 165 -12 51 126 l 146 658 b 593 1007 185 881 343 1007 "},"È":{"ha":800,"x_min":0,"x_max":0,"o":"m 444 1243 b 506 1244 463 1261 482 1261 l 700 1117 b 696 1081 713 1108 711 1096 l 678 1061 b 636 1058 669 1051 656 1051 l 410 1172 b 411 1210 392 1179 393 1192 m 801 986 b 832 950 828 986 836 976 l 822 897 b 779 861 818 874 804 861 l 319 861 l 267 563 l 663 563 b 693 525 690 563 697 553 l 683 474 b 640 438 679 450 664 438 l 243 438 l 189 125 l 667 125 b 696 89 693 125 701 115 l 688 36 b 644 0 683 13 668 0 l 69 0 b 39 36 42 0 35 10 l 200 950 b 243 986 204 974 219 986 "},"É":{"ha":800,"x_min":0,"x_max":0,"o":"m 635 1250 b 696 1249 664 1265 685 1265 l 717 1215 b 706 1176 729 1197 725 1183 l 442 1061 b 400 1063 421 1053 407 1053 l 388 1083 b 396 1118 376 1101 378 1108 m 801 986 b 832 950 828 986 836 976 l 822 897 b 779 861 818 874 804 861 l 319 861 l 267 563 l 663 563 b 693 525 690 563 697 553 l 683 474 b 640 438 679 450 664 438 l 243 438 l 189 125 l 667 125 b 696 89 693 125 701 115 l 688 36 b 644 0 683 13 668 0 l 69 0 b 39 36 42 0 35 10 l 200 950 b 243 986 204 974 219 986 "},"Ê":{"ha":800,"x_min":0,"x_max":0,"o":"m 581 1257 b 636 1228 608 1257 614 1254 l 768 1085 b 747 1057 781 1067 774 1057 l 703 1057 b 651 1076 679 1057 661 1064 l 561 1175 l 432 1076 b 376 1057 417 1064 399 1057 l 326 1057 b 315 1085 299 1057 294 1067 l 497 1228 b 567 1257 529 1256 535 1257 m 801 986 b 832 950 828 986 836 976 l 822 897 b 779 861 818 874 804 861 l 319 861 l 267 563 l 663 563 b 693 525 690 563 697 553 l 683 474 b 640 438 679 450 664 438 l 243 438 l 189 125 l 667 125 b 696 89 693 125 701 115 l 688 36 b 644 0 683 13 668 0 l 69 0 b 39 36 42 0 35 10 l 200 950 b 243 986 204 974 219 986 "},"Ë":{"ha":800,"x_min":0,"x_max":0,"o":"m 431 1215 b 479 1158 475 1215 486 1201 l 478 1146 b 408 1089 468 1103 453 1089 l 399 1089 b 353 1146 356 1089 343 1103 l 354 1158 b 422 1215 364 1201 378 1215 m 704 1215 b 753 1158 749 1215 760 1201 l 750 1146 b 682 1089 743 1103 725 1089 l 674 1089 b 625 1146 628 1089 615 1103 l 628 1158 b 696 1215 635 1201 651 1215 m 801 986 b 832 950 828 986 836 976 l 822 897 b 779 861 818 874 804 861 l 319 861 l 267 563 l 663 563 b 693 525 690 563 697 553 l 683 474 b 640 438 679 450 664 438 l 243 438 l 189 125 l 667 125 b 696 89 693 125 701 115 l 688 36 b 644 0 683 13 668 0 l 69 0 b 39 36 42 0 35 10 l 200 950 b 243 986 204 974 219 986 "},"Ì":{"ha":343,"x_min":0,"x_max":0,"o":"m 196 1243 b 257 1244 213 1261 233 1261 l 451 1117 b 447 1081 464 1108 463 1096 l 429 1061 b 386 1058 419 1051 406 1051 l 161 1172 b 163 1210 143 1179 143 1192 m 200 950 b 243 986 204 974 219 986 l 304 986 b 335 950 332 986 340 976 l 174 36 b 131 0 169 13 154 0 l 69 0 b 39 36 42 0 35 10 "},"Í":{"ha":343,"x_min":0,"x_max":0,"o":"m 386 1250 b 447 1249 415 1265 436 1265 l 468 1215 b 457 1176 481 1197 476 1183 l 193 1061 b 151 1063 171 1053 157 1053 l 139 1083 b 147 1118 128 1101 129 1108 m 200 950 b 243 986 204 974 219 986 l 304 986 b 335 950 332 986 340 976 l 174 36 b 131 0 169 13 154 0 l 69 0 b 39 36 42 0 35 10 "},"Î":{"ha":343,"x_min":0,"x_max":0,"o":"m 332 1257 b 388 1228 358 1257 365 1254 l 519 1085 b 499 1057 532 1067 525 1057 l 454 1057 b 403 1076 429 1057 413 1064 l 313 1175 l 182 1076 b 128 1057 168 1064 150 1057 l 78 1057 b 67 1085 50 1057 46 1067 l 249 1228 b 318 1257 281 1256 285 1257 m 200 950 b 243 986 204 974 219 986 l 304 986 b 335 950 332 986 340 976 l 174 36 b 131 0 169 13 154 0 l 69 0 b 39 36 42 0 35 10 "},"Ï":{"ha":343,"x_min":0,"x_max":0,"o":"m 182 1215 b 231 1158 226 1215 238 1201 l 228 1146 b 160 1089 221 1103 204 1089 l 150 1089 b 103 1146 107 1089 96 1103 l 106 1158 b 172 1215 113 1201 129 1215 m 456 1215 b 504 1158 499 1215 511 1201 l 501 1146 b 433 1089 494 1103 476 1089 l 424 1089 b 376 1146 379 1089 367 1103 l 378 1158 b 447 1215 388 1201 403 1215 m 200 950 b 243 986 204 974 219 986 l 304 986 b 335 950 332 986 340 976 l 174 36 b 131 0 169 13 154 0 l 69 0 b 39 36 42 0 35 10 "},"Ð":{"ha":933,"x_min":0,"x_max":0,"o":"m 561 986 b 840 883 688 986 781 951 b 899 607 900 814 919 722 l 854 354 b 388 0 814 126 650 0 l 86 0 b 56 36 58 0 51 10 l 131 461 l 38 461 b 19 485 21 461 15 467 l 26 525 b 54 549 29 540 39 549 l 147 549 l 217 950 b 260 986 221 974 236 986 m 767 621 b 540 861 793 776 719 861 l 336 861 l 281 549 l 496 549 b 513 525 511 549 517 540 l 506 485 b 479 461 504 469 494 461 l 265 461 l 206 125 l 411 125 b 722 365 583 125 694 211 "},"Ñ":{"ha":964,"x_min":0,"x_max":0,"o":"m 817 1233 b 833 1213 832 1233 838 1226 b 696 1067 817 1111 774 1067 b 518 1154 617 1067 574 1154 b 463 1088 489 1154 469 1132 b 438 1067 460 1074 451 1067 l 403 1067 b 385 1088 388 1067 382 1074 b 521 1233 401 1185 447 1233 b 624 1190 557 1233 592 1219 b 701 1146 656 1161 682 1146 b 758 1213 731 1146 749 1168 b 782 1233 761 1226 769 1233 m 926 986 b 957 950 953 986 961 976 l 796 36 b 753 0 792 13 776 0 l 692 0 b 658 18 675 0 664 6 l 367 594 b 319 724 351 628 335 671 b 292 808 303 776 293 804 l 286 808 b 279 711 285 804 283 772 b 263 550 275 649 269 596 l 172 36 b 129 0 168 13 153 0 l 69 0 b 39 36 42 0 35 10 l 200 950 b 243 986 204 974 219 986 l 299 986 b 335 968 315 986 328 981 l 624 401 b 676 265 642 364 660 319 b 704 179 693 211 703 182 l 711 179 b 718 279 713 183 714 217 b 735 447 721 342 726 399 l 824 950 b 867 986 828 974 843 986 "},"Ò":{"ha":926,"x_min":0,"x_max":0,"o":"m 518 1257 b 581 1258 536 1275 557 1275 l 774 1131 b 771 1094 786 1122 786 1110 l 753 1075 b 710 1072 743 1065 729 1065 l 483 1186 b 486 1224 467 1193 468 1206 m 147 660 b 593 1007 186 882 343 1007 b 921 640 842 1007 960 864 l 865 324 b 421 -21 826 103 671 -21 b 92 343 172 -21 53 121 m 790 651 b 576 882 817 800 739 882 b 281 651 411 882 307 800 l 225 335 b 439 104 199 186 276 104 b 733 335 601 104 707 186 "},"Ó":{"ha":926,"x_min":0,"x_max":0,"o":"m 708 1264 b 771 1263 738 1279 758 1279 l 792 1229 b 781 1190 804 1211 800 1197 l 517 1075 b 474 1076 493 1067 479 1067 l 463 1097 b 469 1132 453 1113 456 1124 m 147 660 b 593 1007 186 882 343 1007 b 921 640 842 1007 960 864 l 865 324 b 421 -21 826 103 671 -21 b 92 343 172 -21 53 121 m 790 651 b 576 882 817 800 739 882 b 281 651 411 882 307 800 l 225 335 b 439 104 199 186 276 104 b 733 335 601 104 707 186 "},"Ô":{"ha":926,"x_min":0,"x_max":0,"o":"m 654 1271 b 710 1242 682 1271 688 1268 l 842 1099 b 821 1071 856 1081 849 1071 l 776 1071 b 726 1090 753 1071 736 1078 l 635 1189 l 506 1090 b 451 1071 492 1078 474 1071 l 400 1071 b 389 1099 374 1071 371 1081 l 571 1242 b 642 1271 604 1269 608 1271 m 147 660 b 593 1007 186 882 343 1007 b 921 640 842 1007 960 864 l 865 324 b 421 -21 826 103 671 -21 b 92 343 172 -21 53 121 m 790 651 b 576 882 817 800 739 882 b 281 651 411 882 307 800 l 225 335 b 439 104 199 186 276 104 b 733 335 601 104 707 186 "},"Õ":{"ha":926,"x_min":0,"x_max":0,"o":"m 829 1247 b 846 1226 843 1247 849 1240 b 708 1081 828 1125 786 1081 b 531 1168 629 1081 586 1168 b 474 1101 500 1168 481 1146 b 450 1081 471 1088 463 1081 l 414 1081 b 397 1101 400 1081 394 1088 b 533 1247 414 1199 460 1247 b 714 1160 618 1247 660 1160 b 769 1226 743 1160 763 1182 b 793 1247 772 1240 781 1247 m 147 660 b 593 1007 186 882 343 1007 b 921 640 842 1007 960 864 l 865 324 b 421 -21 826 103 671 -21 b 92 343 172 -21 53 121 m 790 651 b 576 882 817 800 739 882 b 281 651 411 882 307 800 l 225 335 b 439 104 199 186 276 104 b 733 335 601 104 707 186 "},"Ö":{"ha":926,"x_min":0,"x_max":0,"o":"m 506 1229 b 554 1172 550 1229 561 1215 l 551 1160 b 482 1103 542 1117 528 1103 l 474 1103 b 426 1160 429 1103 417 1117 l 429 1172 b 496 1229 436 1215 451 1229 m 778 1229 b 826 1172 822 1229 836 1215 l 825 1160 b 756 1103 815 1117 800 1103 l 747 1103 b 699 1160 703 1103 692 1117 l 701 1172 b 769 1229 708 1215 725 1229 m 147 660 b 593 1007 186 882 343 1007 b 921 640 842 1007 960 864 l 865 324 b 421 -21 826 103 671 -21 b 92 343 172 -21 53 121 m 790 651 b 576 882 817 800 739 882 b 281 651 411 882 307 800 l 225 335 b 439 104 199 186 276 104 b 733 335 601 104 707 186 "},"×":{"ha":704,"x_min":0,"x_max":0,"o":"m 611 264 b 603 214 625 246 622 229 l 569 186 b 519 186 547 168 536 168 l 365 372 l 149 186 b 99 186 129 171 113 171 l 75 215 b 83 265 60 232 63 249 l 300 451 l 149 636 b 157 686 135 654 138 671 l 190 715 b 240 715 210 731 226 731 l 393 529 l 611 715 b 663 715 632 733 649 733 l 686 686 b 676 636 700 669 697 653 l 458 450 "},"Ø":{"ha":928,"x_min":0,"x_max":0,"o":"m 979 1044 b 983 1032 989 1044 990 1040 l 864 885 b 901 640 907 819 919 739 l 846 324 b 401 -21 807 103 651 -21 b 176 39 306 -21 231 -1 l 106 -46 b 79 -57 99 -53 90 -57 l 8 -57 b 6 -43 0 -57 -1 -53 l 117 94 b 72 343 68 157 54 240 l 128 660 b 574 1007 167 882 324 1007 b 807 939 672 1007 750 985 l 882 1033 b 907 1044 889 1040 897 1044 m 719 832 b 557 882 683 865 629 882 b 261 651 392 882 288 800 l 206 335 b 219 219 197 286 201 249 m 771 651 b 760 757 778 693 775 728 l 263 147 b 419 104 300 118 351 104 b 714 335 582 104 688 186 "},"Ù":{"ha":951,"x_min":0,"x_max":0,"o":"m 528 1243 b 590 1244 546 1261 567 1261 l 783 1117 b 781 1081 796 1108 796 1096 l 763 1061 b 719 1058 753 1051 739 1051 l 493 1172 b 496 1210 476 1179 478 1192 m 246 336 b 451 104 219 190 290 104 b 738 336 613 104 711 190 l 846 950 b 889 986 850 974 865 986 l 950 986 b 981 950 978 986 986 976 l 869 324 b 432 -21 831 103 682 -21 b 167 82 310 -21 221 14 b 114 350 111 150 93 239 l 221 950 b 263 986 225 974 239 986 l 324 986 b 354 950 351 986 360 976 "},"Ú":{"ha":951,"x_min":0,"x_max":0,"o":"m 718 1250 b 781 1249 747 1265 768 1265 l 801 1215 b 790 1176 814 1197 810 1183 l 526 1061 b 483 1063 503 1053 489 1053 l 472 1083 b 479 1118 463 1099 465 1110 m 246 336 b 451 104 219 190 290 104 b 738 336 613 104 711 190 l 846 950 b 889 986 850 974 865 986 l 950 986 b 981 950 978 986 986 976 l 869 324 b 432 -21 831 103 682 -21 b 167 82 310 -21 221 14 b 114 350 111 150 93 239 l 221 950 b 263 986 225 974 239 986 l 324 986 b 354 950 351 986 360 976 "},"Û":{"ha":951,"x_min":0,"x_max":0,"o":"m 664 1257 b 719 1228 692 1257 697 1254 l 851 1085 b 831 1057 865 1067 858 1057 l 786 1057 b 736 1076 763 1057 746 1064 l 644 1175 l 515 1076 b 461 1057 501 1064 483 1057 l 410 1057 b 399 1085 383 1057 381 1067 l 581 1228 b 651 1257 614 1256 618 1257 m 246 336 b 451 104 219 190 290 104 b 738 336 613 104 711 190 l 846 950 b 889 986 850 974 865 986 l 950 986 b 981 950 978 986 986 976 l 869 324 b 432 -21 831 103 682 -21 b 167 82 310 -21 221 14 b 114 350 111 150 93 239 l 221 950 b 263 986 225 974 239 986 l 324 986 b 354 950 351 986 360 976 "},"Ü":{"ha":951,"x_min":0,"x_max":0,"o":"m 515 1215 b 564 1158 560 1215 571 1201 l 561 1146 b 492 1089 551 1103 538 1089 l 483 1089 b 436 1146 439 1089 426 1103 l 439 1158 b 506 1215 446 1201 461 1215 m 788 1215 b 836 1158 832 1215 846 1201 l 835 1146 b 765 1089 825 1103 810 1089 l 757 1089 b 708 1146 713 1089 701 1103 l 711 1158 b 779 1215 718 1201 735 1215 m 246 336 b 451 104 219 190 290 104 b 738 336 613 104 711 190 l 846 950 b 889 986 850 974 865 986 l 950 986 b 981 950 978 986 986 976 l 869 324 b 432 -21 831 103 682 -21 b 167 82 310 -21 221 14 b 114 350 111 150 93 239 l 221 950 b 263 986 225 974 239 986 l 324 986 b 354 950 351 986 360 976 "},"Ý":{"ha":876,"x_min":0,"x_max":0,"o":"m 660 1250 b 721 1249 689 1265 708 1264 l 742 1215 b 731 1176 754 1197 750 1183 l 467 1061 b 424 1063 444 1053 431 1053 l 413 1083 b 421 1118 401 1101 403 1108 m 944 986 b 957 950 971 986 974 968 l 507 394 l 443 36 b 401 0 439 13 425 0 l 339 0 b 310 36 313 0 304 10 l 372 397 l 118 950 b 143 986 108 968 117 986 l 215 986 b 281 954 261 986 269 983 l 465 533 l 797 954 b 874 986 818 983 828 986 "},"Þ":{"ha":867,"x_min":0,"x_max":0,"o":"m 572 828 b 799 735 674 828 749 797 b 844 488 847 672 863 590 b 456 172 810 288 663 172 l 197 172 l 174 36 b 131 0 169 13 154 0 l 69 0 b 39 36 42 0 35 10 l 200 950 b 243 986 204 974 219 986 l 304 986 b 335 950 332 986 340 976 l 313 828 m 465 297 b 707 499 592 297 689 376 b 538 703 729 621 664 703 l 292 703 l 219 297 "},"ß":{"ha":763,"x_min":0,"x_max":0,"o":"m 147 739 b 490 1042 181 924 306 1042 b 736 749 685 1042 768 928 b 585 542 717 647 667 579 l 585 538 b 692 285 679 504 715 419 b 349 0 658 100 536 0 l 256 0 b 225 36 228 0 221 10 l 235 88 b 276 125 239 113 253 125 l 358 125 b 558 300 471 125 538 183 b 425 469 576 404 526 469 l 340 469 b 311 506 313 469 306 479 l 319 554 b 363 590 324 582 335 590 l 436 590 b 606 747 526 590 590 660 b 468 917 626 860 581 917 b 269 735 363 917 290 846 l 147 36 b 104 0 143 13 129 0 l 53 0 b 24 36 26 0 18 10 "},"à":{"ha":743,"x_min":0,"x_max":0,"o":"m 386 1003 b 449 1006 404 1021 425 1021 l 640 874 b 636 838 653 865 651 853 l 618 819 b 575 817 608 810 594 808 l 353 933 b 354 971 336 940 336 953 m 94 469 b 446 738 128 657 236 738 b 682 694 544 738 622 724 b 721 618 722 674 728 663 l 622 60 b 581 18 618 33 608 25 b 296 -21 490 -8 394 -21 b 60 275 108 -21 28 97 m 572 603 b 436 624 529 617 483 624 b 215 453 304 624 238 575 l 182 265 b 325 93 164 156 213 93 b 508 119 389 93 450 101 l 589 574 b 572 603 590 590 589 593 "},"á":{"ha":743,"x_min":0,"x_max":0,"o":"m 575 1006 b 636 1003 604 1021 625 1021 l 657 969 b 646 932 669 951 667 939 l 382 815 b 340 818 358 808 344 808 l 328 838 b 336 874 318 853 321 865 m 94 469 b 446 738 128 657 236 738 b 682 694 544 738 622 724 b 721 618 722 674 728 663 l 622 60 b 581 18 618 33 608 25 b 296 -21 490 -8 394 -21 b 60 275 108 -21 28 97 m 572 603 b 436 624 529 617 483 624 b 215 453 304 624 238 575 l 182 265 b 325 93 164 156 213 93 b 508 119 389 93 450 101 l 589 574 b 572 603 590 590 589 593 "},"â":{"ha":743,"x_min":0,"x_max":0,"o":"m 519 1007 b 576 978 547 1007 554 1006 l 707 835 b 686 808 721 817 714 808 l 643 808 b 593 826 619 808 603 814 l 501 926 l 374 826 b 319 808 358 814 340 808 l 265 808 b 254 835 239 808 235 817 l 438 978 b 506 1007 469 1006 474 1007 m 94 469 b 446 738 128 657 236 738 b 682 694 544 738 622 724 b 721 618 722 674 728 663 l 622 60 b 581 18 618 33 608 25 b 296 -21 490 -8 394 -21 b 60 275 108 -21 28 97 m 572 603 b 436 624 529 617 483 624 b 215 453 304 624 238 575 l 182 265 b 325 93 164 156 213 93 b 508 119 389 93 450 101 l 589 574 b 572 603 590 590 589 593 "},"ã":{"ha":743,"x_min":0,"x_max":0,"o":"m 694 992 b 713 971 710 992 715 985 b 576 825 694 869 653 825 b 478 869 543 825 510 840 b 397 913 444 899 418 913 b 340 846 367 913 347 890 b 317 825 338 832 329 825 l 281 825 b 263 846 267 825 261 832 b 399 992 279 943 325 992 b 581 906 483 992 528 906 b 636 971 610 906 629 928 b 660 992 639 985 647 992 m 94 469 b 446 738 128 657 236 738 b 682 694 544 738 622 724 b 721 618 722 674 728 663 l 622 60 b 581 18 618 33 608 25 b 296 -21 490 -8 394 -21 b 60 275 108 -21 28 97 m 572 603 b 436 624 529 617 483 624 b 215 453 304 624 238 575 l 182 265 b 325 93 164 156 213 93 b 508 119 389 93 450 101 l 589 574 b 572 603 590 590 589 593 "},"ä":{"ha":743,"x_min":0,"x_max":0,"o":"m 371 968 b 419 911 415 968 426 954 l 417 900 b 349 842 407 856 393 842 l 339 842 b 292 900 296 842 285 856 l 294 911 b 363 968 301 954 318 968 m 644 968 b 692 911 689 968 701 954 l 690 900 b 622 842 683 856 665 842 l 614 842 b 564 900 569 842 557 856 l 567 911 b 636 968 574 954 592 968 m 94 469 b 446 738 128 657 236 738 b 682 694 544 738 622 724 b 721 618 722 674 728 663 l 622 60 b 581 18 618 33 608 25 b 296 -21 490 -8 394 -21 b 60 275 108 -21 28 97 m 572 603 b 436 624 529 617 483 624 b 215 453 304 624 238 575 l 182 265 b 325 93 164 156 213 93 b 508 119 389 93 450 101 l 589 574 b 572 603 590 590 589 593 "},"å":{"ha":743,"x_min":0,"x_max":0,"o":"m 353 938 b 524 1079 365 1022 436 1079 b 642 936 608 1079 657 1021 b 475 796 629 853 560 796 b 353 938 388 796 338 854 m 578 936 b 514 1015 588 985 563 1015 b 417 936 464 1015 424 986 b 485 858 407 890 435 858 b 578 936 533 858 571 890 m 94 469 b 446 738 128 657 236 738 b 682 694 544 738 622 724 b 721 618 722 674 728 663 l 622 60 b 581 18 618 33 608 25 b 296 -21 490 -8 394 -21 b 60 275 108 -21 28 97 m 572 603 b 436 624 529 617 483 624 b 215 453 304 624 238 575 l 182 265 b 325 93 164 156 213 93 b 508 119 389 93 450 101 l 589 574 b 572 603 590 590 589 593 "},"æ":{"ha":1082,"x_min":0,"x_max":0,"o":"m 590 621 b 829 738 647 699 726 738 b 1068 493 1007 738 1097 647 b 757 294 1042 364 931 294 b 583 315 703 294 646 301 l 572 254 b 708 88 554 143 599 88 b 894 181 789 88 851 118 b 946 193 911 201 928 206 l 981 171 b 981 117 999 157 999 139 b 689 -21 917 25 819 -21 b 508 51 604 -21 544 3 b 271 -21 449 3 369 -21 b 29 208 76 -21 3 60 b 351 417 56 351 156 417 b 488 407 388 417 433 414 l 496 457 b 478 600 503 511 517 565 b 383 626 457 618 426 626 b 218 546 315 626 261 600 b 171 531 200 524 193 519 l 131 549 b 121 596 108 558 106 574 b 406 738 186 690 282 738 b 590 621 518 738 567 694 m 946 500 b 811 632 967 585 918 632 b 608 457 704 632 626 568 l 600 410 b 775 390 660 397 718 390 b 946 500 874 390 931 426 m 469 308 b 321 318 404 315 356 318 b 153 200 222 318 167 279 b 276 83 138 118 175 83 b 457 140 375 83 428 122 b 460 249 451 169 453 206 "},"ç":{"ha":710,"x_min":0,"x_max":0,"o":"m 93 467 b 444 738 125 647 243 738 b 706 551 597 738 685 675 b 676 504 708 528 699 511 l 633 489 b 590 511 606 479 596 485 b 428 628 578 589 524 628 b 217 463 310 628 235 567 l 179 254 b 332 89 161 150 214 89 b 536 210 426 89 494 129 b 586 232 549 236 563 242 l 633 217 b 646 169 657 208 661 193 b 357 -18 586 54 489 -8 l 313 -100 b 339 -97 324 -99 332 -97 b 440 -217 421 -97 458 -146 b 243 -344 419 -304 339 -344 b 140 -318 203 -344 168 -336 b 126 -286 128 -312 124 -301 l 132 -253 b 151 -239 133 -237 140 -232 b 242 -268 181 -258 210 -268 b 339 -203 299 -268 332 -246 b 272 -151 344 -168 322 -151 b 231 -156 257 -151 243 -153 b 218 -128 210 -157 207 -149 l 282 -19 b 58 267 104 -7 29 100 "},"è":{"ha":731,"x_min":0,"x_max":0,"o":"m 379 1003 b 440 1006 396 1021 417 1022 l 632 874 b 628 838 644 865 643 853 l 611 819 b 568 817 601 810 586 808 l 346 933 b 347 971 328 940 329 953 m 92 454 b 457 738 125 636 257 738 b 721 485 646 738 753 639 b 388 294 694 358 583 294 b 190 314 329 294 264 301 l 179 254 b 336 88 161 147 214 88 b 546 179 428 88 497 118 b 603 193 565 201 585 206 l 636 171 b 639 117 657 157 657 139 b 317 -21 568 25 461 -21 b 61 281 110 -21 28 103 m 600 500 b 439 632 618 585 561 632 b 215 454 321 632 236 565 l 207 411 b 404 390 274 397 339 390 b 600 500 518 390 583 426 "},"é":{"ha":731,"x_min":0,"x_max":0,"o":"m 567 1006 b 629 1003 596 1021 617 1019 l 650 969 b 639 932 663 951 661 939 l 375 815 b 332 818 351 808 338 810 l 321 838 b 329 874 311 853 314 865 m 92 454 b 457 738 125 636 257 738 b 721 485 646 738 753 639 b 388 294 694 358 583 294 b 190 314 329 294 264 301 l 179 254 b 336 88 161 147 214 88 b 546 179 428 88 497 118 b 603 193 565 201 585 206 l 636 171 b 639 117 657 157 657 139 b 317 -21 568 25 461 -21 b 61 281 110 -21 28 103 m 600 500 b 439 632 618 585 561 632 b 215 454 321 632 236 565 l 207 411 b 404 390 274 397 339 390 b 600 500 518 390 583 426 "},"ê":{"ha":731,"x_min":0,"x_max":0,"o":"m 258 808 b 246 835 232 808 228 817 l 429 978 b 499 1007 461 1006 467 1007 l 513 1007 b 568 978 540 1007 547 1006 l 700 835 b 679 808 713 822 706 808 l 636 808 b 586 826 611 808 594 814 l 494 926 l 367 826 b 311 808 351 814 333 808 m 457 738 b 721 485 646 738 753 639 b 388 294 694 358 583 294 b 190 314 329 294 264 301 l 179 254 b 336 88 161 147 214 88 b 546 179 428 88 497 118 b 603 193 565 201 585 206 l 636 171 b 639 117 657 157 657 139 b 317 -21 568 25 461 -21 b 61 281 110 -21 28 103 l 92 454 b 457 738 125 636 257 738 m 600 500 b 439 632 618 585 561 632 b 215 454 321 632 236 565 l 207 411 b 404 390 274 397 339 390 b 600 500 518 390 583 426 "},"ë":{"ha":731,"x_min":0,"x_max":0,"o":"m 364 968 b 411 911 408 968 421 954 l 410 900 b 342 842 400 856 386 842 l 332 842 b 285 900 289 842 278 856 l 286 911 b 354 968 293 954 311 968 m 638 968 b 685 911 681 968 692 954 l 682 900 b 615 842 675 856 658 842 l 606 842 b 557 900 561 842 550 856 l 560 911 b 629 968 567 954 583 968 m 92 454 b 457 738 125 636 257 738 b 721 485 646 738 753 639 b 388 294 694 358 583 294 b 190 314 329 294 264 301 l 179 254 b 336 88 161 147 214 88 b 546 179 428 88 497 118 b 603 193 565 201 585 206 l 636 171 b 639 117 657 157 657 139 b 317 -21 568 25 461 -21 b 61 281 110 -21 28 103 m 600 500 b 439 632 618 585 561 632 b 215 454 321 632 236 565 l 207 411 b 404 390 274 397 339 390 b 600 500 518 390 583 426 "},"ì":{"ha":296,"x_min":0,"x_max":0,"o":"m 128 999 b 186 1004 149 1018 168 1019 l 340 869 b 336 832 353 860 351 847 l 322 817 b 279 815 311 807 297 806 l 99 932 b 100 971 78 943 79 950 m 235 717 b 261 683 258 717 265 710 l 147 33 b 108 0 143 11 131 0 l 50 0 b 24 33 24 0 18 10 l 138 683 b 176 717 142 706 154 717 "},"í":{"ha":296,"x_min":0,"x_max":0,"o":"m 303 1006 b 364 1003 332 1022 351 1021 l 385 969 b 372 932 400 951 396 942 l 146 815 b 103 817 125 806 110 807 l 92 838 b 101 874 82 853 86 864 m 235 717 b 261 683 258 717 265 710 l 147 33 b 108 0 143 11 131 0 l 50 0 b 24 33 24 0 18 10 l 138 683 b 176 717 142 706 154 717 "},"î":{"ha":296,"x_min":0,"x_max":0,"o":"m 422 838 b 401 811 435 819 428 811 l 358 811 b 313 835 336 811 321 819 l 254 917 l 160 829 b 107 811 149 817 131 811 l 58 811 b 46 838 32 811 28 819 l 192 974 b 260 1003 218 1001 226 1003 l 272 1003 b 325 974 300 1003 307 1001 m 250 717 b 276 683 274 717 281 710 l 163 33 b 124 0 158 11 146 0 l 65 0 b 39 33 39 0 33 10 l 153 683 b 192 717 157 706 169 717 "},"ï":{"ha":296,"x_min":0,"x_max":0,"o":"m 142 979 b 190 921 186 979 197 964 l 188 910 b 119 853 178 865 164 853 l 111 853 b 63 910 67 853 56 867 l 65 921 b 132 979 72 964 89 979 m 364 979 b 413 921 408 979 419 964 l 410 910 b 343 853 403 867 386 853 l 333 853 b 285 910 289 853 278 867 l 288 921 b 356 979 294 964 311 979 m 235 717 b 261 683 258 717 265 710 l 147 33 b 108 0 143 11 131 0 l 50 0 b 24 33 24 0 18 10 l 138 683 b 176 717 142 706 154 717 "},"ð":{"ha":767,"x_min":0,"x_max":0,"o":"m 696 1038 b 721 1039 706 1046 714 1046 l 750 1014 b 749 988 760 1007 758 997 l 681 928 b 736 553 747 853 765 728 l 683 254 b 322 -21 651 81 524 -21 b 58 265 121 -21 26 89 l 89 436 b 424 701 118 604 244 701 b 626 604 529 701 597 669 b 585 838 642 711 628 789 l 496 757 b 471 756 488 750 479 749 l 443 778 b 446 804 436 785 436 794 l 526 876 b 317 917 479 903 410 917 b 288 949 290 917 283 925 l 294 997 b 333 1031 299 1019 313 1031 b 622 971 461 1031 557 1011 m 589 426 b 431 589 607 532 553 589 b 213 425 307 589 231 531 l 182 256 b 342 92 164 150 218 92 b 558 256 465 92 538 146 "},"ñ":{"ha":763,"x_min":0,"x_max":0,"o":"m 665 992 b 682 971 679 992 685 985 b 546 825 664 869 624 825 b 447 869 514 825 481 840 b 367 913 414 899 388 913 b 310 846 338 913 318 890 b 286 825 307 832 299 825 l 250 825 b 233 846 236 825 231 832 b 368 992 249 943 294 992 b 550 906 453 992 497 906 b 606 971 579 906 599 928 b 631 992 608 985 617 992 m 186 690 b 460 738 271 722 361 738 b 693 453 649 738 722 632 l 618 33 b 579 0 614 11 601 0 l 521 0 b 494 33 497 0 490 7 l 569 458 b 424 624 589 568 540 624 b 258 599 369 624 314 615 b 238 574 246 594 239 586 l 143 33 b 103 0 139 11 125 0 l 44 0 b 18 33 21 0 14 10 l 119 613 b 186 690 129 657 142 672 "},"ò":{"ha":751,"x_min":0,"x_max":0,"o":"m 376 1003 b 438 1006 393 1019 414 1021 l 629 872 b 625 838 642 864 640 853 l 608 818 b 565 817 599 808 585 808 l 343 932 b 344 971 322 943 324 950 m 94 475 b 450 738 124 640 256 738 b 717 465 649 738 746 632 l 678 239 b 322 -21 649 72 522 -21 b 54 249 128 -21 26 82 m 594 472 b 433 625 611 568 551 625 b 218 472 317 625 236 568 l 179 244 b 339 92 161 149 222 92 b 554 244 457 92 536 149 "},"ó":{"ha":751,"x_min":0,"x_max":0,"o":"m 564 1006 b 626 1003 594 1019 615 1018 l 647 969 b 636 932 660 951 658 939 l 372 815 b 329 817 350 808 336 808 l 318 838 b 326 874 308 853 311 865 m 94 475 b 450 738 124 640 256 738 b 717 465 649 738 746 632 l 678 239 b 322 -21 649 72 522 -21 b 54 249 128 -21 26 82 m 594 472 b 433 625 611 568 551 625 b 218 472 317 625 236 568 l 179 244 b 339 92 161 149 222 92 b 554 244 457 92 536 149 "},"ô":{"ha":751,"x_min":0,"x_max":0,"o":"m 256 807 b 243 835 229 807 228 822 l 426 978 b 496 1007 458 1006 464 1007 l 510 1007 b 565 978 538 1007 543 1004 l 697 835 b 676 807 710 822 703 807 l 633 807 b 583 826 608 807 592 814 l 492 926 l 364 826 b 308 807 349 814 331 807 m 450 738 b 717 465 649 738 746 632 l 678 239 b 322 -21 649 72 522 -21 b 54 249 128 -21 26 82 l 94 475 b 450 738 124 640 256 738 m 594 472 b 433 625 611 568 551 625 b 218 472 317 625 236 568 l 179 244 b 339 92 161 149 222 92 b 554 244 457 92 536 149 "},"õ":{"ha":751,"x_min":0,"x_max":0,"o":"m 685 992 b 701 971 700 992 706 985 b 565 825 685 869 643 825 b 386 911 486 825 442 911 b 331 846 357 911 338 889 b 307 825 328 832 319 825 l 271 825 b 253 846 256 825 250 832 b 389 992 269 943 315 992 b 490 949 424 992 457 978 b 569 904 524 919 550 904 b 626 971 600 904 619 926 b 650 992 629 985 638 992 m 94 475 b 450 738 124 640 256 738 b 717 465 649 738 746 632 l 678 239 b 322 -21 649 72 522 -21 b 54 249 128 -21 26 82 m 594 472 b 433 625 611 568 551 625 b 218 472 317 625 236 568 l 179 244 b 339 92 161 149 222 92 b 554 244 457 92 536 149 "},"ö":{"ha":751,"x_min":0,"x_max":0,"o":"m 361 968 b 408 911 406 968 418 954 l 407 899 b 339 842 397 856 383 842 l 329 842 b 282 899 286 842 275 856 l 283 911 b 351 968 290 954 308 968 m 635 968 b 682 911 678 968 689 954 l 679 899 b 613 842 672 856 656 842 l 603 842 b 554 899 558 842 547 856 l 557 911 b 626 968 564 954 581 968 m 94 475 b 450 738 124 640 256 738 b 717 465 649 738 746 632 l 678 239 b 322 -21 649 72 522 -21 b 54 249 128 -21 26 82 m 594 472 b 433 625 611 568 551 625 b 218 472 317 625 236 568 l 179 244 b 339 92 161 149 222 92 b 554 244 457 92 536 149 "},"÷":{"ha":788,"x_min":0,"x_max":0,"o":"m 467 792 b 525 722 521 792 535 776 l 522 711 b 440 640 515 660 494 640 l 431 640 b 374 711 379 640 364 657 l 375 722 b 458 792 385 776 404 792 m 704 511 b 735 475 731 511 739 503 l 726 428 b 683 392 722 404 707 392 l 101 392 b 72 428 74 392 67 400 l 79 475 b 122 511 85 503 94 511 m 375 264 b 432 193 426 264 442 247 l 431 182 b 347 113 421 128 401 113 l 339 113 b 281 182 285 113 271 128 l 282 193 b 365 264 292 247 314 264 "},"ø":{"ha":751,"x_min":0,"x_max":0,"o":"m 736 767 b 739 754 743 767 744 763 l 661 658 b 706 465 704 610 719 546 l 665 239 b 310 -21 636 72 510 -21 b 143 15 244 -21 189 -8 l 99 -37 b 72 -49 92 -44 83 -49 l 24 -49 b 19 -36 14 -49 13 -44 l 92 51 b 43 249 46 100 29 165 l 83 475 b 439 738 113 640 243 738 b 613 697 508 738 567 724 l 661 756 b 685 767 668 763 675 767 m 533 599 b 421 625 504 617 467 625 b 207 472 304 625 225 568 l 167 244 b 182 164 161 213 167 186 m 222 115 b 326 92 249 100 283 92 b 543 244 444 92 526 149 l 582 468 b 567 540 586 496 582 519 "},"ù":{"ha":764,"x_min":0,"x_max":0,"o":"m 383 1003 b 444 1006 400 1019 421 1021 l 636 872 b 632 838 649 864 647 853 l 615 818 b 572 817 606 808 592 808 l 350 932 b 351 971 329 943 331 950 m 724 717 b 750 683 747 717 754 707 l 649 104 b 582 26 639 60 626 44 b 308 -21 492 -6 401 -21 b 75 264 119 -21 46 85 l 150 683 b 189 717 154 706 167 717 l 247 717 b 274 683 271 717 278 710 l 199 258 b 344 93 179 149 228 93 b 506 117 399 93 453 101 b 532 149 521 124 529 133 l 625 683 b 665 717 629 706 643 717 "},"ú":{"ha":764,"x_min":0,"x_max":0,"o":"m 571 1006 b 633 1003 601 1019 622 1018 l 654 969 b 643 932 667 951 665 939 l 379 815 b 336 817 357 808 343 808 l 325 838 b 333 874 315 853 318 865 m 724 717 b 750 683 747 717 754 707 l 649 104 b 582 26 639 60 626 44 b 308 -21 492 -6 401 -21 b 75 264 119 -21 46 85 l 150 683 b 189 717 154 706 167 717 l 247 717 b 274 683 271 717 278 710 l 199 258 b 344 93 179 149 228 93 b 506 117 399 93 453 101 b 532 149 521 124 529 133 l 625 683 b 665 717 629 706 643 717 "},"û":{"ha":764,"x_min":0,"x_max":0,"o":"m 517 1007 b 572 978 544 1007 550 1004 l 704 835 b 683 807 717 822 710 807 l 640 807 b 590 826 615 807 599 814 l 499 926 l 371 826 b 315 807 356 814 338 807 l 263 807 b 250 835 236 807 235 822 l 433 978 b 503 1007 465 1006 471 1007 m 724 717 b 750 683 747 717 754 707 l 649 104 b 582 26 639 60 626 44 b 308 -21 492 -6 401 -21 b 75 264 119 -21 46 85 l 150 683 b 189 717 154 706 167 717 l 247 717 b 274 683 271 717 278 710 l 199 258 b 344 93 179 149 228 93 b 506 117 399 93 453 101 b 532 149 521 124 529 133 l 625 683 b 665 717 629 706 643 717 "},"ü":{"ha":764,"x_min":0,"x_max":0,"o":"m 368 968 b 415 911 413 968 425 954 l 414 899 b 346 842 404 856 390 842 l 336 842 b 289 899 293 842 282 856 l 290 911 b 358 968 297 954 315 968 m 642 968 b 689 911 685 968 696 954 l 686 899 b 619 842 679 856 663 842 l 610 842 b 561 899 565 842 554 856 l 564 911 b 633 968 571 954 588 968 m 724 717 b 750 683 747 717 754 707 l 649 104 b 582 26 639 60 626 44 b 308 -21 492 -6 401 -21 b 75 264 119 -21 46 85 l 150 683 b 189 717 154 706 167 717 l 247 717 b 274 683 271 717 278 710 l 199 258 b 344 93 179 149 228 93 b 506 117 399 93 453 101 b 532 149 521 124 529 133 l 625 683 b 665 717 629 706 643 717 "},"ý":{"ha":767,"x_min":0,"x_max":0,"o":"m 567 1006 b 628 1003 596 1019 617 1018 l 649 969 b 638 932 661 951 658 939 l 374 815 b 332 817 351 807 338 807 l 319 838 b 328 874 310 853 313 865 m 718 717 b 744 683 744 717 750 707 l 618 -35 b 267 -335 583 -235 465 -335 b 13 -192 135 -335 50 -287 b 35 -137 0 -168 8 -150 l 76 -118 b 128 -131 104 -106 115 -108 b 283 -224 151 -193 204 -224 b 493 -40 401 -224 471 -162 l 507 35 b 307 6 431 15 364 6 b 76 290 119 6 44 111 l 144 683 b 183 717 149 706 161 717 l 242 717 b 268 683 268 717 274 707 l 199 285 b 344 119 178 174 224 119 b 526 149 401 119 461 129 l 621 683 b 660 717 625 706 638 717 "},"þ":{"ha":751,"x_min":0,"x_max":0,"o":"m 192 994 b 231 1026 196 1015 208 1026 l 289 1026 b 315 994 313 1026 319 1018 l 264 703 b 456 732 332 722 396 732 b 696 449 650 732 729 631 l 663 257 b 317 -21 631 72 515 -21 b 144 17 268 -21 211 -8 l 93 -272 b 53 -306 89 -294 75 -306 l -6 -306 b -32 -272 -29 -306 -36 -296 m 572 450 b 419 619 592 563 540 619 b 243 586 374 619 315 608 l 164 128 b 328 93 225 104 279 93 b 539 265 447 93 518 150 "},"ÿ":{"ha":767,"x_min":0,"x_max":0,"o":"m 363 968 b 411 911 407 968 418 956 l 408 899 b 340 842 399 856 385 842 l 332 842 b 283 899 288 842 276 856 l 286 911 b 354 968 293 954 310 968 m 636 968 b 683 911 681 968 693 954 l 682 899 b 614 842 672 856 658 842 l 606 842 b 557 899 561 842 550 856 l 558 911 b 628 968 565 954 583 968 m 718 717 b 744 683 744 717 750 707 l 618 -35 b 267 -335 583 -235 465 -335 b 13 -192 135 -335 50 -287 b 35 -137 0 -168 8 -150 l 76 -118 b 128 -131 104 -106 115 -108 b 283 -224 151 -193 204 -224 b 493 -40 401 -224 471 -162 l 507 35 b 307 6 431 15 364 6 b 76 290 119 6 44 111 l 144 683 b 183 717 149 706 161 717 l 242 717 b 268 683 268 717 274 707 l 199 285 b 344 119 178 174 224 119 b 526 149 401 119 461 129 l 621 683 b 660 717 625 706 638 717 "},"Ā":{"ha":899,"x_min":0,"x_max":0,"o":"m 769 1193 b 796 1163 793 1193 800 1186 l 790 1135 b 754 1103 786 1108 778 1103 l 429 1103 b 403 1135 406 1103 399 1108 l 408 1163 b 444 1193 413 1183 424 1193 m 838 36 b 807 0 842 13 832 0 l 757 0 b 696 32 711 0 700 6 l 650 258 l 239 258 l 113 32 b 40 0 97 6 85 0 l -14 0 b -32 36 -40 0 -46 13 l 492 958 b 543 989 503 979 519 989 l 599 989 b 640 960 626 989 636 982 m 557 733 b 554 860 551 789 549 843 l 554 864 l 547 864 b 500 735 547 864 533 797 l 297 368 l 632 368 "},"ā":{"ha":743,"x_min":0,"x_max":0,"o":"m 661 947 b 688 917 685 947 692 940 l 682 889 b 646 857 681 865 672 857 l 321 857 b 296 889 297 857 292 863 l 300 917 b 336 947 304 938 315 947 m 94 469 b 446 738 128 657 236 738 b 682 694 544 738 622 724 b 721 618 722 674 728 663 l 622 60 b 581 18 618 33 608 25 b 296 -21 490 -8 394 -21 b 60 275 108 -21 28 97 m 572 603 b 436 624 529 617 483 624 b 215 453 304 624 238 575 l 182 265 b 325 93 164 156 213 93 b 508 119 389 93 450 101 l 589 574 b 572 603 590 590 589 593 "},"Ă":{"ha":899,"x_min":0,"x_max":0,"o":"m 822 1204 b 585 1058 774 1107 694 1058 b 397 1204 478 1058 410 1110 b 418 1236 396 1219 403 1231 l 464 1251 b 494 1240 482 1257 493 1253 b 600 1149 501 1179 536 1149 b 736 1240 661 1149 707 1179 b 768 1253 744 1253 756 1257 l 813 1236 b 822 1204 826 1229 829 1218 m 838 36 b 807 0 842 13 832 0 l 757 0 b 696 32 711 0 700 6 l 650 258 l 239 258 l 113 32 b 40 0 97 6 85 0 l -14 0 b -32 36 -40 0 -46 13 l 492 958 b 543 989 503 979 519 989 l 599 989 b 640 960 626 989 636 982 m 557 733 b 554 860 551 789 549 843 l 554 864 l 547 864 b 500 735 547 864 533 797 l 297 368 l 632 368 "},"ă":{"ha":743,"x_min":0,"x_max":0,"o":"m 715 958 b 482 811 665 860 588 811 b 290 958 375 811 303 864 b 311 989 288 974 294 985 l 353 1003 b 385 992 369 1008 381 1004 b 492 901 390 932 426 901 b 629 993 553 901 599 932 b 660 1007 636 1006 647 1011 l 706 989 b 715 958 719 982 722 972 m 94 469 b 446 738 128 657 236 738 b 682 694 544 738 622 724 b 721 618 722 674 728 663 l 622 60 b 581 18 618 33 608 25 b 296 -21 490 -8 394 -21 b 60 275 108 -21 28 97 m 572 603 b 436 624 529 617 483 624 b 215 453 304 624 238 575 l 182 265 b 325 93 164 156 213 93 b 508 119 389 93 450 101 l 589 574 b 572 603 590 590 589 593 "},"Ą":{"ha":899,"x_min":0,"x_max":0,"o":"m 599 989 b 640 960 626 989 636 982 l 838 36 b 831 6 840 24 838 13 b 679 -214 725 -82 674 -168 b 718 -250 683 -237 697 -250 b 778 -225 739 -250 758 -242 b 797 -231 789 -218 796 -221 l 808 -275 b 801 -299 811 -285 808 -293 b 665 -342 768 -328 722 -342 b 564 -254 608 -342 568 -311 b 740 3 557 -174 615 -87 b 696 35 708 4 700 13 l 650 258 l 239 258 l 113 32 b 40 0 97 6 85 0 l -14 0 b -32 36 -40 0 -46 13 l 492 958 b 543 989 503 979 519 989 m 557 733 b 554 860 551 789 549 843 l 554 864 l 547 864 b 500 735 547 864 533 797 l 297 368 l 632 368 "},"ą":{"ha":744,"x_min":0,"x_max":0,"o":"m 94 469 b 446 738 128 657 236 738 b 682 694 544 738 622 724 b 721 618 722 674 728 663 l 622 60 b 608 32 619 44 615 36 b 449 -214 499 -67 443 -165 b 488 -250 453 -237 467 -250 b 547 -225 508 -250 528 -242 b 568 -231 558 -218 565 -221 l 578 -275 b 571 -299 581 -285 578 -293 b 435 -342 538 -328 492 -342 b 333 -254 378 -342 338 -311 b 497 0 326 -176 382 -92 b 296 -21 429 -14 363 -21 b 60 275 108 -21 28 97 m 572 603 b 436 624 529 617 483 624 b 215 453 304 624 238 575 l 182 265 b 325 93 164 156 213 93 b 508 119 389 93 450 101 l 589 574 b 572 603 590 590 589 593 "},"Ć":{"ha":882,"x_min":0,"x_max":0,"o":"m 710 1250 b 771 1249 739 1265 760 1265 l 792 1215 b 781 1176 804 1197 800 1183 l 517 1061 b 475 1063 496 1053 482 1053 l 463 1083 b 471 1118 451 1101 453 1108 m 146 658 b 593 1007 185 881 343 1007 b 918 768 794 1007 896 925 b 889 721 924 742 918 731 l 836 704 b 793 726 808 694 799 700 b 575 882 776 832 713 882 b 281 653 408 882 304 799 l 224 335 b 438 106 197 186 275 106 b 713 263 576 106 658 156 b 764 286 725 286 742 294 l 821 264 b 836 217 843 254 849 239 b 419 -21 757 60 626 -21 b 90 342 174 -21 51 119 "},"ć":{"ha":710,"x_min":0,"x_max":0,"o":"m 547 1006 b 608 1003 576 1019 597 1018 l 629 969 b 618 932 642 951 639 939 l 354 815 b 311 817 332 807 318 807 l 300 838 b 308 874 290 853 293 865 m 94 467 b 446 738 125 647 242 738 b 706 551 600 738 686 675 b 678 504 710 528 700 511 l 635 489 b 592 511 610 481 596 488 b 428 628 576 589 522 628 b 217 463 308 628 238 572 l 181 254 b 332 89 160 150 214 89 b 536 210 426 89 494 129 b 588 232 549 236 564 242 l 633 217 b 647 169 656 208 660 193 b 315 -21 579 43 469 -21 b 58 267 115 -21 26 89 "},"Ĉ":{"ha":882,"x_min":0,"x_max":0,"o":"m 656 1257 b 711 1228 683 1257 689 1256 l 843 1085 b 822 1057 856 1067 849 1057 l 778 1057 b 726 1076 753 1057 736 1064 l 636 1175 l 507 1076 b 451 1057 492 1064 474 1057 l 401 1057 b 390 1085 374 1057 369 1067 l 572 1228 b 642 1257 604 1256 610 1257 m 146 658 b 593 1007 185 881 343 1007 b 918 768 794 1007 896 925 b 889 721 924 742 918 731 l 836 704 b 793 726 808 694 799 700 b 575 882 776 832 713 882 b 281 653 408 882 304 799 l 224 335 b 438 106 197 186 275 106 b 713 263 576 106 658 156 b 764 286 725 286 742 294 l 821 264 b 836 217 843 254 849 239 b 419 -21 757 60 626 -21 b 90 342 174 -21 51 119 "},"ĉ":{"ha":710,"x_min":0,"x_max":0,"o":"m 238 807 b 226 835 211 807 210 822 l 408 978 b 478 1007 442 1006 446 1007 l 492 1007 b 547 978 519 1007 525 1004 l 679 835 b 658 807 692 822 686 807 l 615 807 b 565 826 592 807 575 814 l 474 926 l 346 826 b 290 807 331 814 313 807 m 706 551 b 678 504 710 528 700 511 l 635 489 b 592 511 610 481 596 488 b 428 628 576 589 522 628 b 217 463 308 628 238 572 l 181 254 b 332 89 160 150 214 89 b 536 210 426 89 494 129 b 588 232 549 236 564 242 l 633 217 b 647 169 656 208 660 193 b 315 -21 579 43 469 -21 b 58 267 115 -21 26 89 l 94 467 b 446 738 125 647 242 738 b 706 551 600 738 686 675 "},"Ċ":{"ha":882,"x_min":0,"x_max":0,"o":"m 642 1214 b 692 1154 688 1214 699 1200 l 689 1144 b 619 1085 682 1099 665 1085 l 611 1085 b 563 1144 565 1085 556 1099 l 565 1154 b 633 1214 572 1200 588 1214 m 146 658 b 593 1007 185 881 343 1007 b 918 768 794 1007 896 925 b 889 721 924 742 918 731 l 836 704 b 793 726 808 694 799 700 b 575 882 776 832 713 882 b 281 653 408 882 304 799 l 224 335 b 438 106 197 186 275 106 b 713 263 576 106 658 156 b 764 286 725 286 742 294 l 821 264 b 836 217 843 254 849 239 b 419 -21 757 60 626 -21 b 90 342 174 -21 51 119 "},"ċ":{"ha":710,"x_min":0,"x_max":0,"o":"m 478 967 b 528 907 524 967 535 953 l 526 897 b 456 838 519 851 501 838 l 449 838 b 400 897 403 838 390 851 l 401 907 b 471 967 411 953 425 967 m 94 467 b 446 738 125 647 242 738 b 706 551 600 738 686 675 b 678 504 710 528 700 511 l 635 489 b 592 511 610 481 596 488 b 428 628 576 589 522 628 b 217 463 308 628 238 572 l 181 254 b 332 89 160 150 214 89 b 536 210 426 89 494 129 b 588 232 549 236 564 242 l 633 217 b 647 169 656 208 660 193 b 315 -21 579 43 469 -21 b 58 267 115 -21 26 89 "},"Č":{"ha":882,"x_min":0,"x_max":0,"o":"m 854 1256 b 864 1228 882 1256 881 1242 l 683 1085 b 617 1056 651 1058 643 1056 l 603 1056 b 544 1085 571 1056 567 1057 l 413 1228 b 433 1256 400 1243 407 1256 l 479 1256 b 526 1236 507 1256 514 1254 l 619 1138 l 747 1236 b 806 1256 761 1249 781 1256 m 146 658 b 593 1007 185 881 343 1007 b 918 768 794 1007 896 925 b 889 721 924 742 918 731 l 836 704 b 793 726 808 694 799 700 b 575 882 776 832 713 882 b 281 653 408 882 304 799 l 224 335 b 438 106 197 186 275 106 b 713 263 576 106 658 156 b 764 286 725 286 742 294 l 821 264 b 836 217 843 254 849 239 b 419 -21 757 60 626 -21 b 90 342 174 -21 51 119 "},"č":{"ha":710,"x_min":0,"x_max":0,"o":"m 249 978 b 269 1006 238 993 243 1006 l 314 1006 b 361 986 342 1006 350 1003 l 456 888 l 582 986 b 639 1006 596 999 615 1006 l 690 1006 b 700 978 718 1006 717 992 l 518 835 b 454 806 486 808 481 806 l 442 806 b 381 835 408 806 403 807 m 446 738 b 706 551 600 738 686 675 b 678 504 710 528 700 511 l 635 489 b 592 511 610 481 596 488 b 428 628 576 589 522 628 b 217 463 308 628 238 572 l 181 254 b 332 89 160 150 214 89 b 536 210 426 89 494 129 b 588 232 549 236 564 242 l 633 217 b 647 169 656 208 660 193 b 315 -21 579 43 469 -21 b 58 267 115 -21 26 89 l 94 467 b 446 738 125 647 242 738 "},"Ď":{"ha":915,"x_min":0,"x_max":0,"o":"m 793 1256 b 804 1228 821 1256 821 1243 l 622 1085 b 556 1056 590 1058 583 1056 l 542 1056 b 483 1085 510 1056 506 1057 l 351 1228 b 374 1256 340 1243 346 1256 l 419 1256 b 467 1236 447 1256 451 1254 l 560 1138 l 688 1236 b 744 1256 700 1249 719 1256 m 544 986 b 882 608 799 986 922 838 l 838 356 b 378 0 797 128 635 0 l 69 0 b 39 36 42 0 35 10 l 200 950 b 243 986 204 974 219 986 m 750 621 b 524 861 776 775 696 861 l 319 861 l 189 125 l 394 125 b 706 365 567 125 678 211 "},"ď":{"ha":829,"x_min":0,"x_max":0,"o":"m 96 465 b 425 738 128 647 238 738 b 614 707 478 738 540 728 l 665 994 b 704 1028 669 1017 682 1028 l 763 1028 b 789 994 786 1028 793 1021 l 631 99 b 563 22 621 53 611 40 b 307 -21 483 -7 399 -21 b 61 271 108 -21 28 88 m 924 738 b 890 707 915 717 913 707 l 858 707 b 838 731 838 707 833 713 l 914 994 b 953 1028 921 1022 926 1028 l 999 1028 b 1029 994 1029 1028 1039 1017 m 594 593 b 429 624 531 614 475 624 b 217 450 308 624 238 565 l 183 263 b 338 93 164 150 215 93 b 492 115 394 93 446 100 b 515 142 508 122 511 125 "},"Đ":{"ha":933,"x_min":0,"x_max":0,"o":"m 561 986 b 840 883 688 986 781 951 b 899 607 900 814 919 722 l 854 354 b 388 0 814 126 650 0 l 86 0 b 56 36 58 0 51 10 l 131 461 l 38 461 b 19 485 21 461 15 467 l 26 525 b 54 549 29 540 39 549 l 147 549 l 217 950 b 260 986 221 974 236 986 m 767 621 b 540 861 793 776 719 861 l 336 861 l 281 549 l 496 549 b 513 525 511 549 517 540 l 506 485 b 479 461 504 469 494 461 l 265 461 l 206 125 l 411 125 b 722 365 583 125 694 211 "},"đ":{"ha":749,"x_min":0,"x_max":0,"o":"m 860 917 b 878 893 878 917 882 911 l 872 863 b 846 839 871 847 861 839 l 761 839 l 631 99 b 563 22 621 53 611 40 b 307 -21 483 -7 399 -21 b 60 268 108 -21 28 85 l 96 463 b 425 736 126 644 236 736 b 614 707 482 736 544 726 l 638 839 l 446 839 b 426 863 428 839 425 844 l 432 893 b 460 917 436 908 444 917 l 651 917 l 665 994 b 704 1028 669 1017 682 1028 l 763 1028 b 789 994 786 1028 793 1021 l 775 917 m 594 593 b 429 624 539 614 483 624 b 217 450 303 624 239 571 l 183 263 b 338 93 164 150 215 93 b 492 115 394 93 446 100 b 515 142 508 122 511 125 "},"Ē":{"ha":800,"x_min":0,"x_max":0,"o":"m 722 1193 b 747 1163 746 1193 753 1186 l 743 1135 b 707 1103 739 1111 731 1103 l 382 1103 b 356 1135 358 1103 351 1108 l 360 1163 b 397 1193 364 1183 376 1193 m 801 986 b 832 950 828 986 836 976 l 822 897 b 779 861 818 874 804 861 l 319 861 l 267 563 l 663 563 b 693 525 690 563 697 553 l 683 474 b 640 438 679 450 664 438 l 243 438 l 189 125 l 667 125 b 696 89 693 125 701 115 l 688 36 b 644 0 683 13 668 0 l 69 0 b 39 36 42 0 35 10 l 200 950 b 243 986 204 974 219 986 "},"ē":{"ha":731,"x_min":0,"x_max":0,"o":"m 314 857 b 288 889 290 857 283 863 l 293 917 b 329 947 297 938 308 947 l 654 947 b 681 917 678 947 685 940 l 675 889 b 639 857 671 865 663 857 m 457 738 b 721 485 646 738 753 639 b 388 294 694 358 583 294 b 190 314 329 294 264 301 l 179 254 b 336 88 161 147 214 88 b 546 179 428 88 497 118 b 603 193 565 201 585 206 l 636 171 b 639 117 657 157 657 139 b 317 -21 568 25 461 -21 b 61 281 110 -21 28 103 l 92 454 b 457 738 125 636 257 738 m 600 500 b 439 632 618 585 561 632 b 215 454 321 632 236 565 l 207 411 b 404 390 274 397 339 390 b 600 500 518 390 583 426 "},"Ĕ":{"ha":800,"x_min":0,"x_max":0,"o":"m 775 1204 b 536 1058 726 1107 647 1058 b 350 1204 429 1058 365 1110 b 369 1236 349 1219 354 1229 l 417 1251 b 447 1240 433 1256 443 1253 b 551 1149 454 1179 489 1149 b 689 1240 614 1149 660 1179 b 719 1253 697 1253 707 1257 l 765 1236 b 775 1204 778 1229 782 1218 m 801 986 b 832 950 828 986 836 976 l 822 897 b 779 861 818 874 804 861 l 319 861 l 267 563 l 663 563 b 693 525 690 563 697 553 l 683 474 b 640 438 679 450 664 438 l 243 438 l 189 125 l 667 125 b 696 89 693 125 701 115 l 688 36 b 644 0 683 13 668 0 l 69 0 b 39 36 42 0 35 10 l 200 950 b 243 986 204 974 219 986 "},"ĕ":{"ha":731,"x_min":0,"x_max":0,"o":"m 707 958 b 474 811 658 860 581 811 b 283 958 367 811 296 864 b 303 989 279 974 286 983 l 344 1003 b 376 992 363 1008 372 1004 b 483 901 383 932 418 901 b 622 993 546 901 592 932 b 651 1007 629 1006 639 1011 l 699 989 b 707 958 711 983 714 974 m 92 454 b 457 738 125 636 257 738 b 721 485 646 738 753 639 b 388 294 694 358 583 294 b 190 314 329 294 264 301 l 179 254 b 336 88 161 147 214 88 b 546 179 428 88 497 118 b 603 193 565 201 585 206 l 636 171 b 639 117 657 157 657 139 b 317 -21 568 25 461 -21 b 61 281 110 -21 28 103 m 600 500 b 439 632 618 585 561 632 b 215 454 321 632 236 565 l 207 411 b 404 390 274 397 339 390 b 600 500 518 390 583 426 "},"Ė":{"ha":800,"x_min":0,"x_max":0,"o":"m 567 1214 b 617 1154 613 1214 624 1200 l 614 1144 b 544 1085 607 1099 590 1085 l 536 1085 b 488 1144 490 1085 481 1099 l 490 1154 b 560 1214 497 1200 514 1214 m 801 986 b 832 950 828 986 836 976 l 822 897 b 779 861 818 874 804 861 l 319 861 l 267 563 l 663 563 b 693 525 690 563 697 553 l 683 474 b 640 438 679 450 664 438 l 243 438 l 189 125 l 667 125 b 696 89 693 125 701 115 l 688 36 b 644 0 683 13 668 0 l 69 0 b 39 36 42 0 35 10 l 200 950 b 243 986 204 974 219 986 "},"ė":{"ha":731,"x_min":0,"x_max":0,"o":"m 499 967 b 549 907 544 967 556 953 l 546 899 b 476 839 539 853 522 839 l 469 839 b 419 899 424 839 413 853 l 422 907 b 492 967 429 953 446 967 m 92 454 b 457 738 125 636 257 738 b 721 485 646 738 753 639 b 388 294 694 358 583 294 b 190 314 329 294 264 301 l 179 254 b 336 88 161 147 214 88 b 546 179 428 88 497 118 b 603 193 565 201 585 206 l 636 171 b 639 117 657 157 657 139 b 317 -21 568 25 461 -21 b 61 281 110 -21 28 103 m 600 500 b 439 632 618 585 561 632 b 215 454 321 632 236 565 l 207 411 b 404 390 274 397 339 390 b 600 500 518 390 583 426 "},"Ę":{"ha":800,"x_min":0,"x_max":0,"o":"m 801 986 b 832 950 828 986 836 976 l 822 897 b 779 861 818 874 804 861 l 319 861 l 267 563 l 663 563 b 693 525 690 563 697 553 l 683 474 b 640 438 679 450 664 438 l 243 438 l 189 125 l 667 125 b 696 89 693 125 701 115 l 688 36 b 672 7 683 24 679 14 b 517 -214 563 -89 510 -162 b 556 -250 521 -237 535 -250 b 615 -225 576 -250 596 -242 b 636 -231 626 -218 633 -221 l 646 -275 b 639 -299 649 -285 646 -293 b 503 -342 606 -328 560 -342 b 401 -254 446 -342 406 -311 b 581 0 394 -175 454 -90 l 69 0 b 39 36 42 0 35 10 l 200 950 b 243 986 204 974 219 986 "},"ę":{"ha":731,"x_min":0,"x_max":0,"o":"m 92 454 b 457 738 125 636 257 738 b 721 485 646 738 753 639 b 388 294 694 358 583 294 b 190 314 329 294 264 301 l 179 254 b 336 88 161 147 214 88 b 546 179 428 88 497 118 b 603 193 565 201 585 206 l 636 171 b 639 117 657 157 657 139 b 583 61 622 93 604 75 b 403 -212 460 -60 396 -168 b 442 -249 406 -236 418 -249 b 501 -225 463 -249 483 -240 b 521 -231 511 -219 518 -221 l 532 -275 b 525 -299 535 -285 532 -293 b 388 -342 490 -328 444 -342 b 288 -254 332 -342 289 -310 b 436 -7 283 -178 332 -94 b 317 -21 397 -17 357 -21 b 61 281 110 -21 28 103 m 404 390 b 600 500 518 390 583 426 b 439 632 618 585 561 632 b 215 454 321 632 236 565 l 207 411 b 404 390 274 397 339 390 "},"Ě":{"ha":800,"x_min":0,"x_max":0,"o":"m 779 1256 b 789 1228 807 1256 806 1242 l 608 1085 b 542 1056 576 1058 568 1056 l 528 1056 b 469 1085 496 1056 492 1057 l 338 1228 b 358 1256 325 1243 332 1256 l 404 1256 b 451 1236 432 1256 439 1254 l 546 1138 l 672 1236 b 731 1256 686 1249 706 1256 m 801 986 b 832 950 828 986 836 976 l 822 897 b 779 861 818 874 804 861 l 319 861 l 267 563 l 663 563 b 693 525 690 563 697 553 l 683 474 b 640 438 679 450 664 438 l 243 438 l 189 125 l 667 125 b 696 89 693 125 701 115 l 688 36 b 644 0 683 13 668 0 l 69 0 b 39 36 42 0 35 10 l 200 950 b 243 986 204 974 219 986 "},"ě":{"ha":731,"x_min":0,"x_max":0,"o":"m 269 979 b 290 1006 257 992 264 1006 l 335 1006 b 382 988 356 1006 372 1000 l 476 889 l 603 988 b 660 1006 615 1000 635 1006 l 710 1006 b 721 978 738 1006 738 993 l 539 836 b 474 806 507 808 501 806 l 461 806 b 401 836 429 806 425 808 m 457 738 b 721 485 646 738 753 639 b 388 294 694 358 583 294 b 190 314 329 294 264 301 l 179 254 b 336 88 161 147 214 88 b 546 179 428 88 497 118 b 603 193 565 201 585 206 l 636 171 b 639 117 657 157 657 139 b 317 -21 568 25 461 -21 b 61 281 110 -21 28 103 l 92 454 b 457 738 125 636 257 738 m 600 500 b 439 632 618 585 561 632 b 215 454 321 632 236 565 l 207 411 b 404 390 274 397 339 390 b 600 500 518 390 583 426 "},"Ĝ":{"ha":911,"x_min":0,"x_max":0,"o":"m 653 1271 b 708 1242 679 1271 686 1268 l 840 1099 b 818 1071 853 1081 844 1071 l 775 1071 b 724 1090 750 1071 733 1078 l 633 1189 l 503 1090 b 449 1071 489 1078 471 1071 l 399 1071 b 386 1099 372 1071 368 1081 l 569 1242 b 639 1271 601 1269 606 1271 m 863 525 b 892 488 890 525 897 515 l 860 301 b 417 -21 825 100 663 -21 b 90 344 171 -21 51 121 l 146 661 b 594 1007 185 883 343 1007 b 919 769 788 1007 896 928 b 892 722 925 743 919 732 l 835 704 b 792 726 811 696 796 703 b 574 882 775 832 711 882 b 279 653 408 882 306 799 l 224 335 b 438 104 197 189 272 104 b 729 310 599 104 707 186 l 744 400 l 503 400 b 474 436 476 400 469 408 l 482 489 b 525 525 486 513 501 525 "},"ĝ":{"ha":747,"x_min":0,"x_max":0,"o":"m 258 807 b 246 835 232 807 231 822 l 429 978 b 499 1007 461 1006 467 1007 l 513 1007 b 568 978 540 1007 546 1004 l 700 835 b 679 807 713 822 706 807 l 636 807 b 586 826 611 807 594 814 l 494 926 l 367 826 b 311 807 351 814 333 807 m 676 694 b 715 618 717 674 722 663 l 599 -39 b 251 -335 564 -236 449 -335 b -4 -192 119 -335 33 -287 b 18 -137 -15 -168 -8 -150 l 60 -118 b 111 -131 88 -106 99 -108 b 265 -224 135 -193 186 -224 b 475 -40 383 -224 453 -162 l 489 39 b 293 4 413 15 347 4 b 57 296 106 4 25 117 l 88 465 b 440 738 119 653 233 738 b 676 694 539 738 617 724 m 583 575 b 568 603 588 592 585 596 b 431 624 526 617 481 624 b 208 447 301 624 231 568 l 179 285 b 324 118 161 174 208 118 b 508 149 371 118 432 128 "},"Ğ":{"ha":911,"x_min":0,"x_max":0,"o":"m 847 1218 b 608 1072 797 1121 718 1072 b 422 1218 501 1072 435 1124 b 442 1250 419 1233 426 1244 l 488 1265 b 518 1254 506 1269 517 1267 b 624 1163 526 1193 561 1163 b 760 1254 685 1163 731 1193 b 792 1267 768 1267 779 1271 l 836 1250 b 847 1218 853 1240 854 1236 m 863 525 b 892 488 890 525 897 515 l 860 301 b 417 -21 825 100 663 -21 b 90 344 171 -21 51 121 l 146 661 b 594 1007 185 883 343 1007 b 919 769 788 1007 896 928 b 892 722 925 743 919 732 l 835 704 b 792 726 811 696 796 703 b 574 882 775 832 711 882 b 279 653 408 882 306 799 l 224 335 b 438 104 197 189 272 104 b 729 310 599 104 707 186 l 744 400 l 503 400 b 474 436 476 400 469 408 l 482 489 b 525 525 486 513 501 525 "},"ğ":{"ha":747,"x_min":0,"x_max":0,"o":"m 707 957 b 474 811 658 860 581 811 b 283 957 364 811 296 863 b 303 989 279 972 286 982 l 344 1003 b 376 990 363 1008 372 1004 b 483 901 383 931 418 901 b 622 993 546 901 592 932 b 651 1006 629 1006 639 1010 l 699 989 b 707 957 711 982 714 972 m 88 465 b 440 738 119 653 233 738 b 676 694 539 738 617 724 b 715 618 717 674 722 663 l 599 -39 b 251 -335 564 -236 449 -335 b -4 -192 119 -335 33 -287 b 18 -137 -15 -168 -8 -150 l 60 -118 b 111 -131 88 -106 99 -108 b 265 -224 135 -193 186 -224 b 475 -40 383 -224 453 -162 l 489 39 b 293 4 413 15 347 4 b 57 296 106 4 25 117 m 568 603 b 431 624 526 617 481 624 b 208 447 301 624 231 568 l 179 285 b 324 118 161 174 208 118 b 508 149 371 118 432 128 l 583 575 b 568 603 588 592 585 596 "},"Ġ":{"ha":911,"x_min":0,"x_max":0,"o":"m 638 1228 b 688 1168 683 1228 694 1214 l 686 1158 b 615 1099 679 1113 661 1099 l 608 1099 b 560 1158 563 1099 550 1113 l 561 1168 b 631 1228 571 1214 585 1228 m 863 525 b 892 488 890 525 897 515 l 860 301 b 417 -21 825 100 663 -21 b 90 344 171 -21 51 121 l 146 661 b 594 1007 185 883 343 1007 b 919 769 788 1007 896 928 b 892 722 925 743 919 732 l 835 704 b 792 726 811 696 796 703 b 574 882 775 832 711 882 b 279 653 408 882 306 799 l 224 335 b 438 104 197 189 272 104 b 729 310 599 104 707 186 l 744 400 l 503 400 b 474 436 476 400 469 408 l 482 489 b 525 525 486 513 501 525 "},"ġ":{"ha":747,"x_min":0,"x_max":0,"o":"m 499 967 b 549 907 544 967 556 953 l 546 897 b 476 838 539 851 522 838 l 469 838 b 419 897 424 838 413 851 l 422 907 b 492 967 429 953 446 967 m 88 465 b 440 738 119 653 233 738 b 676 694 539 738 617 724 b 715 618 717 674 722 663 l 599 -39 b 251 -335 564 -236 449 -335 b -4 -192 119 -335 33 -287 b 18 -137 -15 -168 -8 -150 l 60 -118 b 111 -131 88 -106 99 -108 b 265 -224 135 -193 186 -224 b 475 -40 383 -224 453 -162 l 489 39 b 293 4 413 15 347 4 b 57 296 106 4 25 117 m 568 603 b 431 624 526 617 481 624 b 208 447 301 624 231 568 l 179 285 b 324 118 161 174 208 118 b 508 149 371 118 432 128 l 583 575 b 568 603 588 592 585 596 "},"Ģ":{"ha":911,"x_min":0,"x_max":0,"o":"m 863 525 b 892 488 890 525 897 515 l 860 301 b 417 -21 825 100 663 -21 b 90 344 171 -21 51 121 l 146 661 b 594 1007 185 883 343 1007 b 919 769 788 1007 896 928 b 892 722 925 743 919 732 l 835 704 b 792 726 811 696 796 703 b 574 882 775 832 711 882 b 279 653 408 882 306 799 l 224 335 b 438 104 197 189 272 104 b 729 310 599 104 707 186 l 744 400 l 503 400 b 474 436 476 400 469 408 l 482 489 b 525 525 486 513 501 525 m 385 -319 b 340 -351 375 -340 360 -351 l 301 -351 b 283 -326 281 -351 278 -347 l 357 -128 b 403 -93 364 -100 375 -93 l 458 -93 b 483 -128 488 -93 496 -104 "},"ģ":{"ha":747,"x_min":0,"x_max":0,"o":"m 489 1011 b 531 1038 501 1035 507 1038 l 564 1038 b 586 1013 585 1038 592 1029 l 513 849 b 469 810 503 817 497 810 l 424 810 b 394 849 394 810 385 822 m 88 465 b 440 738 119 653 233 738 b 676 694 539 738 617 724 b 715 618 717 674 722 663 l 599 -39 b 251 -335 564 -236 449 -335 b -4 -192 119 -335 33 -287 b 18 -137 -15 -168 -8 -150 l 60 -118 b 111 -131 88 -106 99 -108 b 265 -224 135 -193 186 -224 b 475 -40 383 -224 453 -162 l 489 39 b 293 4 413 15 347 4 b 57 296 106 4 25 117 m 568 603 b 431 624 526 617 481 624 b 208 447 301 624 231 568 l 179 285 b 324 118 161 174 208 118 b 508 149 371 118 432 128 l 583 575 b 568 603 588 592 585 596 "},"Ĥ":{"ha":951,"x_min":0,"x_max":0,"o":"m 636 1257 b 692 1228 664 1257 669 1254 l 824 1085 b 803 1057 836 1067 829 1057 l 758 1057 b 707 1076 735 1057 717 1064 l 617 1175 l 488 1076 b 432 1057 472 1064 454 1057 l 382 1057 b 371 1085 354 1057 350 1067 l 553 1228 b 622 1257 585 1256 590 1257 m 914 986 b 944 950 940 986 949 976 l 783 36 b 740 0 779 13 764 0 l 679 0 b 649 36 651 0 644 10 l 719 438 l 243 438 l 174 36 b 131 0 169 13 154 0 l 69 0 b 39 36 42 0 35 10 l 200 950 b 243 986 204 974 219 986 l 304 986 b 335 950 332 986 340 976 l 267 563 l 742 563 l 810 950 b 853 986 814 974 829 986 "},"ĥ":{"ha":767,"x_min":0,"x_max":0,"o":"m 63 1097 b 51 1125 36 1097 35 1110 l 235 1268 b 304 1297 267 1296 271 1297 l 317 1297 b 374 1268 344 1297 351 1294 l 504 1125 b 483 1097 517 1110 511 1097 l 442 1097 b 390 1117 417 1097 400 1104 l 299 1217 l 171 1117 b 117 1097 156 1104 138 1097 m 465 738 b 697 454 654 738 729 633 l 624 33 b 583 0 619 11 606 0 l 526 0 b 499 33 500 0 494 7 l 574 458 b 428 624 594 568 546 624 b 246 592 351 624 290 613 l 147 33 b 108 0 143 11 131 0 l 50 0 b 24 33 24 0 18 10 l 192 994 b 232 1028 196 1017 208 1028 l 290 1028 b 317 994 314 1028 321 1018 l 265 707 b 465 738 313 728 379 738 "},"Ħ":{"ha":964,"x_min":0,"x_max":0,"o":"m 1007 832 b 1024 808 1022 832 1028 824 l 1019 778 b 993 753 1015 761 1007 753 l 917 753 l 790 36 b 747 0 786 13 771 0 l 686 0 b 656 36 658 0 651 10 l 726 438 l 251 438 l 181 36 b 138 0 176 13 163 0 l 76 0 b 47 36 49 0 42 10 l 174 753 l 99 753 b 81 778 83 753 78 761 l 86 808 b 113 832 90 824 99 832 l 188 832 l 208 950 b 250 986 213 976 222 986 l 311 986 b 342 950 339 986 347 976 l 321 832 l 797 832 l 817 950 b 860 986 821 974 836 986 l 921 986 b 951 950 949 986 957 976 l 931 832 m 307 753 l 274 563 l 749 563 l 783 753 "},"ħ":{"ha":767,"x_min":0,"x_max":0,"o":"m 265 707 b 465 738 313 728 379 738 b 697 454 654 738 729 633 l 624 33 b 583 0 619 11 606 0 l 526 0 b 499 33 500 0 494 7 l 574 458 b 428 624 594 568 546 624 b 246 592 351 624 290 613 l 147 33 b 108 0 143 11 131 0 l 50 0 b 24 33 24 0 18 10 l 165 843 l 92 843 b 75 868 76 843 71 851 l 79 894 b 106 918 82 910 90 918 l 178 918 l 192 994 b 232 1028 196 1017 208 1028 l 290 1028 b 317 994 314 1028 321 1018 l 303 918 l 507 918 b 525 894 525 918 529 913 l 521 868 b 493 843 517 847 511 843 l 289 843 "},"Ĩ":{"ha":343,"x_min":0,"x_max":0,"o":"m 506 1233 b 522 1213 519 1233 525 1226 b 385 1067 504 1111 463 1067 b 207 1154 306 1067 263 1154 b 151 1088 178 1154 158 1132 b 126 1067 147 1074 139 1067 l 90 1067 b 74 1088 76 1067 71 1074 b 210 1233 90 1185 136 1233 b 390 1146 294 1233 338 1146 b 446 1213 419 1146 439 1168 b 471 1233 450 1226 458 1233 m 200 950 b 243 986 204 974 219 986 l 304 986 b 335 950 332 986 340 976 l 174 36 b 131 0 169 13 154 0 l 69 0 b 39 36 42 0 35 10 "},"ĩ":{"ha":296,"x_min":0,"x_max":0,"o":"m 408 1000 b 422 979 421 1000 425 993 b 299 836 406 883 364 836 b 233 876 275 836 253 850 b 179 915 213 903 194 915 b 125 856 150 915 132 896 b 104 833 122 840 115 833 l 63 833 b 47 856 50 833 44 840 b 172 1000 64 951 106 1000 b 303 917 251 1000 247 917 b 349 979 326 917 342 938 b 369 1000 353 993 360 1000 m 235 717 b 261 683 258 717 265 710 l 147 33 b 108 0 143 11 131 0 l 50 0 b 24 33 24 0 18 10 l 138 683 b 176 717 142 706 154 717 "},"Ī":{"ha":343,"x_min":0,"x_max":0,"o":"m 474 1193 b 499 1163 497 1193 503 1186 l 494 1135 b 457 1103 489 1108 481 1103 l 132 1103 b 107 1135 108 1103 103 1111 l 111 1163 b 149 1193 115 1183 128 1193 m 200 950 b 243 986 204 974 219 986 l 304 986 b 335 950 332 986 340 976 l 174 36 b 131 0 169 13 154 0 l 69 0 b 39 36 42 0 35 10 "},"ī":{"ha":296,"x_min":0,"x_max":0,"o":"m 354 943 b 368 913 369 943 372 936 l 364 886 b 339 856 360 863 356 856 l 107 856 b 92 886 90 856 88 863 l 97 913 b 121 943 101 936 106 943 m 235 717 b 261 683 258 717 265 710 l 147 33 b 108 0 143 11 131 0 l 50 0 b 24 33 24 0 18 10 l 138 683 b 176 717 142 706 154 717 "},"Ĭ":{"ha":343,"x_min":0,"x_max":0,"o":"m 526 1204 b 288 1058 476 1107 397 1058 b 101 1204 181 1058 114 1110 b 121 1236 99 1219 106 1231 l 168 1251 b 199 1240 185 1256 194 1253 b 303 1149 206 1179 240 1149 b 439 1240 364 1149 410 1179 b 471 1253 447 1254 458 1258 l 517 1236 b 526 1204 529 1229 533 1218 m 200 950 b 243 986 204 974 219 986 l 304 986 b 335 950 332 986 340 976 l 174 36 b 131 0 169 13 154 0 l 69 0 b 39 36 42 0 35 10 "},"ĭ":{"ha":296,"x_min":0,"x_max":0,"o":"m 425 988 b 435 957 438 982 442 972 b 225 813 392 861 321 813 b 61 957 129 813 71 864 b 82 988 58 972 65 983 l 126 1003 b 157 992 143 1007 153 1004 b 238 904 161 933 188 904 b 349 992 289 904 325 933 b 379 1004 356 1006 367 1010 m 235 717 b 261 683 258 717 265 710 l 147 33 b 108 0 143 11 131 0 l 50 0 b 24 33 24 0 18 10 l 138 683 b 176 717 142 706 154 717 "},"Į":{"ha":343,"x_min":0,"x_max":0,"o":"m 176 -268 b 169 -292 179 -278 176 -286 b 32 -342 129 -325 83 -342 b -68 -265 -32 -342 -65 -317 b 74 3 -74 -186 -26 -96 b 46 38 44 3 40 11 l 207 950 b 249 986 211 974 225 986 l 310 986 b 340 950 338 986 346 976 l 179 36 b 165 4 176 21 172 11 b 47 -215 81 -85 42 -169 b 85 -249 51 -237 64 -249 b 147 -226 108 -249 129 -242 b 167 -232 158 -218 165 -219 "},"į":{"ha":296,"x_min":0,"x_max":0,"o":"m 218 835 b 164 901 167 835 154 850 l 164 913 b 243 979 174 963 193 979 l 251 979 b 306 913 301 979 315 963 l 306 901 b 226 835 296 851 276 835 m 139 -265 b 133 -290 143 -275 140 -283 b 13 -340 100 -324 60 -340 b -90 -251 -56 -340 -89 -311 b 42 1 -90 -181 -46 -97 b 19 33 24 1 15 13 l 133 683 b 172 717 138 706 150 717 l 231 717 b 257 683 254 717 261 710 l 143 33 b 131 7 140 21 136 11 b 25 -204 64 -79 29 -150 b 65 -250 24 -235 36 -250 b 111 -228 82 -250 97 -243 b 132 -232 122 -221 129 -222 "},"İ":{"ha":343,"x_min":0,"x_max":0,"o":"m 317 1214 b 367 1154 363 1214 376 1200 l 365 1144 b 294 1085 358 1099 340 1085 l 288 1085 b 239 1144 242 1085 229 1099 l 240 1154 b 310 1214 250 1200 264 1214 m 200 950 b 243 986 204 974 219 986 l 304 986 b 335 950 332 986 340 976 l 174 36 b 131 0 169 13 154 0 l 69 0 b 39 36 42 0 35 10 "},"ı":{"ha":296,"x_min":0,"x_max":0,"o":"m 235 717 b 261 683 258 717 265 710 l 147 33 b 108 0 143 11 131 0 l 50 0 b 24 33 24 0 18 10 l 138 683 b 176 717 142 706 154 717 "},"Ĳ":{"ha":1142,"x_min":0,"x_max":0,"o":"m 200 950 b 243 986 204 974 219 986 l 304 986 b 335 950 332 986 340 976 l 174 36 b 131 0 169 13 154 0 l 69 0 b 39 36 42 0 35 10 m 1111 986 b 1142 950 1139 986 1146 976 l 1026 300 b 635 -21 989 86 858 -21 b 342 226 454 -21 357 61 b 369 274 336 253 342 264 l 428 293 b 469 269 454 300 464 296 b 649 104 479 160 533 104 b 896 315 786 104 869 178 l 1007 950 b 1049 986 1013 978 1021 986 "},"ĳ":{"ha":633,"x_min":0,"x_max":0,"o":"m 256 979 b 310 913 306 979 319 963 l 310 901 b 231 835 300 851 281 835 l 222 835 b 168 901 171 835 158 850 l 168 913 b 247 979 178 963 197 979 m 593 979 b 647 913 643 979 657 963 l 646 901 b 567 835 636 851 617 835 l 558 835 b 504 901 508 835 494 850 l 504 913 b 583 979 514 963 533 979 m 235 717 b 261 683 258 717 265 710 l 147 33 b 108 0 143 11 131 0 l 50 0 b 24 33 24 0 18 10 l 138 683 b 176 717 142 706 154 717 m 571 717 b 597 683 597 717 603 707 l 475 -11 b 119 -319 439 -217 321 -319 b 92 -286 96 -319 88 -312 l 100 -237 b 140 -204 104 -215 117 -204 b 353 -8 269 -204 329 -137 l 474 683 b 514 717 478 706 490 717 "},"Ĵ":{"ha":793,"x_min":0,"x_max":0,"o":"m 792 1257 b 847 1228 818 1257 825 1254 l 979 1085 b 958 1057 992 1067 985 1057 l 914 1057 b 863 1076 889 1057 872 1064 l 772 1175 l 642 1076 b 588 1057 628 1064 610 1057 l 538 1057 b 526 1085 510 1057 506 1067 l 708 1228 b 778 1257 740 1256 744 1257 m 765 986 b 794 950 792 986 799 976 l 679 300 b 288 -21 642 86 511 -21 b -6 226 107 -21 10 61 b 22 274 -11 253 -6 264 l 81 293 b 122 269 107 300 117 296 b 301 104 132 160 186 104 b 549 315 439 104 522 178 l 660 950 b 701 986 664 974 678 986 "},"ĵ":{"ha":296,"x_min":0,"x_max":0,"o":"m 258 1000 b 313 972 286 1000 292 999 l 425 832 b 404 806 438 814 431 806 l 364 806 b 314 824 339 806 322 811 l 242 921 l 131 824 b 76 806 115 811 97 806 l 26 806 b 15 832 0 806 -4 814 l 178 972 b 246 1000 207 999 214 1000 m 232 717 b 260 683 258 717 264 710 l 138 -11 b -218 -319 101 -217 -17 -319 b -246 -286 -244 -319 -250 -312 l -237 -237 b -197 -204 -233 -215 -221 -204 b 14 -8 -68 -204 -8 -137 l 136 683 b 176 717 140 706 153 717 "},"Ķ":{"ha":857,"x_min":0,"x_max":0,"o":"m 767 38 b 742 0 775 13 767 0 l 681 0 b 615 32 635 0 625 6 l 518 329 b 356 439 490 413 457 439 l 244 439 l 174 36 b 131 0 169 13 154 0 l 69 0 b 39 36 42 0 35 10 l 200 950 b 243 986 204 974 219 986 l 304 986 b 335 950 332 986 340 976 l 265 561 l 364 561 l 389 561 l 754 956 b 832 986 778 982 789 986 l 900 986 b 913 951 926 986 929 968 l 515 531 b 651 378 579 510 625 458 m 329 -319 b 286 -351 319 -340 304 -351 l 246 -351 b 228 -326 225 -351 222 -347 l 301 -128 b 347 -93 308 -100 319 -93 l 403 -93 b 428 -128 432 -93 440 -104 "},"ķ":{"ha":713,"x_min":0,"x_max":0,"o":"m 618 39 b 589 0 628 11 621 0 l 536 0 b 485 31 501 0 494 4 l 424 238 b 315 314 408 293 378 314 l 196 314 l 147 35 b 106 0 143 11 129 0 l 51 0 b 24 35 25 0 18 8 l 192 994 b 233 1028 196 1017 210 1028 l 288 1028 b 317 994 314 1028 321 1021 l 217 424 l 317 424 l 328 424 l 582 692 b 651 717 603 715 613 717 l 704 717 b 718 678 738 717 742 704 l 447 399 b 538 286 488 383 518 346 m 274 -287 b 226 -318 263 -308 247 -318 l 194 -318 b 174 -292 172 -318 169 -314 l 239 -110 b 289 -72 249 -81 260 -72 l 336 -72 b 358 -110 365 -72 372 -85 "},"ĸ":{"ha":701,"x_min":0,"x_max":0,"o":"m 563 40 b 528 0 572 14 561 0 l 476 0 b 421 26 438 0 428 4 l 296 308 l 165 196 l 125 35 b 78 0 117 11 101 0 l 22 0 b 0 35 -4 0 -10 8 l 181 683 b 229 717 189 706 206 717 l 283 717 b 306 683 310 717 315 710 l 226 376 l 594 692 b 669 717 621 714 631 717 l 722 717 b 729 678 758 717 761 704 l 401 399 "},"Ĺ":{"ha":721,"x_min":0,"x_max":0,"o":"m 386 1250 b 447 1249 415 1265 436 1265 l 468 1215 b 457 1176 483 1197 481 1186 l 194 1061 b 151 1063 171 1053 157 1053 l 139 1083 b 147 1118 128 1101 129 1108 m 304 986 b 335 950 332 986 340 976 l 189 125 l 626 125 b 657 89 654 125 661 115 l 647 36 b 604 0 643 13 629 0 l 69 0 b 39 36 42 0 35 10 l 200 950 b 243 986 204 974 219 986 "},"ĺ":{"ha":306,"x_min":0,"x_max":0,"o":"m 351 1257 b 407 1251 378 1269 396 1268 l 431 1213 b 419 1175 442 1193 438 1181 l 192 1082 b 150 1085 169 1075 156 1075 l 136 1110 b 146 1146 128 1125 131 1138 m 150 33 b 110 0 146 11 132 0 l 53 0 b 25 33 26 0 21 7 l 194 994 b 235 1028 199 1017 211 1028 l 292 1028 b 318 994 318 1028 324 1018 "},"Ļ":{"ha":721,"x_min":0,"x_max":0,"o":"m 304 986 b 335 950 332 986 340 976 l 189 125 l 626 125 b 657 89 654 125 661 115 l 647 36 b 604 0 643 13 629 0 l 69 0 b 39 36 42 0 35 10 l 200 950 b 243 986 204 974 219 986 m 278 -319 b 235 -351 268 -340 253 -351 l 194 -351 b 176 -326 174 -351 171 -347 l 250 -128 b 296 -93 257 -100 268 -93 l 351 -93 b 378 -128 381 -93 389 -104 "},"ļ":{"ha":306,"x_min":0,"x_max":0,"o":"m 150 33 b 111 0 146 11 133 0 l 53 0 b 26 33 26 0 21 10 l 194 994 b 235 1028 199 1017 213 1028 l 293 1028 b 319 994 317 1028 324 1021 m 36 -293 b -11 -324 26 -314 11 -324 l -42 -324 b -61 -297 -64 -324 -67 -318 l 8 -101 b 58 -62 18 -72 29 -62 l 104 -62 b 126 -101 133 -62 140 -75 "},"Ľ":{"ha":722,"x_min":0,"x_max":0,"o":"m 304 986 b 335 950 332 986 340 976 l 189 125 l 626 125 b 657 89 654 125 661 115 l 647 36 b 604 0 643 13 629 0 l 69 0 b 39 36 42 0 35 10 l 200 950 b 243 986 204 974 219 986 m 585 701 b 542 672 575 682 560 672 l 513 672 b 494 694 492 672 489 676 l 582 953 b 626 986 589 979 599 986 l 678 986 b 701 951 706 986 714 975 "},"ľ":{"ha":315,"x_min":0,"x_max":0,"o":"m 150 33 b 110 0 146 11 132 0 l 53 0 b 25 33 26 0 21 7 l 194 994 b 235 1028 199 1017 211 1028 l 292 1028 b 318 994 318 1028 324 1018 m 451 775 b 413 746 440 756 438 746 l 383 746 b 365 775 365 746 358 756 l 438 994 b 476 1028 444 1018 453 1028 l 519 1028 b 549 993 550 1028 560 1017 "},"Ŀ":{"ha":722,"x_min":0,"x_max":0,"o":"m 304 986 b 335 950 332 986 340 976 l 189 125 l 626 125 b 657 89 654 125 661 115 l 647 36 b 604 0 643 13 629 0 l 69 0 b 39 36 42 0 35 10 l 200 950 b 243 986 204 974 219 986 m 507 592 b 565 522 561 592 575 576 l 563 511 b 479 440 553 457 533 440 l 471 440 b 413 511 417 440 403 457 l 415 522 b 499 592 422 574 444 592 "},"ŀ":{"ha":475,"x_min":0,"x_max":0,"o":"m 150 33 b 110 0 146 11 132 0 l 53 0 b 25 33 26 0 21 7 l 194 994 b 235 1028 199 1017 211 1028 l 292 1028 b 318 994 318 1028 324 1018 m 429 597 b 486 526 483 597 496 581 l 485 517 b 401 446 475 463 456 446 l 392 446 b 335 517 338 446 324 463 l 336 526 b 419 597 346 581 365 597 "},"Ł":{"ha":754,"x_min":0,"x_max":0,"o":"m 664 125 b 693 89 690 125 699 115 l 685 36 b 642 0 681 13 665 0 l 106 0 b 76 36 79 0 71 10 l 136 379 l 36 336 b 3 347 18 326 7 331 l -11 386 b 6 418 -15 401 -10 411 l 154 483 l 238 950 b 279 986 242 974 256 986 l 342 986 b 371 950 368 986 376 976 l 300 544 l 560 658 b 596 646 578 665 589 661 l 608 606 b 590 575 613 590 607 581 l 282 440 l 226 125 "},"ł":{"ha":424,"x_min":0,"x_max":0,"o":"m 449 607 b 433 575 454 593 449 582 l 289 500 l 207 33 b 167 0 203 11 190 0 l 110 0 b 83 33 83 0 78 10 l 153 433 l 69 389 b 33 397 51 379 39 382 l 18 433 b 33 467 14 449 19 460 l 171 538 l 251 994 b 292 1028 256 1017 268 1028 l 349 1028 b 376 994 372 1028 381 1021 l 308 604 l 399 653 b 433 643 421 663 426 660 "},"Ń":{"ha":964,"x_min":0,"x_max":0,"o":"m 697 1250 b 758 1249 726 1265 747 1265 l 779 1215 b 768 1176 792 1197 788 1183 l 504 1061 b 463 1063 482 1053 468 1053 l 450 1083 b 458 1118 439 1101 440 1108 m 926 986 b 957 950 953 986 961 976 l 796 36 b 753 0 792 13 776 0 l 692 0 b 658 18 675 0 664 6 l 367 594 b 319 724 351 628 335 671 b 292 808 303 776 293 804 l 286 808 b 279 711 285 804 283 772 b 263 550 275 649 269 596 l 172 36 b 129 0 168 13 153 0 l 69 0 b 39 36 42 0 35 10 l 200 950 b 243 986 204 974 219 986 l 299 986 b 335 968 315 986 328 981 l 624 401 b 676 265 642 364 660 319 b 704 179 693 211 703 182 l 711 179 b 718 279 713 183 714 217 b 735 447 721 342 726 399 l 824 950 b 867 986 828 974 843 986 "},"ń":{"ha":763,"x_min":0,"x_max":0,"o":"m 544 1006 b 606 1003 575 1021 596 1019 l 626 969 b 615 932 639 951 636 939 l 351 815 b 310 818 329 808 315 810 l 297 838 b 307 874 288 853 290 865 m 186 690 b 460 738 271 722 361 738 b 693 453 649 738 722 632 l 618 33 b 579 0 614 11 601 0 l 521 0 b 494 33 497 0 490 7 l 569 458 b 424 624 589 568 540 624 b 258 599 369 624 314 615 b 238 574 246 594 239 586 l 143 33 b 103 0 139 11 125 0 l 44 0 b 18 33 21 0 14 10 l 119 613 b 186 690 129 657 142 672 "},"Ņ":{"ha":964,"x_min":0,"x_max":0,"o":"m 926 986 b 957 950 953 986 961 976 l 796 36 b 753 0 792 13 776 0 l 692 0 b 658 18 675 0 664 6 l 367 594 b 319 724 351 628 335 671 b 292 808 303 776 293 804 l 286 808 b 279 711 285 804 283 772 b 263 550 275 649 269 596 l 172 36 b 129 0 168 13 153 0 l 69 0 b 39 36 42 0 35 10 l 200 950 b 243 986 204 974 219 986 l 299 986 b 335 968 315 986 328 981 l 624 401 b 676 265 642 364 660 319 b 704 179 693 211 703 182 l 711 179 b 718 279 713 183 714 217 b 735 447 721 342 726 399 l 824 950 b 867 986 828 974 843 986 m 369 -319 b 326 -351 360 -340 344 -351 l 286 -351 b 268 -326 265 -351 263 -347 l 342 -128 b 388 -93 349 -100 360 -93 l 443 -93 b 468 -128 472 -93 481 -104 "},"ņ":{"ha":763,"x_min":0,"x_max":0,"o":"m 186 690 b 460 738 271 722 361 738 b 693 453 649 738 722 632 l 618 33 b 579 0 614 11 601 0 l 521 0 b 494 33 497 0 490 7 l 569 458 b 424 624 589 568 540 624 b 258 599 369 624 314 615 b 238 574 246 594 239 586 l 143 33 b 103 0 139 11 125 0 l 44 0 b 18 33 21 0 14 10 l 119 613 b 186 690 129 657 142 672 m 294 -272 b 247 -303 282 -296 274 -303 l 215 -303 b 196 -278 193 -303 190 -296 l 264 -92 b 313 -54 274 -62 283 -54 l 360 -54 b 382 -92 389 -54 396 -67 "},"Ň":{"ha":964,"x_min":0,"x_max":0,"o":"m 842 1256 b 851 1228 869 1256 868 1242 l 671 1085 b 604 1056 639 1058 631 1056 l 590 1056 b 531 1085 558 1056 554 1057 l 400 1228 b 421 1256 388 1243 393 1256 l 467 1256 b 514 1236 494 1256 501 1253 l 607 1138 l 735 1236 b 793 1256 749 1249 768 1256 m 926 986 b 957 950 953 986 961 976 l 796 36 b 753 0 792 13 776 0 l 692 0 b 658 18 675 0 664 6 l 367 594 b 319 724 351 628 335 671 b 292 808 303 776 293 804 l 286 808 b 279 711 285 804 283 772 b 263 550 275 649 269 596 l 172 36 b 129 0 168 13 153 0 l 69 0 b 39 36 42 0 35 10 l 200 950 b 243 986 204 974 219 986 l 299 986 b 335 968 315 986 328 981 l 624 401 b 676 265 642 364 660 319 b 704 179 693 211 703 182 l 711 179 b 718 279 713 183 714 217 b 735 447 721 342 726 399 l 824 950 b 867 986 828 974 843 986 "},"ň":{"ha":763,"x_min":0,"x_max":0,"o":"m 247 979 b 267 1006 233 997 240 1006 l 311 1006 b 358 988 340 1006 346 1004 l 453 889 l 579 988 b 638 1006 593 1000 613 1006 l 688 1006 b 699 978 714 1006 717 996 l 517 836 b 451 806 483 808 479 806 l 439 806 b 379 836 407 806 401 808 m 460 738 b 693 453 649 738 722 632 l 618 33 b 579 0 614 11 601 0 l 521 0 b 494 33 497 0 490 7 l 569 458 b 424 624 589 568 540 624 b 258 599 369 624 314 615 b 238 574 246 594 239 586 l 143 33 b 103 0 139 11 125 0 l 44 0 b 18 33 21 0 14 10 l 119 613 b 186 690 129 657 142 672 b 460 738 271 722 361 738 "},"ŉ":{"ha":763,"x_min":0,"x_max":0,"o":"m 138 772 b 97 749 125 751 119 749 l 63 749 b 46 772 43 749 38 757 l 163 999 b 203 1028 174 1021 175 1028 l 261 1028 b 283 993 292 1028 299 1017 m 186 690 b 460 738 271 722 361 738 b 693 453 649 738 722 632 l 618 33 b 579 0 614 11 601 0 l 521 0 b 494 33 497 0 490 7 l 569 458 b 424 624 589 568 540 624 b 258 599 369 624 314 615 b 238 574 246 594 239 586 l 143 33 b 103 0 139 11 125 0 l 44 0 b 18 33 21 0 14 10 l 119 613 b 186 690 129 657 142 672 "},"Ŋ":{"ha":965,"x_min":0,"x_max":0,"o":"m 926 986 b 957 950 954 986 963 976 l 788 -14 b 415 -319 754 -208 625 -319 b 388 -286 389 -319 382 -312 l 396 -237 b 436 -204 400 -211 410 -204 b 658 -10 563 -204 636 -139 l 661 13 l 368 594 b 319 725 351 628 335 671 b 293 808 304 778 294 806 l 286 808 b 265 561 285 800 282 658 l 172 36 b 129 0 168 13 153 0 l 69 0 b 39 36 42 0 35 10 l 200 950 b 243 986 204 974 219 986 l 301 986 b 335 968 317 986 328 981 l 624 400 b 678 264 642 363 660 318 b 706 178 694 210 704 181 l 711 178 b 718 278 713 181 714 214 b 736 447 722 342 728 399 l 825 950 b 868 986 829 974 844 986 "},"ŋ":{"ha":763,"x_min":0,"x_max":0,"o":"m 186 690 b 460 738 271 722 361 738 b 693 453 649 738 722 632 l 608 -22 b 247 -319 576 -211 449 -319 b 221 -287 221 -319 215 -311 l 228 -242 b 267 -208 232 -219 244 -208 b 485 -18 390 -208 463 -144 l 569 458 b 424 624 589 568 540 624 b 258 599 369 624 314 615 b 238 574 246 594 239 586 l 143 33 b 103 0 139 11 125 0 l 44 0 b 18 33 21 0 14 10 l 119 613 b 186 690 129 657 142 672 "},"Ō":{"ha":926,"x_min":0,"x_max":0,"o":"m 796 1207 b 822 1176 819 1207 826 1200 l 817 1149 b 781 1117 813 1122 804 1117 l 456 1117 b 429 1149 432 1117 425 1122 l 435 1176 b 471 1207 439 1197 450 1207 m 147 660 b 593 1007 186 882 343 1007 b 921 640 842 1007 960 864 l 865 324 b 421 -21 826 103 671 -21 b 92 343 172 -21 53 121 m 790 651 b 576 882 817 800 739 882 b 281 651 411 882 307 800 l 225 335 b 439 104 199 186 276 104 b 733 335 601 104 707 186 "},"ō":{"ha":751,"x_min":0,"x_max":0,"o":"m 311 857 b 285 888 285 857 281 864 l 290 915 b 326 947 294 936 306 947 l 651 947 b 678 915 675 947 682 942 l 672 888 b 636 857 668 864 660 857 m 450 738 b 717 465 649 738 746 632 l 678 239 b 322 -21 649 72 522 -21 b 54 249 128 -21 26 82 l 94 475 b 450 738 124 640 256 738 m 594 472 b 433 625 611 568 551 625 b 218 472 317 625 236 568 l 179 244 b 339 92 161 149 222 92 b 554 244 457 92 536 149 "},"Ŏ":{"ha":926,"x_min":0,"x_max":0,"o":"m 849 1218 b 611 1072 800 1121 721 1072 b 425 1218 504 1072 438 1124 b 444 1250 422 1233 429 1244 l 490 1265 b 521 1254 508 1271 519 1267 b 626 1163 529 1193 564 1163 b 763 1254 689 1163 733 1193 b 794 1267 771 1267 782 1271 l 839 1250 b 849 1218 856 1240 858 1236 m 147 660 b 593 1007 186 882 343 1007 b 921 640 842 1007 960 864 l 865 324 b 421 -21 826 103 671 -21 b 92 343 172 -21 53 121 m 790 651 b 576 882 817 800 739 882 b 281 651 411 882 307 800 l 225 335 b 439 104 199 186 276 104 b 733 335 601 104 707 186 "},"ŏ":{"ha":751,"x_min":0,"x_max":0,"o":"m 704 957 b 471 811 656 860 578 811 b 281 957 364 811 293 863 b 300 989 276 972 283 982 l 342 1003 b 374 990 360 1008 369 1004 b 481 901 381 931 415 901 b 619 993 543 901 589 932 b 649 1006 626 1006 636 1010 l 696 989 b 704 957 708 982 711 972 m 94 475 b 450 738 124 640 256 738 b 717 465 649 738 746 632 l 678 239 b 322 -21 649 72 522 -21 b 54 249 128 -21 26 82 m 594 472 b 433 625 611 568 551 625 b 218 472 317 625 236 568 l 179 244 b 339 92 161 149 222 92 b 554 244 457 92 536 149 "},"Ő":{"ha":926,"x_min":0,"x_max":0,"o":"m 557 1253 b 615 1275 574 1274 593 1282 l 651 1263 b 656 1225 674 1254 675 1242 l 485 1086 b 443 1072 467 1072 453 1068 l 425 1079 b 419 1113 407 1085 404 1096 m 794 1253 b 854 1275 813 1274 833 1282 l 893 1263 b 897 1225 917 1254 918 1242 l 715 1082 b 674 1068 697 1069 683 1064 l 656 1075 b 650 1108 636 1079 635 1090 m 147 660 b 593 1007 186 882 343 1007 b 921 640 842 1007 960 864 l 865 324 b 421 -21 826 103 671 -21 b 92 343 172 -21 53 121 m 790 651 b 576 882 817 800 739 882 b 281 651 411 882 307 800 l 225 335 b 439 104 199 186 276 104 b 733 335 601 104 707 186 "},"ő":{"ha":751,"x_min":0,"x_max":0,"o":"m 278 810 b 274 843 260 815 258 826 l 411 983 b 469 1006 429 1006 449 1013 l 506 993 b 510 957 528 986 529 974 l 339 818 b 297 804 321 804 307 800 m 747 993 b 751 956 772 985 774 972 l 568 815 b 526 801 550 800 536 796 l 508 807 b 503 840 489 814 488 825 l 650 983 b 710 1006 668 1004 689 1011 m 450 738 b 717 465 649 738 746 632 l 678 239 b 322 -21 649 72 522 -21 b 54 249 128 -21 26 82 l 94 475 b 450 738 124 640 256 738 m 594 472 b 433 625 611 568 551 625 b 218 472 317 625 236 568 l 179 244 b 339 92 161 149 222 92 b 554 244 457 92 536 149 "},"Œ":{"ha":1181,"x_min":0,"x_max":0,"o":"m 1075 125 b 1106 89 1103 125 1110 115 l 1096 36 b 1053 0 1092 13 1078 0 l 575 0 b 417 -21 528 -14 475 -21 b 92 349 171 -21 53 125 l 147 665 b 597 1007 186 886 346 1007 b 749 986 656 1007 706 1000 l 1210 986 b 1240 950 1238 986 1246 976 l 1231 897 b 1189 861 1226 874 1213 861 l 824 861 l 771 561 l 1072 561 b 1101 525 1099 561 1106 553 l 1093 474 b 1049 436 1089 449 1074 436 l 749 436 l 694 125 m 224 335 b 439 104 197 186 274 104 b 560 122 488 104 528 110 l 690 864 b 575 882 660 876 621 882 b 281 651 413 882 307 800 "},"œ":{"ha":1121,"x_min":0,"x_max":0,"o":"m 632 614 b 872 738 689 696 769 738 b 1107 497 1050 738 1136 651 b 801 294 1081 365 972 294 b 629 314 751 294 694 301 l 619 254 b 751 88 601 149 644 88 b 936 178 832 88 893 118 b 988 192 953 200 969 204 l 1021 168 b 1022 115 1039 156 1040 138 b 732 -21 958 25 861 -21 b 538 86 633 -21 568 15 b 296 -21 478 15 397 -21 b 57 251 117 -21 29 85 l 97 479 b 428 738 126 644 246 738 b 632 614 540 738 608 696 m 985 500 b 854 632 1003 588 960 632 b 654 457 749 632 675 568 l 647 411 b 818 390 710 397 767 390 b 985 500 913 390 968 426 m 542 454 b 410 625 560 564 511 625 b 221 472 308 625 238 568 l 181 244 b 315 92 163 149 214 92 b 508 264 417 92 490 157 "},"Ŕ":{"ha":897,"x_min":0,"x_max":0,"o":"m 660 1250 b 722 1249 689 1265 710 1265 l 743 1215 b 731 1176 756 1197 751 1183 l 468 1061 b 425 1063 444 1053 431 1053 l 414 1083 b 421 1118 401 1101 403 1108 m 632 986 b 879 681 819 986 914 868 b 628 414 854 535 771 446 b 683 336 653 399 671 374 l 785 38 b 760 0 793 13 785 0 l 699 0 b 631 32 653 0 638 6 l 550 286 b 500 374 538 329 521 358 b 393 396 479 389 444 396 l 238 396 l 174 36 b 131 0 169 13 154 0 l 69 0 b 39 36 42 0 35 10 l 200 950 b 243 986 204 974 219 986 m 740 690 b 599 861 761 800 710 861 l 319 861 l 258 521 l 539 521 b 740 690 649 521 722 583 "},"ŕ":{"ha":481,"x_min":0,"x_max":0,"o":"m 456 1006 b 517 1003 485 1019 506 1018 l 538 969 b 526 932 550 951 547 939 l 263 815 b 221 817 240 807 226 807 l 208 838 b 217 874 199 853 201 865 m 449 738 l 493 738 b 521 704 517 738 525 728 l 513 657 b 474 624 508 635 496 624 l 426 624 b 261 600 369 624 314 615 b 238 572 247 594 239 585 l 143 33 b 103 0 139 11 125 0 l 44 0 b 18 33 21 0 14 10 l 121 617 b 188 694 131 661 143 676 b 449 738 264 721 350 736 "},"Ŗ":{"ha":897,"x_min":0,"x_max":0,"o":"m 632 986 b 879 681 819 986 914 868 b 628 414 854 535 771 446 b 683 336 653 399 671 374 l 785 38 b 760 0 793 13 785 0 l 699 0 b 631 32 653 0 638 6 l 550 286 b 500 374 538 329 521 358 b 393 396 479 389 444 396 l 238 396 l 174 36 b 131 0 169 13 154 0 l 69 0 b 39 36 42 0 35 10 l 200 950 b 243 986 204 974 219 986 m 740 690 b 599 861 761 800 710 861 l 319 861 l 258 521 l 539 521 b 740 690 649 521 722 583 m 349 -319 b 304 -351 338 -340 322 -351 l 264 -351 b 247 -326 243 -351 240 -347 l 319 -128 b 365 -93 326 -100 338 -93 l 422 -93 b 447 -128 451 -93 460 -104 "},"ŗ":{"ha":481,"x_min":0,"x_max":0,"o":"m 450 738 l 493 738 b 521 704 519 738 526 728 l 514 657 b 475 624 510 635 496 624 l 426 624 b 261 600 371 624 315 615 b 238 572 249 596 240 586 l 143 33 b 104 0 139 11 126 0 l 46 0 b 19 33 19 0 14 10 l 121 617 b 188 694 131 661 143 676 b 450 738 264 721 351 736 m 46 -279 b -1 -311 36 -300 21 -311 l -35 -311 b -54 -285 -57 -311 -60 -306 l 13 -94 b 61 -57 19 -65 32 -57 l 108 -57 b 131 -94 135 -57 143 -69 "},"Ř":{"ha":897,"x_min":0,"x_max":0,"o":"m 804 1256 b 814 1228 832 1256 832 1243 l 633 1085 b 567 1056 601 1058 594 1056 l 553 1056 b 494 1085 521 1056 517 1057 l 363 1228 b 383 1256 350 1243 357 1256 l 429 1256 b 478 1236 457 1256 463 1254 l 571 1138 l 697 1236 b 756 1256 711 1249 731 1256 m 632 986 b 879 681 819 986 914 868 b 628 414 854 535 771 446 b 683 336 653 399 671 374 l 785 38 b 760 0 793 13 785 0 l 699 0 b 631 32 653 0 638 6 l 550 286 b 500 374 538 329 521 358 b 393 396 479 389 444 396 l 238 396 l 174 36 b 131 0 169 13 154 0 l 69 0 b 39 36 42 0 35 10 l 200 950 b 243 986 204 974 219 986 m 740 690 b 599 861 761 800 710 861 l 319 861 l 258 521 l 539 521 b 740 690 649 521 722 583 "},"ř":{"ha":481,"x_min":0,"x_max":0,"o":"m 599 1006 b 610 978 625 1006 628 996 l 428 835 b 363 806 396 808 389 806 l 350 806 b 289 835 317 806 311 807 l 158 978 b 178 1006 146 993 151 1006 l 222 1006 b 269 986 250 1006 258 1003 l 364 888 l 490 986 b 547 1006 504 999 524 1006 m 493 738 b 521 704 517 738 525 728 l 513 657 b 474 624 508 635 496 624 l 426 624 b 261 600 369 624 314 615 b 238 572 247 594 239 585 l 143 33 b 103 0 139 11 125 0 l 44 0 b 18 33 21 0 14 10 l 121 617 b 188 694 131 661 143 676 b 449 738 264 721 350 736 "},"Ś":{"ha":865,"x_min":0,"x_max":0,"o":"m 657 1264 b 718 1261 686 1279 707 1279 l 739 1228 b 728 1190 751 1210 747 1197 l 464 1074 b 422 1076 443 1065 429 1067 l 410 1096 b 418 1132 400 1111 403 1124 m 126 736 b 538 1007 158 910 300 1007 b 857 792 721 1007 813 931 b 831 747 864 768 858 758 l 772 722 b 728 739 746 711 738 715 b 518 878 699 829 639 878 b 260 725 364 878 278 826 b 322 603 250 665 271 625 b 497 561 372 579 418 571 b 721 489 590 550 656 532 b 794 258 786 444 813 365 b 368 -21 763 72 619 -21 b 22 217 171 -21 56 58 b 53 264 18 240 29 256 l 115 285 b 157 263 142 294 150 289 b 381 106 183 158 257 106 b 661 275 547 106 640 163 b 579 406 672 346 640 385 b 442 433 535 421 503 426 b 249 481 365 440 313 451 b 171 535 217 496 190 514 b 126 736 132 576 110 647 "},"ś":{"ha":690,"x_min":0,"x_max":0,"o":"m 521 1006 b 582 1003 551 1021 572 1019 l 603 969 b 592 932 615 951 613 939 l 328 815 b 286 818 304 808 290 808 l 274 838 b 283 874 264 853 267 865 m 83 529 b 399 738 106 663 215 738 b 660 588 543 738 631 688 b 636 539 667 564 660 549 l 590 521 b 546 536 564 511 557 514 b 382 625 526 596 472 625 b 206 525 278 625 218 592 b 263 432 197 472 215 444 b 374 415 296 422 319 421 b 558 360 456 406 510 392 b 611 192 607 326 626 271 b 283 -21 588 57 474 -21 b 7 150 124 -21 32 36 b 36 194 3 171 13 186 l 88 211 b 128 190 111 218 118 214 b 297 90 149 117 203 90 b 490 196 413 90 478 125 b 324 306 503 274 453 293 b 83 529 186 319 53 353 "},"Ŝ":{"ha":865,"x_min":0,"x_max":0,"o":"m 603 1269 b 658 1240 629 1269 635 1269 l 790 1097 b 769 1071 803 1079 796 1071 l 725 1071 b 674 1089 700 1071 683 1076 l 583 1188 l 454 1089 b 399 1071 440 1076 422 1071 l 349 1071 b 338 1097 322 1071 319 1082 l 519 1240 b 589 1269 551 1268 557 1269 m 126 736 b 538 1007 158 910 300 1007 b 857 792 721 1007 813 931 b 831 747 864 768 858 758 l 772 722 b 728 739 746 711 738 715 b 518 878 699 829 639 878 b 260 725 364 878 278 826 b 322 603 250 665 271 625 b 497 561 372 579 418 571 b 721 489 590 550 656 532 b 794 258 786 444 813 365 b 368 -21 763 72 619 -21 b 22 217 171 -21 56 58 b 53 264 18 240 29 256 l 115 285 b 157 263 142 294 150 289 b 381 106 183 158 257 106 b 661 275 547 106 640 163 b 579 406 672 346 640 385 b 442 433 535 421 503 426 b 249 481 365 440 313 451 b 171 535 217 496 190 514 b 126 736 132 576 110 647 "},"ŝ":{"ha":690,"x_min":0,"x_max":0,"o":"m 213 808 b 200 835 185 808 181 817 l 383 978 b 453 1007 415 1006 419 1007 l 465 1007 b 522 978 493 1007 500 1006 l 653 835 b 632 808 667 817 660 808 l 590 808 b 539 826 565 808 549 814 l 447 926 l 319 826 b 265 808 304 814 286 808 m 660 588 b 636 539 667 564 660 549 l 590 521 b 546 536 564 511 557 514 b 382 625 526 596 472 625 b 206 525 278 625 218 592 b 263 432 197 472 215 444 b 374 415 296 422 319 421 b 558 360 456 406 510 392 b 611 192 607 326 626 271 b 283 -21 588 57 474 -21 b 7 150 124 -21 32 36 b 36 194 3 171 13 186 l 88 211 b 128 190 111 218 118 214 b 297 90 149 117 203 90 b 490 196 413 90 478 125 b 324 306 503 274 453 293 b 83 529 186 319 53 353 b 399 738 106 663 215 738 b 660 588 543 738 631 688 "},"Ş":{"ha":865,"x_min":0,"x_max":0,"o":"m 126 736 b 538 1007 158 910 300 1007 b 857 792 721 1007 813 931 b 831 747 864 768 858 758 l 772 722 b 728 739 746 711 738 715 b 518 878 699 829 639 878 b 260 725 364 878 278 826 b 322 603 250 665 271 625 b 497 561 372 579 418 571 b 721 489 590 550 656 532 b 794 258 786 444 813 365 b 428 -18 765 89 643 -3 l 383 -103 b 410 -100 393 -101 401 -100 b 511 -219 492 -100 529 -149 b 314 -347 490 -304 410 -347 b 211 -321 274 -347 239 -339 b 197 -289 199 -314 194 -303 l 203 -256 b 222 -242 204 -240 211 -235 b 311 -271 249 -261 279 -271 b 410 -206 369 -271 403 -249 b 343 -154 415 -171 393 -154 b 301 -158 328 -154 314 -156 b 289 -131 281 -160 278 -151 l 351 -21 b 22 217 165 -17 56 63 b 53 264 18 240 29 256 l 115 285 b 157 263 142 294 150 289 b 381 106 183 158 257 106 b 661 275 547 106 640 163 b 579 406 672 346 640 385 b 442 433 535 421 503 426 b 249 481 365 440 313 451 b 171 535 217 496 190 514 b 126 736 132 576 110 647 "},"ş":{"ha":690,"x_min":0,"x_max":0,"o":"m 83 529 b 399 738 106 663 215 738 b 660 588 543 738 631 688 b 636 539 667 564 660 549 l 590 521 b 546 536 564 511 557 514 b 382 625 526 596 472 625 b 206 525 278 625 218 592 b 263 432 197 472 215 444 b 374 415 296 422 319 421 b 558 360 456 406 510 392 b 611 192 607 326 626 271 b 340 -17 589 67 499 -3 l 293 -101 b 319 -99 304 -100 313 -99 b 421 -218 401 -99 439 -147 b 225 -346 400 -303 321 -346 b 121 -319 183 -346 149 -337 b 107 -287 108 -314 104 -303 l 113 -254 b 132 -240 114 -239 121 -233 b 222 -269 161 -260 190 -269 b 319 -204 279 -269 313 -247 b 253 -153 326 -171 301 -153 b 211 -157 238 -153 224 -154 b 199 -129 190 -158 188 -150 l 263 -19 b 7 150 115 -15 31 42 b 36 194 3 171 13 186 l 88 211 b 128 190 111 218 118 214 b 297 90 149 117 203 90 b 490 196 413 90 478 125 b 324 306 503 274 453 293 b 83 529 186 319 53 353 "},"Š":{"ha":865,"x_min":0,"x_max":0,"o":"m 801 1269 b 811 1242 829 1269 828 1256 l 631 1099 b 564 1069 599 1071 592 1069 l 550 1069 b 492 1099 518 1069 514 1071 l 360 1242 b 381 1269 347 1254 354 1269 l 426 1269 b 474 1250 454 1269 461 1268 l 568 1151 l 694 1250 b 753 1269 708 1263 728 1269 m 126 736 b 538 1007 158 910 300 1007 b 857 792 721 1007 813 931 b 831 747 864 768 858 758 l 772 722 b 728 739 746 711 738 715 b 518 878 699 829 639 878 b 260 725 364 878 278 826 b 322 603 250 665 271 625 b 497 561 372 579 418 571 b 721 489 590 550 656 532 b 794 258 786 444 813 365 b 368 -21 763 72 619 -21 b 22 217 171 -21 56 58 b 53 264 18 240 29 256 l 115 285 b 157 263 142 294 150 289 b 381 106 183 158 257 106 b 661 275 547 106 640 163 b 579 406 672 346 640 385 b 442 433 535 421 503 426 b 249 481 365 440 313 451 b 171 535 217 496 190 514 b 126 736 132 576 110 647 "},"š":{"ha":690,"x_min":0,"x_max":0,"o":"m 664 1006 b 675 978 690 1006 693 996 l 493 836 b 428 806 461 808 454 806 l 415 806 b 354 836 383 806 378 808 l 224 979 b 243 1006 210 997 217 1006 l 288 1006 b 335 988 310 1006 325 1000 l 429 889 l 556 988 b 614 1006 569 1000 589 1006 m 399 738 b 660 588 543 738 631 688 b 636 539 667 564 660 549 l 590 521 b 546 536 564 511 557 514 b 382 625 526 596 472 625 b 206 525 278 625 218 592 b 263 432 197 472 215 444 b 374 415 296 422 319 421 b 558 360 456 406 510 392 b 611 192 607 326 626 271 b 283 -21 588 57 474 -21 b 7 150 124 -21 32 36 b 36 194 3 171 13 186 l 88 211 b 128 190 111 218 118 214 b 297 90 149 117 203 90 b 490 196 413 90 478 125 b 324 306 503 274 453 293 b 83 529 186 319 53 353 b 399 738 106 663 215 738 "},"Ť":{"ha":765,"x_min":0,"x_max":0,"o":"m 740 1256 b 751 1228 768 1256 768 1243 l 569 1085 b 503 1056 540 1058 531 1056 l 490 1056 b 431 1085 457 1056 453 1057 l 299 1228 b 321 1256 288 1243 293 1256 l 367 1256 b 414 1236 394 1256 401 1253 l 507 1138 l 635 1236 b 692 1256 649 1249 668 1256 m 813 986 b 843 950 840 986 849 976 l 833 897 b 792 861 829 874 815 861 l 529 861 l 383 36 b 340 0 379 13 365 0 l 279 0 b 250 36 253 0 244 10 l 396 861 l 133 861 b 103 897 106 861 99 871 l 113 950 b 154 986 117 974 131 986 "},"ť":{"ha":510,"x_min":0,"x_max":0,"o":"m 542 807 b 499 778 529 788 515 778 l 468 778 b 451 800 450 778 446 782 l 514 994 b 560 1028 519 1017 535 1028 l 610 1028 b 633 994 639 1028 646 1017 m 331 883 b 357 850 354 883 361 874 l 333 717 l 515 717 b 542 683 542 717 547 707 l 533 635 b 496 601 529 608 519 601 l 314 601 l 257 278 b 269 132 244 204 249 156 b 404 97 290 108 335 97 b 432 64 431 97 438 90 l 424 14 b 383 -19 418 -12 410 -18 b 158 40 271 -22 196 -3 b 132 275 121 83 111 161 l 190 601 l 75 601 b 47 635 49 601 43 611 l 56 683 b 94 717 60 706 72 717 l 210 717 l 233 850 b 272 883 238 872 250 883 "},"Ŧ":{"ha":794,"x_min":0,"x_max":0,"o":"m 828 986 b 858 950 854 986 863 976 l 849 897 b 806 861 844 874 831 861 l 543 861 l 481 504 l 663 504 b 681 481 681 504 685 499 l 672 432 b 644 407 668 411 663 407 l 463 407 l 399 36 b 356 0 394 13 379 0 l 294 0 b 264 36 267 0 260 10 l 329 407 l 147 407 b 131 432 132 407 126 415 l 139 481 b 165 504 142 496 150 504 l 347 504 l 410 861 l 147 861 b 117 897 119 861 113 871 l 126 950 b 169 986 131 974 146 986 "},"ŧ":{"ha":514,"x_min":0,"x_max":0,"o":"m 333 885 b 361 851 360 885 365 875 l 338 718 l 519 718 b 546 685 543 718 550 708 l 538 636 b 499 603 533 614 521 603 l 318 603 l 283 413 l 428 413 b 446 389 446 413 450 407 l 440 349 b 413 325 436 331 431 325 l 268 325 l 260 276 b 272 133 247 203 251 156 b 407 99 293 110 338 99 b 436 65 433 99 440 92 l 426 15 b 388 -18 422 -7 410 -18 b 163 42 275 -21 200 -1 b 136 275 125 83 115 161 l 144 325 l 46 325 b 28 349 28 325 24 331 l 33 389 b 61 413 38 404 46 413 l 160 413 l 193 603 l 78 603 b 50 636 56 603 46 614 l 60 685 b 99 718 64 707 76 718 l 214 718 l 236 851 b 275 885 240 874 254 885 "},"Ũ":{"ha":951,"x_min":0,"x_max":0,"o":"m 839 1233 b 856 1213 853 1233 858 1226 b 718 1067 838 1111 796 1067 b 540 1154 639 1067 596 1154 b 483 1088 510 1154 490 1132 b 460 1067 481 1074 472 1067 l 424 1067 b 407 1088 410 1067 404 1074 b 543 1233 424 1185 469 1233 b 724 1146 628 1233 669 1146 b 779 1213 753 1146 772 1168 b 803 1233 782 1226 790 1233 m 246 336 b 451 104 219 190 290 104 b 738 336 613 104 711 190 l 846 950 b 889 986 850 974 865 986 l 950 986 b 981 950 978 986 986 976 l 869 324 b 432 -21 831 103 682 -21 b 167 82 310 -21 221 14 b 114 350 111 150 93 239 l 221 950 b 263 986 225 974 239 986 l 324 986 b 354 950 351 986 360 976 "},"ũ":{"ha":764,"x_min":0,"x_max":0,"o":"m 692 992 b 708 971 707 992 713 985 b 572 825 692 869 650 825 b 393 911 493 825 449 911 b 338 846 364 911 344 889 b 314 825 335 832 326 825 l 278 825 b 260 846 263 825 257 832 b 396 992 276 943 322 992 b 497 949 431 992 464 978 b 576 904 531 919 557 904 b 633 971 607 904 626 926 b 657 992 636 985 644 992 m 724 717 b 750 683 747 717 754 707 l 649 104 b 582 26 639 60 626 44 b 308 -21 492 -6 401 -21 b 75 264 119 -21 46 85 l 150 683 b 189 717 154 706 167 717 l 247 717 b 274 683 271 717 278 710 l 199 258 b 344 93 179 149 228 93 b 506 117 399 93 453 101 b 532 149 521 124 529 133 l 625 683 b 665 717 629 706 643 717 "},"Ū":{"ha":951,"x_min":0,"x_max":0,"o":"m 806 1193 b 832 1163 829 1193 836 1186 l 826 1135 b 790 1103 822 1108 814 1103 l 465 1103 b 439 1135 442 1103 435 1108 l 444 1163 b 481 1193 449 1183 460 1193 m 246 336 b 451 104 219 190 290 104 b 738 336 613 104 711 190 l 846 950 b 889 986 850 974 865 986 l 950 986 b 981 950 978 986 986 976 l 869 324 b 432 -21 831 103 682 -21 b 167 82 310 -21 221 14 b 114 350 111 150 93 239 l 221 950 b 263 986 225 974 239 986 l 324 986 b 354 950 351 986 360 976 "},"ū":{"ha":764,"x_min":0,"x_max":0,"o":"m 658 947 b 685 915 682 947 689 942 l 679 888 b 643 857 675 864 667 857 l 318 857 b 292 888 292 857 288 864 l 297 915 b 333 947 301 936 313 947 m 724 717 b 750 683 747 717 754 707 l 649 104 b 582 26 639 60 626 44 b 308 -21 492 -6 401 -21 b 75 264 119 -21 46 85 l 150 683 b 189 717 154 706 167 717 l 247 717 b 274 683 271 717 278 710 l 199 258 b 344 93 179 149 228 93 b 506 117 399 93 453 101 b 532 149 521 124 529 133 l 625 683 b 665 717 629 706 643 717 "},"Ŭ":{"ha":951,"x_min":0,"x_max":0,"o":"m 858 1204 b 621 1058 810 1107 731 1058 b 435 1204 514 1058 447 1110 b 454 1236 432 1219 439 1231 l 500 1251 b 531 1240 518 1257 529 1253 b 636 1149 539 1179 574 1149 b 772 1240 697 1149 743 1179 b 804 1253 781 1253 792 1257 l 849 1236 b 858 1204 865 1226 868 1222 m 246 336 b 451 104 219 190 290 104 b 738 336 613 104 711 190 l 846 950 b 889 986 850 974 865 986 l 950 986 b 981 950 978 986 986 976 l 869 324 b 432 -21 831 103 682 -21 b 167 82 310 -21 221 14 b 114 350 111 150 93 239 l 221 950 b 263 986 225 974 239 986 l 324 986 b 354 950 351 986 360 976 "},"ŭ":{"ha":764,"x_min":0,"x_max":0,"o":"m 711 957 b 478 811 663 860 585 811 b 288 957 371 811 300 863 b 307 989 283 972 290 982 l 349 1003 b 381 990 367 1008 376 1004 b 488 901 388 931 422 901 b 626 993 550 901 596 932 b 656 1006 633 1006 643 1010 l 703 989 b 711 957 715 982 718 972 m 724 717 b 750 683 747 717 754 707 l 649 104 b 582 26 639 60 626 44 b 308 -21 492 -6 401 -21 b 75 264 119 -21 46 85 l 150 683 b 189 717 154 706 167 717 l 247 717 b 274 683 271 717 278 710 l 199 258 b 344 93 179 149 228 93 b 506 117 399 93 453 101 b 532 149 521 124 529 133 l 625 683 b 665 717 629 706 643 717 "},"Ů":{"ha":951,"x_min":0,"x_max":0,"o":"m 501 1172 b 672 1314 514 1257 585 1314 b 790 1172 757 1314 806 1257 b 622 1032 775 1089 707 1032 b 501 1172 535 1032 486 1089 m 726 1172 b 663 1251 733 1221 711 1251 b 565 1172 611 1251 575 1221 b 635 1094 556 1124 583 1094 b 726 1172 683 1094 719 1126 m 246 336 b 451 104 219 190 290 104 b 738 336 613 104 711 190 l 846 950 b 889 986 850 974 865 986 l 950 986 b 981 950 978 986 986 976 l 869 324 b 432 -21 831 103 682 -21 b 167 82 310 -21 221 14 b 114 350 111 150 93 239 l 221 950 b 263 986 225 974 239 986 l 324 986 b 354 950 351 986 360 976 "},"ů":{"ha":764,"x_min":0,"x_max":0,"o":"m 347 900 b 518 1042 360 985 431 1042 b 636 899 603 1042 651 983 b 469 758 624 815 554 758 b 347 900 382 758 332 817 m 572 899 b 508 978 582 947 557 978 b 411 899 458 978 418 949 b 479 821 401 853 429 821 b 572 899 528 821 565 853 m 724 717 b 750 683 747 717 754 707 l 649 104 b 582 26 639 60 626 44 b 308 -21 492 -6 401 -21 b 75 264 119 -21 46 85 l 150 683 b 189 717 154 706 167 717 l 247 717 b 274 683 271 717 278 710 l 199 258 b 344 93 179 149 228 93 b 506 117 399 93 453 101 b 532 149 521 124 529 133 l 625 683 b 665 717 629 706 643 717 "},"Ű":{"ha":951,"x_min":0,"x_max":0,"o":"m 567 1239 b 625 1261 583 1260 603 1268 l 661 1249 b 665 1211 683 1240 685 1228 l 494 1072 b 453 1058 476 1058 463 1054 l 435 1065 b 429 1099 417 1071 414 1082 m 804 1239 b 864 1261 822 1260 843 1268 l 903 1249 b 907 1211 926 1240 928 1228 l 725 1068 b 683 1054 707 1056 693 1050 l 665 1061 b 660 1094 646 1065 644 1076 m 246 336 b 451 104 219 190 290 104 b 738 336 613 104 711 190 l 846 950 b 889 986 850 974 865 986 l 950 986 b 981 950 978 986 986 976 l 869 324 b 432 -21 831 103 682 -21 b 167 82 310 -21 221 14 b 114 350 111 150 93 239 l 221 950 b 263 986 225 974 239 986 l 324 986 b 354 950 351 986 360 976 "},"ű":{"ha":764,"x_min":0,"x_max":0,"o":"m 418 983 b 476 1006 436 1006 456 1013 l 513 993 b 517 957 535 986 536 974 l 346 818 b 304 804 328 804 314 800 l 285 810 b 281 843 267 815 265 826 m 657 983 b 717 1006 675 1004 696 1011 l 754 993 b 758 956 779 985 781 972 l 575 815 b 533 801 557 800 543 796 l 515 807 b 510 840 496 814 494 825 m 724 717 b 750 683 747 717 754 707 l 649 104 b 582 26 639 60 626 44 b 308 -21 492 -6 401 -21 b 75 264 119 -21 46 85 l 150 683 b 189 717 154 706 167 717 l 247 717 b 274 683 271 717 278 710 l 199 258 b 344 93 179 149 228 93 b 506 117 399 93 453 101 b 532 149 521 124 529 133 l 625 683 b 665 717 629 706 643 717 "},"Ų":{"ha":951,"x_min":0,"x_max":0,"o":"m 950 986 b 981 950 978 986 986 976 l 869 324 b 700 47 849 204 792 113 b 554 -99 635 1 586 -47 b 510 -214 521 -150 506 -187 b 549 -250 514 -237 528 -250 b 608 -225 569 -250 589 -242 b 628 -231 619 -218 626 -221 l 639 -275 b 632 -299 642 -285 639 -293 b 496 -342 599 -328 553 -342 b 394 -254 439 -342 399 -311 b 546 -8 389 -186 442 -92 b 432 -21 511 -17 474 -21 b 167 82 310 -21 221 14 b 114 350 111 150 93 239 l 221 950 b 263 986 225 974 239 986 l 324 986 b 354 950 351 986 360 976 l 246 336 b 451 104 219 190 290 104 b 738 336 613 104 711 190 l 846 950 b 889 986 850 974 865 986 "},"ų":{"ha":764,"x_min":0,"x_max":0,"o":"m 725 717 b 751 683 749 717 756 707 l 650 104 b 621 47 644 78 635 60 b 496 -103 568 -1 526 -51 b 454 -215 465 -154 451 -192 b 493 -249 457 -237 469 -249 b 553 -226 515 -249 535 -242 b 572 -232 564 -218 571 -219 l 582 -268 b 575 -292 585 -278 582 -286 b 439 -342 536 -325 490 -342 b 338 -265 374 -342 340 -317 b 496 3 332 -194 394 -85 b 310 -21 440 -12 378 -21 b 76 265 121 -21 44 86 l 151 683 b 190 717 156 706 168 717 l 249 717 b 275 683 272 717 279 710 l 200 258 b 346 93 181 149 229 93 b 507 117 400 93 454 101 b 533 149 522 124 531 133 l 626 683 b 667 717 631 706 644 717 "},"Ŵ":{"ha":1232,"x_min":0,"x_max":0,"o":"m 782 1257 b 838 1228 810 1257 815 1254 l 969 1085 b 949 1057 982 1067 975 1057 l 904 1057 b 854 1076 879 1057 863 1064 l 763 1175 l 633 1076 b 579 1057 618 1064 600 1057 l 528 1057 b 517 1085 500 1057 496 1067 l 699 1228 b 768 1257 732 1256 736 1257 m 1281 986 b 1299 950 1307 986 1310 976 l 901 31 b 850 0 893 10 876 0 l 788 0 b 747 29 761 0 747 10 l 689 647 b 689 792 685 692 685 740 l 682 792 b 631 647 671 749 654 700 l 353 31 b 300 0 343 10 326 0 l 240 0 b 201 29 213 0 203 6 l 125 950 b 156 986 121 976 129 986 l 226 986 b 269 954 258 986 268 981 l 310 353 b 306 186 311 328 310 272 l 311 186 b 369 351 338 268 357 324 l 639 943 b 693 975 649 964 667 975 l 747 975 b 790 943 775 975 789 964 l 847 351 b 849 186 851 311 853 256 l 856 186 b 908 350 871 243 889 299 l 1158 954 b 1213 986 1169 981 1181 986 "},"ŵ":{"ha":1014,"x_min":0,"x_max":0,"o":"m 372 807 b 360 835 344 807 343 822 l 543 978 b 613 1007 575 1006 579 1007 l 626 1007 b 682 978 653 1007 660 1004 l 813 835 b 792 807 825 822 819 807 l 750 807 b 700 826 725 807 708 814 l 607 926 l 479 826 b 425 807 465 814 447 807 m 1013 717 b 1032 678 1044 717 1047 707 l 725 26 b 675 -3 717 7 700 -3 l 633 -3 b 593 26 607 -3 594 7 l 542 436 b 536 565 536 488 538 560 l 532 565 b 482 436 506 496 489 453 l 286 26 b 235 -3 276 7 258 -3 l 199 -3 b 158 26 174 -3 160 7 l 78 678 b 113 717 74 710 81 717 l 151 717 b 204 683 192 717 204 711 l 243 307 b 243 186 244 275 243 214 b 243 151 242 172 242 161 l 247 151 b 271 217 249 156 257 176 b 307 308 285 256 297 286 l 488 672 b 547 707 500 700 510 707 l 571 707 b 619 674 610 707 615 701 l 669 311 b 675 186 675 274 675 214 b 675 151 674 171 674 160 l 681 151 b 701 213 682 153 689 174 b 736 310 714 250 725 283 l 906 683 b 971 717 918 711 931 717 "},"Ŷ":{"ha":876,"x_min":0,"x_max":0,"o":"m 604 1257 b 661 1228 632 1257 639 1254 l 792 1085 b 771 1057 806 1067 799 1057 l 726 1057 b 676 1076 703 1057 686 1064 l 586 1175 l 456 1076 b 401 1057 442 1064 424 1057 l 351 1057 b 339 1085 325 1057 321 1067 l 522 1228 b 592 1257 554 1256 558 1257 m 944 986 b 957 950 971 986 974 968 l 507 394 l 443 36 b 401 0 439 13 425 0 l 339 0 b 310 36 313 0 304 10 l 372 397 l 118 950 b 143 986 108 968 117 986 l 215 986 b 281 954 261 986 269 983 l 465 533 l 797 954 b 874 986 818 983 828 986 "},"ŷ":{"ha":767,"x_min":0,"x_max":0,"o":"m 257 807 b 246 835 231 807 229 822 l 429 978 b 499 1007 461 1006 465 1007 l 511 1007 b 568 978 539 1007 546 1004 l 699 835 b 678 807 711 822 706 807 l 636 807 b 585 826 611 807 594 814 l 493 926 l 365 826 b 311 807 350 814 332 807 m 718 717 b 744 683 744 717 750 707 l 618 -35 b 267 -335 583 -235 465 -335 b 13 -192 135 -335 50 -287 b 35 -137 0 -168 8 -150 l 76 -118 b 128 -131 104 -106 115 -108 b 283 -224 151 -193 204 -224 b 493 -40 401 -224 471 -162 l 507 35 b 307 6 431 15 364 6 b 76 290 119 6 44 111 l 144 683 b 183 717 149 706 161 717 l 242 717 b 268 683 268 717 274 707 l 199 285 b 344 119 178 174 224 119 b 526 149 401 119 461 129 l 621 683 b 660 717 625 706 638 717 "},"Ÿ":{"ha":876,"x_min":0,"x_max":0,"o":"m 456 1215 b 504 1158 500 1215 511 1201 l 501 1146 b 433 1089 492 1103 478 1089 l 424 1089 b 376 1146 379 1089 369 1101 l 379 1158 b 446 1215 386 1201 403 1215 m 729 1215 b 776 1158 772 1215 786 1201 l 775 1146 b 706 1089 765 1103 750 1089 l 697 1089 b 649 1146 653 1089 642 1103 l 651 1158 b 719 1215 658 1201 675 1215 m 944 986 b 957 950 971 986 974 968 l 507 394 l 443 36 b 401 0 439 13 425 0 l 339 0 b 310 36 313 0 304 10 l 372 397 l 118 950 b 143 986 108 968 117 986 l 215 986 b 281 954 261 986 269 983 l 465 533 l 797 954 b 874 986 818 983 828 986 "},"Ź":{"ha":793,"x_min":0,"x_max":0,"o":"m 619 1250 b 682 1249 649 1265 669 1265 l 703 1215 b 690 1176 715 1197 711 1183 l 428 1061 b 385 1063 404 1053 390 1053 l 374 1083 b 381 1118 361 1101 363 1108 m 808 986 b 839 950 836 986 844 976 l 831 899 b 811 860 826 881 819 868 l 161 125 l 669 125 b 699 89 696 125 704 117 l 690 36 b 647 0 686 13 671 0 l 10 0 b -19 36 -17 0 -25 10 l -11 88 b 8 128 -8 103 -1 115 l 657 861 l 168 861 b 138 897 142 861 133 871 l 147 950 b 190 986 151 974 167 986 "},"ź":{"ha":636,"x_min":0,"x_max":0,"o":"m 492 1006 b 553 1003 521 1019 542 1018 l 574 969 b 563 932 586 951 583 939 l 299 815 b 256 817 276 807 263 807 l 244 838 b 253 874 235 853 238 865 m 515 113 b 542 79 539 113 546 106 l 535 33 b 496 0 531 11 517 0 l 3 0 b -24 33 -24 0 -29 10 l -17 79 b 3 114 -12 93 -7 104 l 468 604 l 115 604 b 89 638 92 604 85 614 l 96 683 b 135 717 100 706 114 717 l 615 717 b 642 683 642 717 647 707 l 635 638 b 615 600 633 626 626 614 l 147 113 "},"Ż":{"ha":793,"x_min":0,"x_max":0,"o":"m 551 1214 b 601 1154 597 1214 608 1200 l 599 1144 b 529 1085 592 1099 575 1085 l 522 1085 b 472 1144 476 1085 465 1099 l 475 1154 b 544 1214 485 1200 499 1214 m 808 986 b 839 950 836 986 844 976 l 831 899 b 811 860 826 881 819 868 l 161 125 l 669 125 b 699 89 696 125 704 117 l 690 36 b 647 0 686 13 671 0 l 10 0 b -19 36 -17 0 -25 10 l -11 88 b 8 128 -8 103 -1 115 l 657 861 l 168 861 b 138 897 142 861 133 871 l 147 950 b 190 986 151 974 167 986 "},"ż":{"ha":636,"x_min":0,"x_max":0,"o":"m 422 967 b 472 907 468 967 479 953 l 471 897 b 400 838 464 851 446 838 l 393 838 b 344 897 347 838 335 851 l 346 907 b 415 967 353 953 369 967 m 515 113 b 542 79 539 113 546 106 l 535 33 b 496 0 531 11 517 0 l 3 0 b -24 33 -24 0 -29 10 l -17 79 b 3 114 -12 93 -7 104 l 468 604 l 115 604 b 89 638 92 604 85 614 l 96 683 b 135 717 100 706 114 717 l 615 717 b 642 683 642 717 647 707 l 635 638 b 615 600 633 626 626 614 l 147 113 "},"Ž":{"ha":793,"x_min":0,"x_max":0,"o":"m 764 1256 b 774 1228 792 1256 792 1243 l 593 1085 b 526 1056 561 1058 554 1056 l 513 1056 b 454 1085 481 1056 476 1057 l 322 1228 b 343 1256 310 1243 317 1256 l 389 1256 b 438 1236 417 1256 422 1254 l 531 1138 l 657 1236 b 715 1256 671 1249 690 1256 m 808 986 b 839 950 836 986 844 976 l 831 899 b 811 860 826 881 819 868 l 161 125 l 669 125 b 699 89 696 125 704 117 l 690 36 b 647 0 686 13 671 0 l 10 0 b -19 36 -17 0 -25 10 l -11 88 b 8 128 -8 103 -1 115 l 657 861 l 168 861 b 138 897 142 861 133 871 l 147 950 b 190 986 151 974 167 986 "},"ž":{"ha":636,"x_min":0,"x_max":0,"o":"m 635 1006 b 644 978 663 1006 661 992 l 463 835 b 399 806 431 808 425 806 l 386 806 b 325 835 353 806 347 807 l 193 978 b 214 1006 182 993 188 1006 l 258 1006 b 306 986 286 1006 293 1003 l 400 888 l 526 986 b 583 1006 540 999 560 1006 m 615 717 b 642 683 642 717 647 707 l 635 638 b 615 600 633 626 626 614 l 147 113 l 515 113 b 542 79 539 113 546 106 l 535 33 b 496 0 531 11 517 0 l 3 0 b -24 33 -24 0 -29 10 l -17 79 b 3 114 -12 93 -7 104 l 468 604 l 115 604 b 89 638 92 604 85 614 l 96 683 b 135 717 100 706 114 717 "},"ſ":{"ha":379,"x_min":0,"x_max":0,"o":"m 204 743 b 558 1028 239 939 347 1028 b 585 994 585 1028 590 1018 l 578 946 b 536 913 574 924 560 913 b 326 733 403 913 349 863 l 203 33 b 163 0 199 11 186 0 l 107 0 b 79 33 81 0 74 10 l 179 601 l 83 601 b 56 635 61 601 51 613 l 64 683 b 104 717 68 706 82 717 l 199 717 "},"ƒ":{"ha":600,"x_min":0,"x_max":0,"o":"m 292 736 b 626 1028 329 926 426 1028 b 657 994 653 1028 658 1018 l 653 946 b 617 913 651 924 640 913 b 417 731 493 913 439 851 l 382 554 l 550 554 b 581 521 576 554 582 544 l 576 472 b 540 439 572 446 564 439 l 360 439 l 272 -12 b -64 -306 235 -203 136 -306 b -94 -272 -87 -306 -96 -299 l -90 -224 b -53 -190 -89 -200 -79 -190 b 147 -8 69 -190 125 -126 l 235 439 l 75 439 b 44 472 51 439 43 446 l 49 521 b 85 554 50 544 61 554 l 257 554 "},"Ǻ":{"ha":899,"x_min":0,"x_max":0,"o":"m 701 1333 b 760 1332 729 1346 749 1344 l 781 1304 b 771 1278 792 1292 789 1282 l 525 1194 b 488 1196 504 1188 492 1189 l 475 1211 b 492 1243 465 1224 471 1233 m 431 1042 b 606 1178 446 1124 517 1178 b 732 1035 693 1178 747 1122 b 642 931 724 986 693 951 l 838 36 b 807 0 842 13 832 0 l 757 0 b 696 32 711 0 700 6 l 649 263 l 243 263 l 113 32 b 40 0 97 6 85 0 l -14 0 b -32 36 -40 0 -46 13 l 482 931 b 431 1042 443 951 424 996 m 658 1039 b 594 1114 665 1083 640 1114 b 501 1039 549 1114 508 1083 b 568 968 494 999 522 968 b 658 1039 613 968 651 999 m 571 672 b 560 789 565 704 561 743 b 556 861 558 835 557 858 l 547 861 b 519 790 546 858 538 835 b 465 674 501 744 483 706 l 300 374 l 631 374 "},"ǻ":{"ha":743,"x_min":0,"x_max":0,"o":"m 567 1243 b 624 1242 593 1256 613 1254 l 643 1217 b 632 1189 654 1204 650 1194 l 386 1103 b 346 1104 365 1097 351 1097 l 335 1119 b 343 1146 325 1131 328 1139 m 374 831 b 350 933 350 857 343 890 b 410 1036 357 976 378 1010 b 522 1074 442 1061 479 1074 b 640 931 607 1074 656 1015 b 472 792 625 847 557 792 b 374 831 429 792 396 804 m 576 932 b 511 1011 583 978 560 1011 b 414 932 461 1011 424 981 b 483 853 407 883 433 853 b 576 932 529 853 567 883 m 94 469 b 446 738 128 657 236 738 b 682 694 544 738 622 724 b 721 618 722 674 728 663 l 622 60 b 581 18 618 33 608 25 b 296 -21 490 -8 394 -21 b 60 275 108 -21 28 97 m 572 603 b 436 624 529 617 483 624 b 215 453 304 624 238 575 l 182 265 b 325 93 164 156 213 93 b 508 119 389 93 450 101 l 589 574 b 572 603 590 590 589 593 "},"Ǽ":{"ha":1171,"x_min":0,"x_max":0,"o":"m 1078 1250 b 1139 1249 1107 1265 1128 1265 l 1160 1215 b 1149 1176 1172 1197 1168 1183 l 885 1061 b 843 1063 863 1053 849 1053 l 831 1083 b 839 1118 819 1101 821 1108 m 1058 125 b 1088 89 1085 125 1093 115 l 1079 36 b 1036 0 1075 13 1060 0 l 575 0 b 544 36 547 0 540 10 l 579 226 l 257 226 l 106 32 b 33 0 85 8 74 0 l -28 0 b -46 36 -54 0 -60 13 l 679 956 b 731 986 700 979 707 986 l 1193 986 b 1224 950 1219 986 1228 976 l 1214 897 b 1171 861 1210 874 1196 861 l 817 861 l 764 561 l 1054 561 b 1085 525 1082 561 1089 553 l 1075 474 b 1032 436 1071 449 1056 436 l 742 436 l 688 125 m 675 771 l 343 338 l 597 338 "},"ǽ":{"ha":1082,"x_min":0,"x_max":0,"o":"m 729 1006 b 792 1003 760 1019 781 1018 l 813 969 b 800 932 825 951 822 939 l 538 815 b 494 817 515 808 501 808 l 483 838 b 492 874 472 853 475 865 m 590 621 b 829 738 647 699 726 738 b 1068 493 1007 738 1097 647 b 757 294 1042 364 931 294 b 583 315 703 294 646 301 l 572 254 b 708 88 554 143 599 88 b 894 181 789 88 851 118 b 946 193 911 201 928 206 l 981 171 b 981 117 999 157 999 139 b 689 -21 917 25 819 -21 b 508 51 604 -21 544 3 b 271 -21 449 3 369 -21 b 29 208 76 -21 3 60 b 351 417 56 351 156 417 b 488 407 388 417 433 414 l 496 457 b 478 600 503 511 517 565 b 383 626 457 618 426 626 b 218 546 315 626 261 600 b 171 531 200 524 193 519 l 131 549 b 121 596 108 558 106 574 b 406 738 186 690 282 738 b 590 621 518 738 567 694 m 946 500 b 811 632 967 585 918 632 b 608 457 704 632 626 568 l 600 410 b 775 390 660 397 718 390 b 946 500 874 390 931 426 m 469 308 b 321 318 404 315 356 318 b 153 200 222 318 167 279 b 276 83 138 118 175 83 b 457 140 375 83 428 122 b 460 249 451 169 453 206 "},"Ǿ":{"ha":928,"x_min":0,"x_max":0,"o":"m 689 1264 b 751 1263 718 1279 739 1279 l 772 1229 b 761 1190 785 1211 781 1197 l 497 1075 b 454 1076 474 1067 460 1067 l 443 1097 b 450 1132 433 1113 436 1124 m 979 1044 b 983 1032 989 1044 990 1040 l 864 885 b 901 640 907 819 919 739 l 846 324 b 401 -21 807 103 651 -21 b 176 39 306 -21 231 -1 l 106 -46 b 79 -57 99 -53 90 -57 l 8 -57 b 6 -43 0 -57 -1 -53 l 117 94 b 72 343 68 157 54 240 l 128 660 b 574 1007 167 882 324 1007 b 807 939 672 1007 750 985 l 882 1033 b 907 1044 889 1040 897 1044 m 719 832 b 557 882 683 865 629 882 b 261 651 392 882 288 800 l 206 335 b 219 219 197 286 201 249 m 771 651 b 760 757 778 693 775 728 l 263 147 b 419 104 300 118 351 104 b 714 335 582 104 688 186 "},"ǿ":{"ha":751,"x_min":0,"x_max":0,"o":"m 557 1006 b 618 1003 586 1019 607 1018 l 639 969 b 628 932 651 951 649 939 l 364 815 b 321 817 342 807 328 807 l 310 838 b 318 874 300 853 303 865 m 736 767 b 739 754 743 767 744 763 l 661 658 b 706 465 704 610 719 546 l 665 239 b 310 -21 636 72 510 -21 b 143 15 244 -21 189 -8 l 99 -37 b 72 -49 92 -44 83 -49 l 24 -49 b 19 -36 14 -49 13 -44 l 92 51 b 43 249 46 100 29 165 l 83 475 b 439 738 113 640 243 738 b 613 697 508 738 567 724 l 661 756 b 685 767 668 763 675 767 m 533 599 b 421 625 504 617 467 625 b 207 472 304 625 225 568 l 167 244 b 182 164 161 213 167 186 m 222 115 b 326 92 249 100 283 92 b 543 244 444 92 526 149 l 582 468 b 567 540 586 496 582 519 "},"Ș":{"ha":865,"x_min":0,"x_max":0,"o":"m 126 736 b 538 1007 158 910 300 1007 b 857 792 721 1007 813 931 b 831 747 864 768 858 758 l 772 722 b 728 739 746 711 738 715 b 518 878 699 829 639 878 b 260 725 364 878 278 826 b 322 603 250 665 271 625 b 497 561 372 579 418 571 b 721 489 590 550 656 532 b 794 258 786 444 813 365 b 368 -21 763 72 619 -21 b 22 217 171 -21 56 58 b 53 264 18 240 29 256 l 115 285 b 157 263 142 294 150 289 b 381 106 183 158 257 106 b 661 275 547 106 640 163 b 579 406 672 346 640 385 b 442 433 535 421 503 426 b 249 481 365 440 313 451 b 171 535 217 496 190 514 b 126 736 132 576 110 647 m 326 -325 b 283 -356 317 -346 301 -356 l 243 -356 b 226 -332 225 -356 219 -347 l 299 -133 b 344 -99 306 -106 317 -99 l 400 -99 b 426 -133 429 -99 439 -110 "},"ș":{"ha":690,"x_min":0,"x_max":0,"o":"m 83 529 b 399 738 106 663 215 738 b 660 588 543 738 631 688 b 636 539 667 564 660 549 l 590 521 b 546 536 564 511 557 514 b 382 625 526 596 472 625 b 206 525 278 625 218 592 b 263 432 197 472 215 444 b 374 415 296 422 319 421 b 558 360 456 406 510 392 b 611 192 607 326 626 271 b 283 -21 588 57 474 -21 b 7 150 124 -21 32 36 b 36 194 3 171 13 186 l 88 211 b 128 190 111 218 118 214 b 297 90 149 117 203 90 b 490 196 413 90 478 125 b 324 306 503 274 453 293 b 83 529 186 319 53 353 m 268 -292 b 221 -322 253 -315 244 -322 l 189 -322 b 169 -296 167 -322 164 -317 l 233 -118 b 283 -79 240 -89 254 -79 l 331 -79 b 351 -118 358 -79 365 -92 "},"Ț":{"ha":765,"x_min":0,"x_max":0,"o":"m 813 986 b 843 950 840 986 849 976 l 833 897 b 792 861 829 874 815 861 l 529 861 l 383 36 b 340 0 379 13 365 0 l 279 0 b 250 36 253 0 244 10 l 396 861 l 133 861 b 103 897 106 861 99 871 l 113 950 b 154 986 117 974 131 986 m 267 -319 b 222 -351 257 -340 242 -351 l 183 -351 b 165 -326 163 -351 160 -347 l 239 -128 b 285 -93 246 -100 257 -93 l 340 -93 b 365 -128 369 -93 378 -104 "},"ț":{"ha":510,"x_min":0,"x_max":0,"o":"m 331 883 b 357 850 354 883 361 874 l 333 717 l 515 717 b 542 683 542 717 547 707 l 533 635 b 496 601 529 608 519 601 l 314 601 l 257 278 b 269 132 244 204 249 156 b 404 97 290 108 335 97 b 432 64 431 97 438 90 l 424 14 b 383 -19 418 -12 410 -18 b 158 40 271 -22 196 -3 b 132 275 121 83 111 161 l 190 601 l 75 601 b 47 635 49 601 43 611 l 56 683 b 94 717 60 706 72 717 l 210 717 l 233 850 b 272 883 238 872 250 883 m 196 -319 b 153 -351 186 -340 171 -351 l 113 -351 b 96 -326 92 -351 89 -347 l 168 -128 b 214 -93 175 -104 190 -93 l 269 -93 b 296 -128 299 -93 308 -104 "},"ȷ":{"ha":299,"x_min":0,"x_max":0,"o":"m 233 717 b 261 683 260 717 265 710 l 139 -11 b -217 -319 103 -217 -15 -319 b -246 -286 -243 -319 -250 -312 l -237 -237 b -197 -204 -233 -215 -219 -204 b 15 -8 -68 -204 -8 -137 l 136 683 b 176 717 140 706 154 717 "},"ˆ":{"ha":535,"x_min":0,"x_max":0,"o":"m 390 1013 b 446 983 418 1013 424 1011 l 578 840 b 557 813 590 828 583 813 l 514 813 b 464 832 489 813 472 819 l 372 931 l 244 832 b 189 813 229 819 211 813 l 136 813 b 124 840 110 813 108 828 l 307 983 b 376 1013 339 1011 344 1013 "},"ˇ":{"ha":461,"x_min":0,"x_max":0,"o":"m 558 1011 b 569 983 585 1011 588 1001 l 388 840 b 322 811 356 814 349 811 l 310 811 b 249 840 276 811 271 813 l 118 983 b 138 1011 106 999 111 1011 l 182 1011 b 229 992 210 1011 218 1008 l 324 893 l 450 992 b 507 1011 465 1004 483 1011 "},"˘":{"ha":399,"x_min":0,"x_max":0,"o":"m 517 963 b 283 815 468 864 390 815 b 93 963 176 815 106 868 b 113 993 89 978 96 988 l 154 1008 b 186 996 172 1013 182 1008 b 293 907 193 936 228 907 b 432 999 356 907 401 938 b 461 1011 439 1011 449 1015 l 508 993 b 517 963 521 988 524 978 "},"˙":{"ha":300,"x_min":0,"x_max":0,"o":"m 267 971 b 317 913 313 971 324 958 l 315 903 b 244 843 308 857 290 843 l 238 843 b 188 903 192 843 181 857 l 190 913 b 260 971 197 958 214 971 "},"˚":{"ha":333,"x_min":0,"x_max":0,"o":"m 131 908 b 303 1050 146 993 215 1050 b 419 907 388 1050 435 992 b 253 767 407 824 338 767 b 131 908 165 767 115 825 m 356 907 b 292 986 365 956 340 986 b 194 907 242 986 201 957 b 263 829 185 861 213 829 b 356 907 311 829 349 861 "},"˛":{"ha":350,"x_min":0,"x_max":0,"o":"m 214 0 b 69 -214 114 -89 64 -169 b 108 -250 74 -237 88 -250 b 168 -225 129 -250 149 -242 b 189 -231 179 -218 186 -221 l 199 -275 b 192 -299 203 -285 200 -293 b 56 -342 158 -328 113 -342 b -46 -254 -1 -342 -42 -311 b 131 0 -53 -174 6 -89 "},"˜":{"ha":424,"x_min":0,"x_max":0,"o":"m 521 997 b 539 976 536 997 542 990 b 401 831 521 875 479 831 b 222 917 322 831 278 917 b 167 851 193 917 174 894 b 143 831 164 838 156 831 l 107 831 b 89 851 92 831 86 838 b 225 997 106 949 151 997 b 328 954 260 997 294 983 b 406 910 360 925 386 910 b 463 976 436 910 456 932 b 486 997 465 990 474 997 "},"˝":{"ha":549,"x_min":0,"x_max":0,"o":"m 322 989 b 382 1011 339 1010 358 1018 l 418 999 b 422 961 439 992 440 979 l 251 824 b 208 810 233 811 218 806 l 190 815 b 186 849 172 821 171 832 m 561 988 b 621 1010 579 1010 600 1017 l 660 997 b 664 961 683 989 685 976 l 481 819 b 439 806 463 806 449 801 l 419 813 b 415 846 401 818 400 829 "},"̦":{"ha":0,"x_min":0,"x_max":0,"o":"m 71 -319 b 28 -351 61 -340 46 -351 l -12 -351 b -29 -326 -33 -351 -36 -347 l 43 -128 b 89 -93 50 -100 61 -93 l 146 -93 b 171 -128 175 -93 183 -104 "},"π":{"ha":868,"x_min":0,"x_max":0,"o":"m 867 717 b 893 683 893 717 899 707 l 885 636 b 847 603 882 614 869 603 l 785 603 l 714 206 b 721 69 706 153 708 107 b 694 19 728 46 718 29 l 643 0 b 599 18 617 -11 606 -6 b 592 211 581 71 578 135 l 661 603 l 350 603 l 250 33 b 210 0 246 11 232 0 l 151 0 b 125 33 128 0 121 7 l 225 603 b 108 571 192 601 153 592 b 67 585 85 560 72 563 l 56 631 b 79 674 49 651 57 665 b 289 717 139 703 208 717 "},"Ё":{"ha":800,"x_min":0,"x_max":0,"o":"m 442 1204 b 489 1147 486 1204 499 1190 l 488 1135 b 419 1078 478 1092 464 1078 l 410 1078 b 363 1135 367 1078 356 1092 l 364 1147 b 432 1204 371 1190 389 1204 m 715 1204 b 763 1147 758 1204 769 1190 l 760 1135 b 693 1078 753 1092 736 1078 l 683 1078 b 635 1135 639 1078 628 1092 l 638 1147 b 707 1204 644 1190 661 1204 m 801 986 b 832 950 828 986 836 976 l 822 897 b 779 861 818 874 804 861 l 319 861 l 267 563 l 663 563 b 693 525 690 563 697 553 l 683 474 b 640 438 679 450 664 438 l 243 438 l 189 125 l 667 125 b 696 89 693 125 701 115 l 688 36 b 644 0 683 13 668 0 l 69 0 b 39 36 42 0 35 10 l 200 950 b 243 986 204 974 219 986 "},"А":{"ha":899,"x_min":0,"x_max":0,"o":"m 838 36 b 807 0 842 13 832 0 l 757 0 b 696 32 711 0 700 6 l 650 258 l 239 258 l 113 32 b 40 0 97 6 85 0 l -14 0 b -32 36 -40 0 -46 13 l 492 958 b 543 989 503 979 519 989 l 599 989 b 640 960 626 989 636 982 m 557 733 b 554 860 551 789 549 843 l 554 864 l 547 864 b 500 735 547 864 533 797 l 297 368 l 632 368 "},"Б":{"ha":876,"x_min":0,"x_max":0,"o":"m 831 986 b 861 950 858 986 867 976 l 851 897 b 808 861 847 874 833 861 l 319 861 l 269 585 l 561 585 b 813 285 744 585 846 468 b 471 0 781 103 654 0 l 68 0 b 39 35 42 0 35 8 l 200 950 b 243 986 204 974 219 986 m 674 293 b 533 460 694 397 640 460 l 247 460 l 189 125 l 474 125 b 674 293 581 125 657 189 "},"В":{"ha":899,"x_min":0,"x_max":0,"o":"m 631 986 b 863 725 803 986 890 885 b 706 514 842 621 790 551 l 704 510 b 817 260 799 481 839 388 b 471 0 785 92 653 0 l 69 0 b 39 36 42 0 35 10 l 200 950 b 243 986 204 974 219 986 m 722 711 b 594 861 740 811 699 861 l 319 861 l 265 563 l 542 563 b 722 711 644 563 704 613 m 678 282 b 544 440 696 383 649 440 l 244 440 l 189 125 l 489 125 b 678 282 596 125 660 178 "},"Г":{"ha":722,"x_min":0,"x_max":0,"o":"m 763 986 b 793 950 789 986 797 976 l 783 897 b 740 861 779 874 764 861 l 319 861 l 174 36 b 131 0 169 13 154 0 l 69 0 b 39 36 42 0 35 10 l 200 950 b 243 986 204 974 219 986 "},"Д":{"ha":1010,"x_min":0,"x_max":0,"o":"m 929 986 b 960 950 957 986 965 976 l 814 125 l 896 125 b 925 89 922 125 931 115 l 879 -176 b 836 -212 875 -200 860 -212 l 776 -212 b 747 -176 750 -212 742 -203 l 778 0 l 85 0 l 54 -176 b 11 -212 50 -200 35 -212 l -47 -212 b -78 -176 -75 -212 -82 -203 l -31 89 b 13 125 -26 113 -12 125 l 54 125 b 167 256 94 151 124 179 b 286 665 210 332 251 471 l 336 950 b 378 986 340 976 350 986 m 449 861 l 415 665 b 213 125 368 397 300 218 l 681 125 l 810 861 "},"Е":{"ha":800,"x_min":0,"x_max":0,"o":"m 801 986 b 832 950 828 986 836 976 l 822 897 b 779 861 818 874 804 861 l 319 861 l 267 563 l 663 563 b 693 525 690 563 697 553 l 683 474 b 640 438 679 450 664 438 l 243 438 l 189 125 l 667 125 b 696 89 693 125 701 115 l 688 36 b 644 0 683 13 668 0 l 69 0 b 39 36 42 0 35 10 l 200 950 b 243 986 204 974 219 986 "},"Ж":{"ha":1288,"x_min":0,"x_max":0,"o":"m 1356 986 b 1367 951 1379 986 1385 968 l 1004 519 b 1106 378 1049 494 1082 447 l 1222 38 b 1196 0 1231 13 1222 0 l 1138 0 b 1074 32 1092 0 1083 6 l 978 329 b 808 439 951 413 913 439 l 743 439 l 672 36 b 629 0 668 13 653 0 l 568 0 b 538 36 540 0 533 10 l 608 439 l 543 439 b 342 329 443 439 399 413 l 140 32 b 61 0 122 6 107 0 l 0 0 b -12 38 -26 0 -31 13 l 224 378 b 379 519 272 449 324 496 l 165 951 b 189 986 154 969 163 986 l 251 986 b 317 956 296 986 304 983 l 507 558 b 565 561 519 560 539 561 l 631 561 l 699 950 b 742 986 703 974 718 986 l 803 986 b 833 950 829 986 838 976 l 764 561 l 829 561 b 881 558 853 561 871 560 l 1210 956 b 1288 986 1232 983 1243 986 "},"З":{"ha":867,"x_min":0,"x_max":0,"o":"m 835 715 b 679 513 815 617 764 549 b 788 265 772 464 808 382 b 382 -21 753 75 618 -21 b 18 218 164 -21 43 58 b 50 265 14 242 25 257 l 110 285 b 153 261 133 292 149 285 b 400 104 169 154 235 104 b 647 278 543 104 626 163 b 517 442 665 379 618 442 l 297 442 b 268 478 269 442 263 450 l 275 526 b 318 563 279 550 294 563 l 522 563 b 700 715 621 563 683 622 b 529 882 718 825 661 882 b 243 726 378 882 297 833 b 192 704 231 706 214 697 l 139 725 b 124 771 115 733 111 749 b 550 1007 206 931 332 1007 b 835 715 763 1007 867 894 "},"И":{"ha":969,"x_min":0,"x_max":0,"o":"m 932 986 b 963 950 958 986 967 976 l 801 36 b 758 0 797 13 782 0 l 697 0 b 667 36 669 0 663 10 l 753 519 b 831 818 769 618 796 717 l 825 818 b 636 564 785 753 722 668 l 172 18 b 132 0 163 6 150 0 l 69 0 b 39 36 42 0 35 10 l 200 950 b 243 986 204 974 219 986 l 304 986 b 335 950 332 986 340 976 l 250 476 b 172 168 233 379 207 276 l 176 168 b 375 435 225 244 292 333 l 829 968 b 869 986 839 981 853 986 "},"Й":{"ha":969,"x_min":0,"x_max":0,"o":"m 601 1058 b 415 1204 494 1058 431 1110 b 435 1236 414 1219 419 1229 l 482 1251 b 513 1240 499 1256 508 1253 b 617 1149 519 1179 554 1149 b 754 1240 679 1149 725 1179 b 785 1253 761 1254 772 1258 l 831 1236 b 840 1204 843 1229 847 1218 b 601 1058 792 1107 711 1058 m 932 986 b 963 950 958 986 967 976 l 801 36 b 758 0 797 13 782 0 l 697 0 b 667 36 669 0 663 10 l 753 519 b 831 818 769 618 796 717 l 825 818 b 636 564 785 753 722 668 l 172 18 b 132 0 163 6 150 0 l 69 0 b 39 36 42 0 35 10 l 200 950 b 243 986 204 974 219 986 l 304 986 b 335 950 332 986 340 976 l 250 476 b 172 168 233 379 207 276 l 176 168 b 375 435 225 244 292 333 l 829 968 b 869 986 839 981 853 986 "},"К":{"ha":857,"x_min":0,"x_max":0,"o":"m 767 38 b 742 0 775 13 767 0 l 681 0 b 615 32 635 0 625 6 l 518 329 b 356 439 490 413 457 439 l 244 439 l 174 36 b 131 0 169 13 154 0 l 69 0 b 39 36 42 0 35 10 l 200 950 b 243 986 204 974 219 986 l 304 986 b 335 950 332 986 340 976 l 265 561 l 364 561 l 389 561 l 754 956 b 832 986 778 982 789 986 l 900 986 b 913 951 926 986 929 968 l 515 531 b 651 378 579 510 625 458 "},"Л":{"ha":925,"x_min":0,"x_max":0,"o":"m 894 986 b 925 950 922 986 931 976 l 764 36 b 721 0 760 13 746 0 l 660 0 b 629 36 632 0 625 10 l 775 861 l 424 861 l 386 644 b 260 208 351 444 303 294 b 183 97 239 165 213 128 b 106 31 153 65 126 43 b 21 -14 85 17 56 1 b -25 3 -4 -24 -19 -18 l -43 56 b -17 106 -50 79 -42 96 b 96 186 32 128 51 136 b 153 275 118 210 138 240 b 254 644 185 346 225 474 l 307 950 b 350 986 311 974 326 986 "},"М":{"ha":1121,"x_min":0,"x_max":0,"o":"m 1082 986 b 1113 950 1110 986 1118 976 l 951 36 b 908 0 947 13 933 0 l 854 0 b 824 36 826 0 819 10 l 913 538 b 983 799 926 614 950 700 l 976 799 b 824 565 933 722 883 644 l 593 251 b 546 225 579 233 564 225 l 517 225 b 478 251 493 225 488 231 l 354 568 b 290 799 326 635 306 711 l 283 799 b 258 538 282 707 274 619 l 171 36 b 128 0 167 13 153 0 l 69 0 b 39 36 42 0 35 10 l 200 950 b 243 986 204 974 219 986 l 289 986 b 336 958 318 986 326 981 l 556 390 l 972 957 b 1028 986 990 981 1000 986 "},"Н":{"ha":951,"x_min":0,"x_max":0,"o":"m 914 986 b 944 950 940 986 949 976 l 783 36 b 740 0 779 13 764 0 l 679 0 b 649 36 651 0 644 10 l 719 438 l 243 438 l 174 36 b 131 0 169 13 154 0 l 69 0 b 39 36 42 0 35 10 l 200 950 b 243 986 204 974 219 986 l 304 986 b 335 950 332 986 340 976 l 267 563 l 742 563 l 810 950 b 853 986 814 974 829 986 "},"О":{"ha":926,"x_min":0,"x_max":0,"o":"m 147 660 b 593 1007 186 882 343 1007 b 921 640 842 1007 960 864 l 865 324 b 421 -21 826 103 671 -21 b 92 343 172 -21 53 121 m 790 651 b 576 882 817 800 739 882 b 281 651 411 882 307 800 l 225 335 b 439 104 199 186 276 104 b 733 335 601 104 707 186 "},"П":{"ha":944,"x_min":0,"x_max":0,"o":"m 906 986 b 936 950 933 986 942 976 l 775 36 b 732 0 771 13 756 0 l 671 0 b 640 36 643 0 636 10 l 786 861 l 319 861 l 174 36 b 131 0 169 13 154 0 l 69 0 b 39 36 42 0 35 10 l 200 950 b 243 986 204 974 219 986 "},"Р":{"ha":871,"x_min":0,"x_max":0,"o":"m 614 986 b 832 896 711 986 783 956 b 875 658 879 836 893 757 b 503 358 840 465 703 358 l 231 358 l 174 36 b 131 0 169 13 154 0 l 69 0 b 39 36 42 0 35 10 l 200 950 b 243 986 204 974 219 986 m 513 483 b 739 671 633 483 717 553 b 579 861 760 789 700 861 l 319 861 l 251 483 "},"С":{"ha":882,"x_min":0,"x_max":0,"o":"m 146 658 b 593 1007 185 881 343 1007 b 918 768 794 1007 896 925 b 889 721 924 742 918 731 l 836 704 b 793 726 808 694 799 700 b 575 882 776 832 713 882 b 281 653 408 882 304 799 l 224 335 b 438 106 197 186 275 106 b 713 263 576 106 658 156 b 764 286 725 286 742 294 l 821 264 b 836 217 843 254 849 239 b 419 -21 757 60 626 -21 b 90 342 174 -21 51 119 "},"Т":{"ha":765,"x_min":0,"x_max":0,"o":"m 813 986 b 843 950 840 986 849 976 l 833 897 b 792 861 829 874 815 861 l 529 861 l 383 36 b 340 0 379 13 365 0 l 279 0 b 250 36 253 0 244 10 l 396 861 l 133 861 b 103 897 106 861 99 871 l 113 950 b 154 986 117 974 131 986 "},"У":{"ha":835,"x_min":0,"x_max":0,"o":"m 907 986 b 921 950 931 986 936 974 l 321 32 b 254 0 303 6 293 0 l 181 0 b 168 36 157 0 153 13 l 338 286 l 108 950 b 133 986 100 974 108 986 l 196 986 b 258 954 240 986 247 988 l 433 431 l 774 954 b 840 986 792 986 796 986 "},"Ф":{"ha":1158,"x_min":0,"x_max":0,"o":"m 751 1021 b 781 985 778 1021 785 1011 l 767 903 l 847 903 b 1158 544 1088 903 1199 767 l 1139 438 b 704 90 1101 217 947 90 l 624 90 l 608 8 b 567 -28 604 -15 590 -28 l 506 -28 b 475 8 478 -28 469 -18 l 489 90 l 408 90 b 97 450 168 90 57 228 l 117 557 b 551 903 156 778 308 903 l 632 903 l 647 985 b 690 1021 651 1008 665 1021 m 529 782 b 250 556 372 782 276 701 l 229 438 b 429 211 203 292 272 211 l 510 211 l 610 782 m 1026 556 b 825 782 1053 701 985 782 l 744 782 l 644 211 l 725 211 b 1004 438 882 211 978 292 "},"Х":{"ha":869,"x_min":0,"x_max":0,"o":"m 919 986 b 932 951 942 986 949 968 l 536 501 l 782 38 b 757 0 794 19 785 0 l 686 0 b 621 32 642 0 633 4 l 432 397 l 124 32 b 47 0 100 3 92 0 l -28 0 b -39 38 -56 0 -57 17 l 368 503 l 133 951 b 157 986 122 968 133 986 l 226 986 b 293 956 269 986 276 982 l 471 608 l 771 956 b 842 986 794 982 803 986 "},"Ц":{"ha":979,"x_min":0,"x_max":0,"o":"m 863 125 b 893 89 890 125 899 115 l 846 -176 b 803 -212 842 -200 828 -212 l 747 -212 b 718 -176 719 -212 713 -203 l 749 0 l 69 0 b 39 36 42 0 35 10 l 200 950 b 243 986 204 974 219 986 l 304 986 b 335 950 332 986 340 976 l 189 125 l 650 125 l 796 950 b 839 986 800 974 815 986 l 900 986 b 931 950 926 986 935 976 l 785 125 "},"Ч":{"ha":879,"x_min":0,"x_max":0,"o":"m 867 986 b 897 950 894 986 903 976 l 736 36 b 693 0 732 13 718 0 l 632 0 b 603 36 604 0 597 10 l 664 389 b 425 365 597 374 518 365 b 131 715 176 365 92 489 l 172 950 b 214 986 176 974 190 986 l 276 986 b 306 950 303 986 311 976 l 263 706 b 453 490 236 554 288 490 b 688 517 549 490 628 499 l 764 950 b 806 986 768 976 778 986 "},"Ш":{"ha":1278,"x_min":0,"x_max":0,"o":"m 1240 986 b 1271 950 1268 986 1275 976 l 1110 36 b 1067 0 1106 13 1090 0 l 69 0 b 39 36 42 0 35 10 l 200 950 b 243 986 204 974 219 986 l 304 986 b 335 950 332 986 340 976 l 189 125 l 524 125 l 668 950 b 711 986 672 974 688 986 l 772 986 b 803 950 800 986 808 976 l 657 125 l 990 125 l 1136 950 b 1179 986 1140 974 1156 986 "},"Щ":{"ha":1319,"x_min":0,"x_max":0,"o":"m 1204 125 b 1235 89 1232 125 1240 115 l 1188 -176 b 1144 -212 1183 -200 1169 -212 l 1089 -212 b 1058 -176 1061 -212 1054 -203 l 1090 0 l 69 0 b 39 36 42 0 35 10 l 200 950 b 243 986 204 974 219 986 l 304 986 b 335 950 332 986 340 976 l 189 125 l 524 125 l 668 950 b 711 986 672 974 688 986 l 772 986 b 803 950 800 986 808 976 l 657 125 l 990 125 l 1136 950 b 1179 986 1140 974 1156 986 l 1240 986 b 1271 950 1268 986 1275 976 l 1125 125 "},"Ъ":{"ha":1011,"x_min":0,"x_max":0,"o":"m 686 628 b 910 539 785 628 860 599 b 957 303 958 479 975 401 b 588 0 922 108 786 0 l 213 0 b 183 36 186 0 178 10 l 328 861 l 129 861 b 100 897 103 861 94 871 l 108 950 b 151 986 113 974 128 986 l 447 986 b 478 950 475 986 483 976 l 421 628 m 593 125 b 819 315 714 125 797 197 b 660 503 840 433 781 503 l 400 503 l 333 125 "},"Ы":{"ha":1228,"x_min":0,"x_max":0,"o":"m 767 542 b 813 307 815 483 831 406 b 689 81 794 208 754 133 b 442 0 624 26 540 0 l 69 0 b 39 36 42 0 35 10 l 200 950 b 243 986 204 974 219 986 l 304 986 b 335 950 332 986 340 976 l 278 628 l 546 628 b 767 542 644 628 718 599 m 1086 950 b 1128 986 1090 974 1104 986 l 1189 986 b 1219 950 1217 986 1225 976 l 1058 36 b 1015 0 1054 13 1040 0 l 954 0 b 925 36 928 0 919 10 m 600 176 b 675 315 640 210 665 256 b 649 454 685 375 676 421 b 515 503 619 486 575 503 l 256 503 l 189 125 l 449 125 b 600 176 508 125 560 142 "},"Ь":{"ha":868,"x_min":0,"x_max":0,"o":"m 767 542 b 813 307 815 483 831 406 b 689 81 794 208 754 133 b 442 0 624 26 540 0 l 69 0 b 39 36 42 0 35 10 l 200 950 b 243 986 204 974 219 986 l 304 986 b 335 950 332 986 340 976 l 278 628 l 546 628 b 767 542 644 628 718 599 m 600 176 b 675 315 640 210 665 256 b 649 454 685 375 676 421 b 515 503 619 486 575 503 l 256 503 l 189 125 l 449 125 b 600 176 508 125 560 142 "},"Э":{"ha":888,"x_min":0,"x_max":0,"o":"m 121 771 b 533 1007 200 928 338 1007 b 858 642 782 1007 897 864 l 803 322 b 361 -21 764 101 610 -21 b 21 218 160 -21 46 58 b 53 265 17 242 28 257 l 113 286 b 156 263 140 293 150 289 b 376 104 172 156 238 104 b 669 333 539 104 643 188 l 688 436 l 307 436 b 278 474 281 436 272 446 l 288 525 b 331 561 292 553 303 561 l 711 561 l 726 654 b 513 882 753 800 678 882 b 240 726 375 882 294 832 b 189 704 228 706 211 697 l 135 725 b 121 771 113 732 108 747 "},"Ю":{"ha":1293,"x_min":0,"x_max":0,"o":"m 501 658 b 943 1007 539 879 697 1007 b 1260 643 1186 1007 1299 865 l 1204 324 b 765 -21 1167 103 1010 -21 b 446 340 521 -21 407 118 l 463 438 l 243 438 l 174 36 b 131 0 169 13 154 0 l 69 0 b 39 36 42 0 35 10 l 200 950 b 243 986 204 974 219 986 l 304 986 b 335 950 332 986 340 976 l 267 563 l 485 563 m 1128 653 b 922 882 1154 799 1082 882 b 635 653 763 882 661 799 l 579 333 b 786 104 553 188 625 104 b 1071 333 943 104 1044 185 "},"Я":{"ha":900,"x_min":0,"x_max":0,"o":"m 139 703 b 492 986 172 888 303 986 l 882 986 b 913 950 908 986 917 976 l 751 36 b 708 0 747 13 732 0 l 647 0 b 617 36 619 0 613 10 l 681 396 l 526 396 b 325 286 425 396 376 369 l 164 32 b 85 0 147 4 133 0 l 24 0 b 11 38 0 0 -4 13 l 208 336 b 292 421 235 376 263 406 b 139 703 174 453 115 557 m 483 861 b 279 692 372 861 297 801 b 422 521 261 582 313 521 l 701 521 l 763 861 "},"а":{"ha":743,"x_min":0,"x_max":0,"o":"m 94 469 b 446 738 128 657 236 738 b 682 694 544 738 622 724 b 721 618 722 674 728 663 l 622 60 b 581 18 618 33 608 25 b 296 -21 490 -8 394 -21 b 60 275 108 -21 28 97 m 572 603 b 436 624 529 617 483 624 b 215 453 304 624 238 575 l 182 265 b 325 93 164 156 213 93 b 508 119 389 93 450 101 l 589 574 b 572 603 590 590 589 593 "},"б":{"ha":768,"x_min":0,"x_max":0,"o":"m 632 1015 b 739 1032 678 1015 714 1021 b 782 1011 764 1043 778 1036 l 790 968 b 761 922 793 947 783 932 b 614 900 731 907 682 900 l 567 900 b 347 842 464 900 390 881 b 254 628 304 801 272 731 l 250 601 b 488 701 310 668 389 701 b 729 418 671 701 761 596 l 699 250 b 343 -21 665 69 547 -21 b 74 263 142 -21 44 89 l 133 601 b 275 921 160 750 207 857 b 586 1015 342 983 446 1015 m 606 424 b 447 589 624 533 571 589 b 233 457 332 589 250 524 l 199 257 b 356 92 178 151 235 92 b 575 257 482 92 554 147 "},"в":{"ha":743,"x_min":0,"x_max":0,"o":"m 203 701 b 435 738 267 725 344 738 b 690 521 624 738 714 654 b 563 378 679 453 636 404 b 667 199 646 347 681 288 b 324 -21 646 53 531 -21 b 79 11 219 -21 139 -10 b 33 92 42 25 26 51 l 124 604 b 203 701 133 653 160 686 m 564 514 b 419 628 575 586 525 628 b 271 608 357 628 308 621 b 243 575 254 601 244 590 l 214 417 l 417 417 b 564 514 501 417 551 449 m 539 208 b 404 321 551 279 503 321 l 197 321 l 165 136 b 179 107 163 121 167 111 b 325 88 229 94 278 88 b 539 208 454 88 525 128 "},"г":{"ha":694,"x_min":0,"x_max":0,"o":"m 114 582 b 431 738 182 686 288 738 b 674 525 614 738 696 649 b 518 339 649 417 600 364 b 356 311 460 321 426 317 b 142 192 229 300 157 274 b 301 86 129 121 179 86 b 513 189 404 86 475 121 b 560 210 525 210 540 217 l 601 194 b 615 147 625 186 631 171 b 285 -21 550 32 450 -21 b 26 194 94 -21 3 61 b 136 360 42 274 76 328 b 342 413 196 392 253 403 b 482 439 407 418 438 424 b 556 526 525 454 549 483 b 411 629 567 594 526 629 b 213 531 325 629 258 596 b 164 515 194 508 186 506 l 122 533 b 114 582 101 543 99 560 "},"д":{"ha":765,"x_min":0,"x_max":0,"o":"m 275 997 b 314 1031 279 1024 288 1031 b 629 967 460 1031 564 1010 b 733 549 736 901 771 763 l 681 249 b 324 -21 649 76 525 -21 b 57 261 119 -21 25 88 l 88 432 b 421 701 117 603 242 701 b 625 597 526 701 603 658 b 550 864 647 740 621 814 b 296 918 499 900 414 918 b 267 950 269 918 263 926 m 588 426 b 428 589 606 532 550 589 b 211 425 301 589 229 535 l 181 256 b 340 92 163 150 217 92 b 557 256 461 92 536 150 "},"е":{"ha":731,"x_min":0,"x_max":0,"o":"m 92 454 b 457 738 125 636 257 738 b 721 485 646 738 753 639 b 388 294 694 358 583 294 b 190 314 329 294 264 301 l 179 254 b 336 88 161 147 214 88 b 546 179 428 88 497 118 b 603 193 565 201 585 206 l 636 171 b 639 117 657 157 657 139 b 317 -21 568 25 461 -21 b 61 281 110 -21 28 103 m 600 500 b 439 632 618 585 561 632 b 215 454 321 632 236 565 l 207 411 b 404 390 274 397 339 390 b 600 500 518 390 583 426 "},"ж":{"ha":1035,"x_min":0,"x_max":0,"o":"m 600 717 b 629 683 626 717 633 710 l 583 424 l 656 424 l 675 424 l 901 692 b 968 717 919 714 929 717 l 1025 717 b 1039 678 1057 717 1061 704 l 782 388 b 858 286 817 369 843 335 l 939 39 b 910 0 949 11 942 0 l 857 0 b 804 31 819 0 811 4 l 744 232 b 633 308 728 288 699 308 l 563 308 l 515 35 b 474 0 511 11 497 0 l 419 0 b 390 35 393 0 386 8 l 439 308 l 369 308 b 232 232 310 308 264 283 l 101 31 b 39 0 85 4 76 0 l -17 0 b -31 39 -49 0 -51 11 l 136 286 b 247 392 174 340 210 376 l 93 678 b 122 717 81 704 90 717 l 172 717 b 232 692 211 717 221 714 l 367 424 l 389 424 l 460 424 l 504 683 b 546 717 508 706 522 717 "},"з":{"ha":700,"x_min":0,"x_max":0,"o":"m 86 569 b 196 686 108 613 144 651 b 404 738 246 721 315 738 b 658 524 581 738 676 656 b 535 369 646 447 606 396 l 535 367 b 617 193 603 338 631 281 b 289 -21 592 50 482 -21 b 75 49 193 -21 115 7 b 4 167 35 90 15 126 b 38 214 -1 192 10 207 l 86 229 b 131 207 115 239 125 233 b 165 139 135 186 142 168 b 303 89 188 110 236 89 b 490 207 413 89 475 128 b 390 313 503 278 469 313 l 249 313 b 221 346 225 313 217 322 l 228 382 b 267 415 232 404 244 415 l 401 415 b 532 513 472 415 521 451 b 392 628 544 581 486 628 b 197 529 300 628 235 594 b 144 506 185 506 168 499 l 100 522 b 86 569 78 529 74 544 "},"и":{"ha":764,"x_min":0,"x_max":0,"o":"m 724 717 b 750 683 747 717 754 707 l 649 104 b 582 26 639 60 626 44 b 308 -21 492 -6 401 -21 b 75 264 119 -21 46 85 l 150 683 b 189 717 154 706 167 717 l 247 717 b 274 683 271 717 278 710 l 199 258 b 344 93 179 149 228 93 b 506 117 399 93 453 101 b 532 149 521 124 529 133 l 625 683 b 665 717 629 706 643 717 "},"й":{"ha":764,"x_min":0,"x_max":0,"o":"m 711 946 b 469 794 660 844 579 794 b 272 946 358 794 285 847 b 293 978 269 963 276 974 l 336 993 b 369 981 354 1000 365 996 b 481 888 376 918 413 888 b 622 983 544 888 592 919 b 653 996 629 996 640 1000 l 701 978 b 711 946 715 971 718 961 m 724 717 b 750 683 747 717 754 707 l 649 104 b 582 26 639 60 626 44 b 308 -21 492 -6 401 -21 b 75 264 119 -21 46 85 l 150 683 b 189 717 154 706 167 717 l 247 717 b 274 683 271 717 278 710 l 199 258 b 344 93 179 149 228 93 b 506 117 399 93 453 101 b 532 149 521 124 529 133 l 625 683 b 665 717 629 706 643 717 "},"к":{"ha":719,"x_min":0,"x_max":0,"o":"m 625 39 b 597 0 636 11 629 0 l 546 0 b 494 31 508 0 501 4 l 433 232 b 324 311 417 288 386 311 l 196 311 l 147 35 b 106 0 143 11 129 0 l 51 0 b 24 35 25 0 18 8 l 138 683 b 178 717 142 706 154 717 l 233 717 b 261 683 260 717 265 710 l 217 424 l 325 424 l 338 424 l 593 692 b 663 717 614 715 622 717 l 715 717 b 724 674 749 717 750 697 l 451 393 b 544 286 500 378 524 347 "},"л":{"ha":753,"x_min":0,"x_max":0,"o":"m 694 717 b 721 683 718 717 725 710 l 607 33 b 568 0 603 11 590 0 l 510 0 b 483 33 483 0 478 10 l 582 601 l 333 601 l 285 396 b 28 -10 204 67 129 32 b 10 -17 19 -12 14 -15 b -28 0 -10 -24 -22 -18 l -47 56 b -29 92 -51 71 -46 83 b 19 114 -24 93 7 107 b 76 169 31 121 58 140 b 167 406 103 213 138 281 l 232 683 b 271 717 236 706 250 717 "},"м":{"ha":888,"x_min":0,"x_max":0,"o":"m 822 717 b 853 681 851 717 857 708 l 738 33 b 699 0 733 7 725 0 l 649 0 b 622 33 622 0 617 7 l 678 354 b 733 544 686 397 704 460 l 729 544 b 633 399 703 496 671 447 l 460 165 b 414 140 447 149 432 140 l 383 140 b 346 165 365 140 353 149 l 254 394 b 211 544 236 440 221 490 l 206 544 b 193 349 204 450 200 385 l 138 33 b 99 0 132 7 125 0 l 50 0 b 22 33 22 0 17 7 l 136 681 b 179 717 140 708 150 717 l 219 717 b 263 689 246 717 253 711 l 421 278 l 721 689 b 772 717 735 707 751 717 "},"н":{"ha":772,"x_min":0,"x_max":0,"o":"m 711 717 b 738 683 735 717 742 710 l 624 33 b 583 0 619 11 606 0 l 526 0 b 500 33 500 0 494 10 l 547 308 l 196 308 l 147 33 b 108 0 143 11 131 0 l 50 0 b 24 33 24 0 18 10 l 138 683 b 176 717 142 706 154 717 l 235 717 b 261 683 258 717 265 710 l 217 424 l 568 424 l 613 683 b 653 717 617 706 631 717 "},"о":{"ha":751,"x_min":0,"x_max":0,"o":"m 94 475 b 450 738 124 640 256 738 b 717 465 649 738 746 632 l 678 239 b 322 -21 649 72 522 -21 b 54 249 128 -21 26 82 m 594 472 b 433 625 611 568 551 625 b 218 472 317 625 236 568 l 179 244 b 339 92 161 149 222 92 b 554 244 457 92 536 149 "},"п":{"ha":763,"x_min":0,"x_max":0,"o":"m 186 690 b 460 738 271 722 361 738 b 693 453 649 738 722 632 l 618 33 b 579 0 614 11 601 0 l 521 0 b 494 33 497 0 490 7 l 569 458 b 424 624 589 568 540 624 b 258 599 369 624 314 615 b 238 574 246 594 239 586 l 143 33 b 103 0 139 11 125 0 l 44 0 b 18 33 21 0 14 10 l 119 613 b 186 690 129 657 142 672 "},"р":{"ha":747,"x_min":0,"x_max":0,"o":"m 192 697 b 454 738 267 724 354 738 b 694 450 649 738 726 633 l 660 256 b 315 -21 628 71 513 -21 b 142 17 267 -21 208 -8 l 90 -272 b 51 -306 86 -294 74 -306 l -7 -306 b -33 -272 -33 -306 -39 -296 l 124 618 b 192 697 133 664 146 679 m 571 454 b 418 624 590 567 539 624 b 265 603 364 624 314 617 b 240 574 250 596 242 586 l 161 129 b 326 93 226 106 282 93 b 538 267 446 93 517 151 "},"с":{"ha":710,"x_min":0,"x_max":0,"o":"m 94 467 b 446 738 125 647 242 738 b 706 551 600 738 686 675 b 678 504 710 528 700 511 l 635 489 b 592 511 610 481 596 488 b 428 628 576 589 522 628 b 217 463 308 628 238 572 l 181 254 b 332 89 160 150 214 89 b 536 210 426 89 494 129 b 588 232 549 236 564 242 l 633 217 b 647 169 656 208 660 193 b 315 -21 579 43 469 -21 b 58 267 115 -21 26 89 "},"т":{"ha":1139,"x_min":0,"x_max":0,"o":"m 599 682 b 856 738 689 719 774 738 b 1069 458 1032 738 1101 636 l 994 33 b 956 0 990 11 978 0 l 897 0 b 871 33 871 0 865 10 l 946 464 b 819 624 965 571 924 624 b 649 586 767 624 710 611 b 649 468 657 554 657 514 l 572 33 b 533 0 568 11 556 0 l 475 0 b 449 33 449 0 443 10 l 524 464 b 394 624 544 575 500 624 b 260 601 347 624 303 617 b 238 572 247 594 239 585 l 143 33 b 103 0 139 11 125 0 l 44 0 b 18 33 21 0 14 10 l 119 613 b 186 692 129 657 142 674 b 431 738 265 722 346 738 b 599 682 506 738 561 719 "},"у":{"ha":767,"x_min":0,"x_max":0,"o":"m 718 717 b 744 683 744 717 750 707 l 618 -35 b 267 -335 583 -235 465 -335 b 13 -192 135 -335 50 -287 b 35 -137 0 -168 8 -150 l 76 -118 b 128 -131 104 -106 115 -108 b 283 -224 151 -193 204 -224 b 493 -40 401 -224 471 -162 l 507 35 b 307 6 431 15 364 6 b 76 290 119 6 44 111 l 144 683 b 183 717 149 706 161 717 l 242 717 b 268 683 268 717 274 707 l 199 285 b 344 119 178 174 224 119 b 526 149 401 119 461 129 l 621 683 b 660 717 625 706 638 717 "},"ф":{"ha":1025,"x_min":0,"x_max":0,"o":"m 657 731 b 746 738 678 733 708 736 b 994 431 931 738 1029 638 l 965 265 b 614 -21 931 75 814 -21 b 526 -14 574 -19 544 -17 l 481 -272 b 442 -306 476 -294 464 -306 l 383 -306 b 357 -272 357 -306 351 -296 l 403 -14 b 313 -21 382 -17 351 -19 b 65 285 128 -21 28 79 l 93 446 b 444 738 128 640 244 738 b 533 731 474 738 503 735 l 579 994 b 618 1026 583 1015 597 1026 l 676 1026 b 704 994 700 1026 708 1018 m 188 279 b 339 93 167 156 217 93 b 425 99 360 93 388 94 l 517 618 b 433 624 482 622 454 624 b 214 433 326 624 238 567 m 871 438 b 719 624 893 561 843 624 b 635 618 700 624 672 622 l 543 99 b 625 93 578 94 606 93 b 843 279 749 93 821 156 "},"х":{"ha":686,"x_min":0,"x_max":0,"o":"m 679 717 b 694 678 711 717 717 704 l 414 368 l 597 39 b 565 0 610 13 599 0 l 519 0 b 467 28 485 0 478 4 l 328 279 l 107 28 b 42 0 86 4 76 0 l -17 0 b -33 39 -54 0 -57 13 l 263 368 l 89 678 b 122 717 76 704 88 717 l 164 717 b 219 689 199 717 208 713 l 349 458 l 556 689 b 618 717 578 713 585 717 "},"ц":{"ha":813,"x_min":0,"x_max":0,"o":"m 249 717 b 275 683 272 717 279 710 l 200 258 b 346 93 181 149 229 93 b 446 103 383 93 425 99 b 528 121 461 106 522 119 l 626 683 b 667 717 631 706 644 717 l 725 717 b 751 683 749 717 756 707 l 653 128 b 753 -8 742 135 769 93 l 726 -160 b 689 -193 722 -182 710 -193 l 635 -193 b 607 -160 608 -193 601 -183 l 632 -24 b 581 21 638 10 621 31 b 529 8 574 19 556 15 b 465 -7 501 1 481 -3 b 310 -21 435 -12 369 -21 b 76 264 122 -21 44 86 l 151 683 b 190 717 156 706 168 717 "},"ч":{"ha":707,"x_min":0,"x_max":0,"o":"m 132 683 b 171 717 136 706 149 717 l 229 717 b 256 683 256 717 261 707 l 226 517 b 375 364 208 407 249 364 b 538 389 433 364 488 372 l 589 683 b 629 717 593 706 607 717 l 686 717 b 713 683 713 717 718 707 l 600 33 b 560 0 596 11 582 0 l 501 0 b 475 33 478 0 471 7 l 517 272 b 342 251 482 258 424 251 b 104 526 153 251 74 343 "},"ш":{"ha":1136,"x_min":0,"x_max":0,"o":"m 1097 717 b 1124 683 1119 717 1128 706 l 1022 104 b 957 25 1013 60 1000 43 b 713 -21 878 -6 797 -21 b 544 32 638 -21 582 -3 b 290 -21 457 -3 372 -21 b 76 263 113 -21 44 83 l 151 683 b 190 717 156 706 168 717 l 249 717 b 275 683 272 717 279 710 l 200 253 b 326 93 181 146 222 93 b 494 129 378 93 435 106 b 493 250 485 161 485 201 l 569 683 b 610 717 574 706 588 717 l 668 717 b 694 683 692 717 699 707 l 618 251 b 749 93 599 146 642 93 b 881 115 796 93 840 100 b 906 150 893 121 901 132 l 1000 683 b 1039 717 1004 706 1017 717 "},"щ":{"ha":1185,"x_min":0,"x_max":0,"o":"m 151 683 b 190 717 156 706 168 717 l 249 717 b 275 683 272 717 279 710 l 200 253 b 326 93 181 146 222 93 b 494 129 378 93 435 106 b 493 250 485 161 485 201 l 569 683 b 610 717 574 706 588 717 l 668 717 b 694 683 692 717 699 707 l 618 251 b 749 93 599 146 642 93 b 832 103 781 93 814 99 b 901 122 849 107 889 118 l 1000 683 b 1039 717 1004 706 1017 717 l 1097 717 b 1124 683 1119 717 1128 706 l 1025 128 b 1126 -8 1115 135 1143 93 l 1100 -160 b 1063 -193 1096 -182 1083 -193 l 1008 -193 b 979 -160 982 -193 975 -183 l 1004 -24 b 954 21 1011 10 994 31 b 804 -14 938 17 865 -3 b 713 -21 774 -18 743 -21 b 544 32 638 -21 582 -3 b 290 -21 457 -3 372 -21 b 76 263 113 -21 44 83 "},"ъ":{"ha":833,"x_min":0,"x_max":0,"o":"m 350 479 b 532 511 418 500 479 511 b 772 239 714 511 804 410 b 446 -21 742 65 633 -21 b 200 21 344 -21 263 -7 b 158 99 157 39 151 53 l 249 604 l 83 604 b 56 636 61 604 51 615 l 64 683 b 104 717 68 706 82 717 l 358 717 b 385 683 385 717 390 707 m 306 113 b 449 92 349 99 397 92 b 650 247 565 92 632 143 b 506 403 668 351 621 403 b 332 374 451 403 394 393 l 290 142 b 306 113 286 125 289 119 "},"ы":{"ha":975,"x_min":0,"x_max":0,"o":"m 224 479 b 407 511 292 500 353 511 b 647 240 589 511 676 411 b 321 -21 617 67 508 -21 b 74 21 219 -21 136 -7 b 33 99 33 39 24 53 l 138 683 b 176 717 142 706 154 717 l 233 717 b 260 683 257 717 264 707 m 915 717 b 942 683 939 717 946 710 l 828 33 b 788 0 824 11 811 0 l 731 0 b 704 33 704 0 699 10 l 817 683 b 857 717 821 706 835 717 m 181 113 b 322 92 224 99 271 92 b 525 249 438 92 506 144 b 379 403 543 351 494 403 b 206 374 325 403 268 393 l 165 142 b 181 113 161 125 164 122 "},"ь":{"ha":707,"x_min":0,"x_max":0,"o":"m 224 479 b 407 511 292 500 353 511 b 647 240 589 511 676 411 b 321 -21 617 67 508 -21 b 74 21 219 -21 136 -7 b 33 99 33 39 24 53 l 138 683 b 176 717 142 706 154 717 l 233 717 b 260 683 257 717 264 707 m 181 113 b 322 92 224 99 271 92 b 525 249 438 92 506 144 b 379 403 543 351 494 403 b 206 374 325 403 268 393 l 165 142 b 181 113 161 125 164 122 "},"э":{"ha":706,"x_min":0,"x_max":0,"o":"m 82 556 b 400 738 142 676 249 738 b 660 449 604 738 692 626 l 624 250 b 279 -21 592 69 476 -21 b 11 171 122 -21 33 43 b 42 218 4 194 15 210 l 93 233 b 136 211 117 240 132 233 b 293 90 149 129 194 90 b 500 254 410 90 482 150 l 510 308 l 263 310 b 235 343 236 310 231 319 l 243 386 b 281 419 246 408 258 419 l 529 419 l 538 464 b 388 628 557 574 507 628 b 192 514 289 628 232 592 b 140 492 179 490 161 483 l 96 507 b 82 556 74 517 69 532 "},"ю":{"ha":1040,"x_min":0,"x_max":0,"o":"m 383 482 b 729 738 413 644 536 738 b 990 464 922 738 1018 631 l 949 233 b 604 -21 919 68 799 -21 b 342 246 411 -21 314 81 l 353 306 l 194 306 l 147 33 b 108 0 143 11 131 0 l 50 0 b 24 33 24 0 18 10 l 138 683 b 176 717 142 706 154 717 l 235 717 b 261 683 258 717 265 710 l 215 421 l 372 421 m 867 474 b 713 625 883 569 828 625 b 507 472 600 625 524 568 l 465 242 b 618 92 449 147 507 92 b 825 243 731 92 808 149 "},"я":{"ha":724,"x_min":0,"x_max":0,"o":"m 658 717 b 686 683 685 717 690 710 l 574 33 b 535 0 569 11 557 0 l 475 0 b 449 33 451 0 444 7 l 486 249 l 306 249 l 129 29 b 63 0 111 3 100 0 l 11 0 b -7 39 -29 0 -31 13 l 181 265 b 72 490 93 293 54 378 b 351 717 99 636 201 717 m 346 606 b 199 481 269 606 214 557 b 300 358 186 407 224 358 l 506 358 l 549 606 "},"ё":{"ha":731,"x_min":0,"x_max":0,"o":"m 364 968 b 411 911 408 968 421 954 l 410 900 b 342 842 400 856 386 842 l 332 842 b 285 900 289 842 278 856 l 286 911 b 354 968 293 954 311 968 m 638 968 b 685 911 681 968 692 954 l 682 900 b 615 842 675 856 658 842 l 606 842 b 557 900 561 842 550 856 l 560 911 b 629 968 567 954 583 968 m 92 454 b 457 738 125 636 257 738 b 721 485 646 738 753 639 b 388 294 694 358 583 294 b 190 314 329 294 264 301 l 179 254 b 336 88 161 147 214 88 b 546 179 428 88 497 118 b 603 193 565 201 585 206 l 636 171 b 639 117 657 157 657 139 b 317 -21 568 25 461 -21 b 61 281 110 -21 28 103 m 600 500 b 439 632 618 585 561 632 b 215 454 321 632 236 565 l 207 411 b 404 390 274 397 339 390 b 600 500 518 390 583 426 "},"Ẁ":{"ha":1232,"x_min":0,"x_max":0,"o":"m 646 1243 b 708 1244 664 1261 685 1261 l 901 1117 b 899 1081 914 1108 914 1096 l 879 1061 b 838 1058 871 1051 857 1051 l 611 1172 b 613 1210 594 1179 594 1192 m 1281 986 b 1299 950 1307 986 1310 976 l 901 31 b 850 0 893 10 876 0 l 788 0 b 747 29 761 0 747 10 l 689 647 b 689 792 685 692 685 740 l 682 792 b 631 647 671 749 654 700 l 353 31 b 300 0 343 10 326 0 l 240 0 b 201 29 213 0 203 6 l 125 950 b 156 986 121 976 129 986 l 226 986 b 269 954 258 986 268 981 l 310 353 b 306 186 311 328 310 272 l 311 186 b 369 351 338 268 357 324 l 639 943 b 693 975 649 964 667 975 l 747 975 b 790 943 775 975 789 964 l 847 351 b 849 186 851 311 853 256 l 856 186 b 908 350 871 243 889 299 l 1158 954 b 1213 986 1169 981 1181 986 "}}}
